<svg xmlns="http://www.w3.org/2000/svg" width="61" height="60" viewBox="0 0 61 60" fill="none"><g clip-path="url(#clip0_798_12629)"><path d="M3.91324 32.4111H14.0251C15.819 32.4111 17.2806 33.8727 17.2806 35.653V51.7574C17.2806 56.3014 13.5601 60.0088 9.02918 60.0088H3.91324C2.13293 60.0088 0.670898 58.5472 0.670898 56.7538V35.653C0.671367 33.8727 2.13293 32.4111 3.91324 32.4111ZM14.0251 34.2843H3.91324C3.16934 34.2843 2.54496 34.896 2.54496 35.653V56.7538C2.54496 57.5108 3.16934 58.1352 3.91324 58.1352H9.02918C12.5368 58.1352 15.3938 55.2655 15.3938 51.7579V35.653C15.3938 34.8955 14.7826 34.2843 14.0251 34.2843Z" fill="#F47629"></path><path d="M19.34 32.4643L24.057 29.8468C24.5089 29.1428 24.7348 28.3323 24.7878 27.3357C24.8675 26.1531 24.7212 24.7046 24.4559 22.8845C24.2169 21.3165 24.7747 19.9876 25.7183 19.1509C26.21 18.7257 26.7814 18.4201 27.4189 18.287C28.0433 18.1407 28.708 18.1543 29.3853 18.3535C30.7672 18.7656 32.1092 19.9614 32.893 22.2071C33.5839 24.1871 33.9294 26.087 34.0091 27.9873C34.0756 29.529 33.9692 31.0567 33.7301 32.6246H43.3241C45.0378 32.6246 46.7787 33.3418 48.0012 34.5512C49.2237 35.7601 49.8748 37.3684 49.6494 39.0953L47.7889 52.9009C47.337 56.1957 44.9455 57.6709 41.7697 57.6709H36.7869H23.7383C21.4395 57.6709 19.3536 56.7414 17.8517 55.2264C16.3372 53.7249 15.3936 51.6385 15.3936 49.3398V37.4734C15.3936 36.1178 15.8984 35.1212 16.6958 34.3107C17.4139 33.5804 18.3434 33.0221 19.34 32.4643ZM43.842 42.4829C44.36 42.4829 44.772 42.9081 44.772 43.4265C44.772 43.9449 44.36 44.3565 43.842 44.3565H33.8103V46.8146H43.2711C43.7891 46.8146 44.2147 47.2262 44.2147 47.7442C44.2147 48.2626 43.7895 48.6878 43.2711 48.6878H33.8103V51.1328H40.6798C41.1978 51.1328 41.6098 51.5579 41.6098 52.0764C41.6098 52.5948 41.1978 53.0064 40.6798 53.0064H33.8234C33.8633 53.7507 34.1825 54.4281 34.6873 54.9198C35.232 55.4645 35.9759 55.7968 36.7869 55.7968H41.7697C43.9883 55.7968 45.6097 54.9995 45.9284 52.6473L47.802 38.8421C47.8948 38.071 47.7092 37.3271 47.3234 36.6892C47.0309 38.1245 45.8487 39.4398 44.3605 39.4398H36.7869C35.9764 39.4398 35.2325 39.7717 34.6873 40.3032C34.1422 40.8484 33.8103 41.5923 33.8103 42.4028V42.4824L43.842 42.4829ZM32.96 55.7968C32.3225 54.9728 31.9367 53.9499 31.9367 52.8339V42.4032C31.9367 41.0743 32.4814 39.8654 33.3584 38.9884C34.2355 38.0982 35.458 37.5531 36.7864 37.5531H44.36C45.0912 37.5531 45.6758 36.4239 45.4761 35.7324C45.3964 35.4137 45.1709 35.0682 44.772 34.7359C44.2934 34.5765 43.8153 34.4968 43.3236 34.4968H33.3186C32.1491 38.2037 30.2356 42.7614 26.7809 44.6481C26.3295 44.8876 25.7576 44.7278 25.5055 44.2759C25.2664 43.8245 25.4258 43.2526 25.8908 43.0004C30.2487 40.622 32.3351 32.8487 32.1355 28.0656C32.0689 26.3382 31.7506 24.6109 31.1262 22.8306C30.568 21.2228 29.7041 20.3987 28.8537 20.1465C28.4947 20.0401 28.1497 20.027 27.8305 20.1067C27.4981 20.1732 27.2056 20.3321 26.9666 20.545C26.4617 20.9968 26.1692 21.7145 26.3023 22.6046C26.5948 24.5443 26.7542 26.1123 26.6614 27.4543C26.5948 28.4242 26.09 30.8425 25.16 31.3604L20.2569 34.0979C19.3798 34.5896 18.5825 35.0546 18.0378 35.6124C17.5728 36.091 17.2803 36.6756 17.2803 37.4729V49.3384C17.2803 51.1187 17.998 52.7265 19.167 53.896C20.3361 55.0782 21.9575 55.7964 23.7378 55.7964L32.96 55.7968Z" fill="#F47629"></path><path d="M52.0933 7.05858L54.4314 12.0147L59.8525 12.7056C60.3574 12.7722 60.7295 13.2372 60.663 13.7551C60.6363 13.9811 60.5303 14.1672 60.3705 14.313L56.3974 18.0601L57.407 23.4414C57.5003 23.9462 57.168 24.438 56.6631 24.5308C56.4236 24.5842 56.1981 24.5308 55.9989 24.4112L51.242 21.8069L46.4453 24.438C45.9935 24.677 45.422 24.5176 45.1699 24.0662C45.0635 23.867 45.0367 23.6542 45.077 23.4414L46.0867 18.0601L42.1136 14.313C41.5155 13.7551 41.8741 12.7586 42.685 12.7051L48.0531 12.0142L50.3913 7.05811C50.6172 6.59311 51.1755 6.39389 51.6405 6.61936C51.8406 6.71311 52 6.87249 52.0933 7.05858ZM52.9567 13.277L51.243 9.64936L49.5292 13.277C49.3961 13.5559 49.1303 13.7556 48.798 13.795L44.8385 14.313L47.7485 17.05C47.9739 17.2628 48.0808 17.5816 48.0274 17.9139L47.2835 21.8472L50.7911 19.9206C51.0569 19.7744 51.4024 19.7612 51.6949 19.9206L55.2025 21.8472L54.4581 17.9139C54.4052 17.6083 54.4985 17.2891 54.7375 17.05L57.6606 14.313L53.7274 13.8081C53.4086 13.7819 53.103 13.5826 52.9567 13.277Z" fill="#F47629"></path><path d="M50.4326 26.7104C50.5526 26.2056 51.0575 25.8868 51.5492 26.0064C52.054 26.1259 52.3728 26.6312 52.2533 27.1225C52.0409 28.0525 51.7747 28.9426 51.4559 29.8065C51.1372 30.6836 50.7519 31.5339 50.3131 32.3706C50.0742 32.8225 49.5158 33.0086 49.0644 32.7695C48.5994 32.5304 48.4264 31.959 48.6655 31.5076C49.0508 30.7632 49.3962 29.9795 49.7019 29.169C49.9939 28.3586 50.247 27.5481 50.4326 26.7104ZM31.6311 1.96934V10.6061C33.8239 10.4996 35.9098 10.0614 37.8631 9.31699C37.9826 9.27715 38.1022 9.22418 38.2353 9.17074C37.4112 7.19074 36.4147 5.51684 35.2855 4.26809C34.1694 3.04605 32.9333 2.23559 31.6311 1.96934ZM31.6311 12.4801V13.9286C31.6311 14.4465 31.2064 14.8717 30.7011 14.8717C30.1831 14.8717 29.7575 14.4465 29.7575 13.9286V12.4801C27.3392 12.3737 25.0273 11.882 22.8748 11.0715C22.7553 11.0186 22.6358 10.9787 22.5158 10.9389C21.5323 13.9018 20.9347 17.41 20.8414 21.1965H21.6256C22.1436 21.1965 22.5556 21.6217 22.5556 22.1401C22.5556 22.6586 22.1441 23.0701 21.6256 23.0701H20.8414C20.8545 23.695 20.8812 24.2926 20.9211 24.8771C20.9876 25.8071 21.0805 26.6973 21.2 27.5612C21.2666 28.0661 20.9075 28.5446 20.4026 28.6107C19.8847 28.6773 19.4192 28.3182 19.3526 27.8134C19.22 26.8834 19.1267 25.9529 19.0601 25.0098C19.0203 24.3587 18.9805 23.7207 18.9673 23.0697H10.4643C10.491 23.8004 10.5571 24.5181 10.6766 25.2221C10.8228 26.2454 11.0619 27.242 11.3675 28.2118C11.5137 28.7036 11.2348 29.2215 10.7431 29.3814C10.2514 29.5276 9.73348 29.2618 9.57364 28.7701C9.24176 27.707 8.9891 26.6176 8.81614 25.4884C8.64317 24.399 8.56348 23.2693 8.56348 22.1401C8.56348 16.0276 11.0347 10.487 15.0476 6.48762C19.048 2.48777 24.5886 0.00292969 30.7011 0.00292969C33.7573 0.00292969 36.6805 0.627305 39.3378 1.75699C42.0884 2.92605 44.5597 4.64027 46.6062 6.76652C46.9648 7.13824 46.9648 7.72324 46.5931 8.08184C46.2209 8.4409 45.6233 8.42731 45.2642 8.05512C45.0786 7.86902 44.892 7.68293 44.6928 7.49731C43.4436 8.53371 42.0617 9.42387 40.5866 10.1678C40.6667 10.3937 40.7464 10.6196 40.8125 10.8456C40.9587 11.3373 40.693 11.8689 40.1881 12.0151C39.6964 12.1614 39.1784 11.8956 39.0186 11.3903C38.9787 11.244 38.9258 11.0846 38.8723 10.9253C38.7528 10.9782 38.6333 11.0181 38.5269 11.0715C36.3612 11.882 34.0494 12.3732 31.6311 12.4801ZM29.7575 10.6061V1.96934C27.5253 2.43434 25.4656 4.4809 23.8981 7.57652C23.6323 8.08137 23.3933 8.61293 23.1673 9.17074C23.2869 9.22418 23.4064 9.27715 23.5259 9.31699C25.4792 10.0614 27.5651 10.5001 29.7575 10.6061ZM42.0748 21.1965C42.5933 21.1965 43.0184 21.6217 43.0184 22.1401C43.0184 22.6586 42.5938 23.0701 42.0748 23.0701H35.7505C35.2325 23.0701 34.8205 22.6586 34.8205 22.1401C34.8205 21.6217 35.2325 21.1965 35.7505 21.1965H42.0748ZM10.4643 21.1965H18.9683C19.0611 17.1437 19.7258 13.3567 20.802 10.1546C19.3273 9.42387 17.9586 8.53371 16.6962 7.49731C16.5898 7.60371 16.4834 7.71012 16.377 7.81605C12.9092 11.2707 10.7037 15.9746 10.4643 21.1965ZM18.118 6.24809C19.1544 7.07168 20.2705 7.78934 21.4531 8.40059C21.7058 7.81605 21.958 7.25777 22.2237 6.72668C23.0473 5.11887 23.9909 3.75012 25.0405 2.67387C22.4895 3.41777 20.1509 4.64027 18.118 6.24809ZM39.9355 8.40059C41.1181 7.78934 42.2342 7.07215 43.2706 6.24809C41.8489 5.13199 40.2809 4.1884 38.6066 3.48434C37.8758 3.16512 37.1183 2.89934 36.3481 2.67387C36.4545 2.7934 36.5605 2.8998 36.6673 3.01934C37.9292 4.41434 39.0322 6.23496 39.9355 8.40059ZM40.4806 24.5312C40.5205 24.0264 40.9592 23.6279 41.4772 23.6542C41.982 23.6809 42.3809 24.1328 42.3542 24.6507C42.3012 25.5011 42.2215 26.3251 42.1287 27.122C42.0355 27.9325 41.9159 28.7429 41.7566 29.5403C41.6637 30.0451 41.1851 30.3901 40.6803 30.2978C40.1623 30.2045 39.83 29.7128 39.9228 29.2079C40.0555 28.4771 40.1755 27.7065 40.2683 26.9092C40.3611 26.1259 40.4408 25.329 40.4806 24.5312Z" fill="#F47629"></path><path d="M10.3165 51.7303C10.3165 51.2123 10.7285 50.8008 11.2465 50.8008C11.7644 50.8008 12.19 51.2123 12.19 51.7303C12.19 53.7239 10.5691 55.3448 8.57598 55.3448C6.58285 55.3448 4.96191 53.7239 4.96191 51.7303C4.96191 51.2123 5.38707 50.8008 5.90551 50.8008C6.42395 50.8008 6.8491 51.2123 6.8491 51.7303C6.8491 52.7002 7.61973 53.4712 8.57645 53.4712C9.53316 53.4712 10.3165 52.7006 10.3165 51.7303Z" fill="#F47629"></path></g><defs><clipPath id="clip0_798_12629"><rect width="60" height="60" fill="white" transform="translate(0.666992)"></rect></clipPath></defs></svg>