<svg xmlns="http://www.w3.org/2000/svg" width="48" height="48" viewBox="0 0 48 48" fill="none"><path d="M35.9707 13.4248C38.5394 13.4243 40.5208 11.1483 40.1633 8.60466C39.8379 6.28884 37.7004 4.67824 35.3846 5.00371C33.0745 5.32844 31.459 7.4721 31.7837 9.78238C32.0804 11.8939 33.8964 13.425 35.9707 13.4248ZM35.5803 6.39577C37.1266 6.17835 38.5539 7.25402 38.7714 8.80033C38.9881 10.343 37.9095 11.7745 36.3668 11.9913C34.8252 12.2083 33.3926 11.1295 33.1758 9.5867C32.9589 8.04405 34.0377 6.61254 35.5803 6.39577Z" fill="#F47629"></path><path d="M43.0686 24.0145H23.6231C23.5713 23.7494 23.5265 23.6702 23.2089 22.9038C22.9331 22.238 23.6453 21.5366 24.3036 21.8093L25.0076 22.1009C26.0819 22.5458 27.3177 22.0339 27.7626 20.9597L28.847 18.3418C29.2918 17.2678 28.7799 16.0318 27.7057 15.5869L27.0017 15.2953C26.3357 15.0195 26.3432 14.02 27.0016 13.7473L27.7057 13.4557C28.2366 13.2357 28.6299 12.8224 28.8384 12.3311L29.6064 12.2308C29.8566 12.7549 30.2342 13.2959 30.2342 13.2959L29.6106 14.1228C29.1445 14.7422 29.2691 15.6252 29.8878 16.0907L31.0194 16.9439C31.6382 17.4093 32.5211 17.2851 32.9882 16.6667L33.6081 15.8393C33.6081 15.8393 34.2093 16.0614 34.8153 16.1521L34.9595 17.1768C35.0586 17.8778 35.6624 18.3869 36.3525 18.3869C36.4874 18.3869 36.4313 18.3898 37.9487 18.1759C38.716 18.0695 39.2537 17.3578 39.147 16.5879L39.0084 15.5599C39.5415 15.3067 39.7413 15.1548 40.0751 14.9323L40.9019 15.555C41.5212 16.021 42.4042 15.8964 42.8696 15.2778L43.7228 14.1461C44.1884 13.5273 44.0645 12.6446 43.4463 12.178L42.6205 11.557C42.6846 11.3924 42.8947 10.7328 42.9302 10.3504L43.9552 10.2063C44.7246 10.0993 45.2613 9.38774 45.1524 8.6187L44.9554 7.21493C44.8467 6.44759 44.1342 5.91134 43.3668 6.01949L42.3391 6.15875C42.2503 5.97123 41.9356 5.33827 41.7109 5.09105L42.3338 4.26475C42.7988 3.64679 42.6755 2.76408 42.0574 2.29587L40.9249 1.44268C40.3056 0.976729 39.4227 1.10137 38.9569 1.72027L38.336 2.54544C38.336 2.54544 37.8693 2.3581 37.1292 2.23637L36.9851 1.2113C36.8779 0.441236 36.1674 -0.0941634 35.3976 0.0141722L33.9941 0.210976C33.2266 0.319593 32.6903 1.03193 32.7985 1.79862L32.9365 2.82715C32.4154 3.07531 32.1814 3.22676 31.8708 3.45533L31.0439 2.83165C30.4254 2.36635 29.5423 2.49034 29.0748 3.10924L28.2236 4.23964C27.7564 4.85816 27.8798 5.74162 28.4993 6.20964L29.3248 6.83023C29.3248 6.83023 29.1373 7.2975 29.0154 8.03645L27.8183 8.21704L27.7627 8.08293C27.3177 7.00885 26.0817 6.49679 25.0077 6.94175L24.3036 7.23339C23.6377 7.50911 22.9365 6.79696 23.209 6.13879L23.5006 5.43489C23.9468 4.35819 23.4362 3.12582 22.3594 2.67983L19.7416 1.59544C18.6677 1.15057 17.4316 1.66226 16.9865 2.73671L16.6951 3.44062C16.4221 4.09963 15.4236 4.10815 15.147 3.44062L14.8555 2.73671C14.4106 1.66245 13.1746 1.15067 12.1004 1.59544L9.48256 2.67983C8.40576 3.12592 7.89539 4.35809 8.34138 5.43489L8.63302 6.13889C8.90799 6.80296 8.19828 7.50676 7.53823 7.23339L6.83433 6.94184C5.75763 6.49594 4.52517 7.00632 4.07937 8.08302L2.99498 10.7006C2.55011 11.7748 3.06208 13.0107 4.13625 13.4556L4.84015 13.7471C5.50619 14.023 5.49869 15.0224 4.84025 15.2951L4.13625 15.5868C3.05946 16.0328 2.54889 17.2651 2.99507 18.3417L4.07937 20.9596C4.52517 22.0363 5.75773 22.5467 6.83433 22.1008L7.53842 21.8091C8.20277 21.5337 8.90602 22.2443 8.63293 22.9038C8.36265 23.5561 8.27325 23.7339 8.21899 24.0144H4.93181C2.21892 24.0144 0.0117188 26.2215 0.0117188 28.9345V30.1059C0.0117188 30.4941 0.326323 30.8088 0.714588 30.8088C1.10285 30.8088 1.41746 30.4941 1.41746 30.1059V28.9345C1.41746 26.9966 2.99395 25.4201 4.93181 25.4201H5.21998L6.68261 28.3454C7.52127 30.0227 9.20713 31.0646 11.0824 31.0646H36.918C38.7933 31.0646 40.4791 30.0227 41.3178 28.3454L42.7804 25.4201H43.0686C45.0064 25.4201 46.5829 26.9966 46.5829 28.9345V40.2685C46.5829 43.5283 44.1042 46.2194 40.9328 46.5577V44.4641C40.9328 42.5263 39.3563 40.9498 37.4184 40.9498H34.8028C34.4146 40.9498 34.1 41.2645 34.1 41.6526C34.1 42.0408 34.4146 42.3555 34.8028 42.3555H37.4184C38.3345 42.3555 39.1157 42.9429 39.406 43.7608H8.59441C8.88465 42.9429 9.66587 42.3555 10.5819 42.3555H31.5227C31.9109 42.3555 32.2255 42.0408 32.2255 41.6526C32.2255 41.2645 31.9109 40.9498 31.5227 40.9498H10.5819C8.64408 40.9498 7.06759 42.5263 7.06759 44.4641V46.5577C3.89615 46.2193 1.41746 43.5282 1.41746 40.2685V33.386C1.41746 32.9978 1.10285 32.6831 0.714588 32.6831C0.326323 32.6831 0.0117188 32.9978 0.0117188 33.386V40.2685C0.0117188 44.5317 3.48015 48 7.74329 48H40.257C44.5201 48 47.9886 44.5317 47.9886 40.2685V28.9345C47.9887 26.2216 45.7815 24.0145 43.0686 24.0145ZM29.2113 9.42822C29.8224 9.34228 30.3013 8.87258 30.4028 8.25996C30.4558 7.94095 30.5386 7.6211 30.648 7.31099C30.8567 6.72489 30.6656 6.08144 30.1725 5.70985L29.3459 5.08589L30.1982 3.95437L31.0257 4.57861C31.518 4.94963 32.1888 4.95647 32.695 4.59501C32.9626 4.40392 33.2473 4.23608 33.5412 4.09606C34.1017 3.82879 34.4208 3.23922 34.3349 2.62894L34.1902 1.60294L35.5932 1.40585L35.7376 2.43204C35.8235 3.04317 36.2933 3.52205 36.9062 3.62355C37.2244 3.67631 37.544 3.75906 37.8549 3.8689C38.4401 4.07704 39.0834 3.88652 39.457 3.39329L40.0799 2.56559L41.2113 3.41887L40.5875 4.24648C40.2173 4.73933 40.2109 5.41015 40.5718 5.91575C40.7634 6.18424 40.9307 6.46839 41.0697 6.76182C41.337 7.32261 41.9267 7.64153 42.5379 7.55568L43.5638 7.41089L43.7609 8.81391L42.7347 8.95824C42.1235 9.04417 41.6447 9.51388 41.5434 10.1248C41.4884 10.4509 41.4055 10.7707 41.2962 11.0775C41.0898 11.6633 41.2813 12.3062 41.7734 12.6775L42.6003 13.3003L41.7475 14.4318L40.9201 13.8088C40.4279 13.4378 39.7571 13.4311 39.2509 13.7924C38.984 13.9829 38.6995 14.1503 38.4047 14.2903C37.844 14.5575 37.525 15.1474 37.6109 15.7585L37.7542 16.7835L36.3517 16.9805L36.2074 15.9554C36.1216 15.3454 35.6526 14.8664 35.039 14.7629C34.7156 14.7091 34.3964 14.6266 34.0882 14.5169C33.5009 14.3101 32.8583 14.5022 32.4892 14.9937L31.8653 15.821L30.7336 14.9686L31.3577 14.1409C31.7289 13.6486 31.7354 12.9778 31.3741 12.4716C31.1843 12.2056 31.0162 11.9207 30.8753 11.6256C30.6081 11.0649 30.0191 10.7461 29.4083 10.8317L28.9183 10.9006L28.369 9.54668L29.2113 9.42822ZM7.00059 20.5105L6.2965 20.8022C5.93757 20.9508 5.52681 20.7807 5.37808 20.4218L4.29379 17.8038C4.14515 17.4449 4.31525 17.0341 4.67428 16.8856L5.37827 16.5939C7.17237 15.8507 7.22119 13.2118 5.37818 12.4485L4.67428 12.157C4.31628 12.0086 4.14553 11.5966 4.29379 11.2386L5.37818 8.62077C5.52662 8.26193 5.93766 8.09174 6.2965 8.24037L7.0004 8.53192C8.79403 9.27472 10.6953 7.44397 9.93174 5.60067L9.6401 4.89668C9.49156 4.53775 9.66165 4.12708 10.0206 3.97836L12.6384 2.89397C12.9964 2.74581 13.4085 2.91627 13.5569 3.27446L13.8485 3.97845C14.593 5.77583 17.2316 5.81856 17.9939 3.97836L18.2853 3.27455C18.4337 2.91637 18.8456 2.74571 19.2037 2.89406L21.8216 3.97845C22.1805 4.12708 22.3507 4.53784 22.2021 4.89677L21.9104 5.60077C21.1676 7.39459 22.9985 9.29533 24.8417 8.53202L25.5458 8.24037C25.9038 8.09202 26.3158 8.26268 26.4642 8.62077L27.5484 11.2385C27.6967 11.5966 27.5261 12.0086 27.168 12.157L26.4639 12.4486C24.6702 13.1917 24.6206 15.8304 26.464 16.594L27.168 16.8856C27.526 17.0339 27.6967 17.4459 27.5485 17.8039L26.4642 20.4217C26.3159 20.7798 25.9042 20.9507 25.5458 20.8022L24.8418 20.5106C23.048 19.7676 21.147 21.5986 21.9104 23.4418L22.2021 24.1459C22.3507 24.5048 22.1806 24.9155 21.8217 25.0642L19.2037 26.1486C18.8458 26.297 18.4344 26.1279 18.2854 25.7681L17.9937 25.064C17.2508 23.2703 14.6118 23.2207 13.8483 25.0641L13.5568 25.7681C13.4082 26.1266 12.9977 26.2972 12.6384 26.1485L10.0205 25.0641C9.66249 24.9157 9.49174 24.5037 9.64 24.1458L9.93155 23.4419C10.6744 21.649 8.84379 19.7469 7.00059 20.5105ZM40.0605 27.7168C39.4615 28.9148 38.2574 29.659 36.918 29.659H11.0824C9.743 29.659 8.53884 28.9148 7.9399 27.7168L6.7916 25.4202H8.43744C8.65983 25.8308 9.01857 26.1707 9.48256 26.3629L12.1004 27.4473C13.1812 27.895 14.4112 27.379 14.8554 26.3061L15.1469 25.6022C15.4228 24.9361 16.4222 24.9437 16.695 25.6021L16.9866 26.3061C17.4326 27.3829 18.6648 27.8933 19.7416 27.4474L22.3595 26.363C22.8116 26.1757 23.1763 25.8449 23.4058 25.4203H41.2088L40.0605 27.7168ZM8.47333 45.1666H39.527V46.5944H8.47333V45.1666Z" fill="#F47629"></path><path d="M12.9511 21.6897C14.8658 22.4828 16.9746 22.4829 18.8891 21.6895C22.1741 20.329 24.1115 16.925 23.6004 13.4116C23.5445 13.0275 23.1864 12.7611 22.8037 12.8173C22.4195 12.8731 22.1535 13.2298 22.2093 13.6139C22.6276 16.4899 21.041 19.2766 18.3509 20.3907C15.1077 21.7351 11.3942 20.1966 10.0507 16.953C8.70633 13.7087 10.2446 9.9952 13.4891 8.65169C16.218 7.52175 19.4271 8.45366 21.1194 10.8677C21.3423 11.1856 21.7805 11.2627 22.0983 11.0398C22.4163 10.817 22.4933 10.3786 22.2705 10.0608C21.2735 8.63866 19.8027 7.58117 18.1289 7.08326C14.4131 5.97741 10.3085 7.79418 8.75178 11.552C7.11063 15.5141 8.98907 20.0487 12.9511 21.6897Z" fill="#F47629"></path><path d="M17.8105 9.96044C15.2896 8.91626 12.4047 10.1113 11.3605 12.6321C10.0168 15.8758 12.4007 19.4579 15.9277 19.4579C19.4219 19.4579 21.829 15.8839 20.4822 12.6321C19.9776 11.414 19.0287 10.4651 17.8105 9.96044ZM17.2726 17.7834C15.4738 18.5283 13.4044 17.6713 12.6591 15.8725C11.7044 13.5674 13.3857 10.9885 15.9214 10.9885C17.2869 10.9885 18.6131 11.7931 19.1835 13.1701C19.9285 14.9689 19.0713 17.0384 17.2726 17.7834Z" fill="#F47629"></path><path d="M18.8511 34.8113V33.6868C18.8511 33.2986 18.5364 32.9839 18.1482 32.9839C17.7599 32.9839 17.4453 33.2986 17.4453 33.6868V34.8113C17.4453 35.1995 17.7599 35.5142 18.1482 35.5142C18.5364 35.5142 18.8511 35.1995 18.8511 34.8113Z" fill="#F47629"></path><path d="M30.5561 34.8113V33.6868C30.5561 33.2986 30.2415 32.9839 29.8533 32.9839C29.465 32.9839 29.1504 33.2986 29.1504 33.6868V34.8113C29.1504 35.1995 29.465 35.5142 29.8533 35.5142C30.2415 35.5142 30.5561 35.1995 30.5561 34.8113Z" fill="#F47629"></path><path d="M26.0726 35.2394C26.3277 34.9467 26.2971 34.5028 26.0044 34.2477C25.7117 33.9927 25.2676 34.0231 25.0127 34.3158C24.4763 34.9313 23.5231 34.9313 22.9867 34.3158C22.7315 34.0231 22.2877 33.9927 21.995 34.2477C21.7024 34.5027 21.6718 34.9466 21.9268 35.2394C23.0231 36.4975 24.9764 36.4975 26.0726 35.2394Z" fill="#F47629"></path></svg>