<svg xmlns="http://www.w3.org/2000/svg" width="48" height="48" viewBox="0 0 48 48" fill="none"><g clip-path="url(#clip0_897_13777)"><path d="M47.6098 30.6559C47.5918 30.5764 47.5553 30.503 47.5064 30.4382C47.5064 30.4382 38.1027 18.3447 38.1027 18.3447C37.9961 18.2077 37.8323 18.1275 37.6587 18.1275H36.7513L36.8119 17.7033C41.5844 16.7438 44.3221 11.1903 42.1197 6.82224C41.7097 5.97268 40.9107 5.36467 39.9826 5.1959C38.9876 5.01481 38.0305 5.67733 37.8494 6.67269L37.2205 10.1314C37.165 10.4365 36.872 10.6396 36.5664 10.5842L33.7172 10.0661C33.4187 10.0181 33.2041 9.70849 33.2644 9.41203C33.2644 9.41204 33.8931 5.95423 33.8931 5.95423C34.0898 4.98733 33.3899 3.97636 32.4156 3.82001C31.4963 3.65291 30.5499 3.92629 29.8844 4.55159C26.2392 7.87104 26.8382 14.0126 30.9816 16.6423L29.3062 24.2132C28.6468 20.8929 27.7151 16.207 27.0542 12.8794C26.8959 11.9864 25.956 11.3576 25.0703 11.5532C25.0703 11.5531 19.7009 12.62 19.7009 12.62C18.7883 12.8014 18.1934 13.6914 18.3747 14.604L19.4326 19.928L18.2014 18.3447C18.0949 18.2077 17.931 18.1275 17.7574 18.1275H14.2185L13.2677 13.6215C13.5623 13.5849 13.7781 13.3248 13.7596 13.0286C13.7596 13.0286 13.5789 10.1138 13.5789 10.1138L14.7647 9.95135C14.9436 10.6677 15.6502 11.2103 16.3884 11.1979C16.2765 11.2419 19.6558 10.7623 19.6881 10.7618C20.6099 10.6355 21.2571 9.78273 21.1308 8.86084L20.1713 1.85816C20.1101 1.41161 19.8787 1.01555 19.5197 0.743047C19.1606 0.47054 18.7165 0.354085 18.2704 0.41538L15.2033 0.835607C14.3542 0.95197 13.7398 1.68499 13.7465 2.52029L6.37125 3.53083C4.96903 3.72295 3.7132 4.44256 2.8353 5.55703C1.78693 6.88788 0.984566 8.42048 0.450356 10.1124C0.269173 10.6867 0.418038 11.3065 0.838815 11.7299C1.5206 12.4403 2.75682 12.327 3.29581 11.5023C3.78104 10.7868 4.32606 10.1312 4.9228 9.5441L5.08265 10.7103C5.12486 11.0181 5.40876 11.2333 5.71629 11.1912L6.84248 11.0369L7.45258 13.8928C7.51326 14.1844 7.7978 14.3764 8.08583 14.3316L8.73446 24.3908L4.03629 30.4275C3.95948 30.5262 3.91773 30.6478 3.91773 30.7729V39.9404L0.79725 40.7434C0.548684 40.8074 0.374917 41.0315 0.374917 41.2882V43.8158C0.374917 44.0724 0.548684 44.2966 0.79725 44.3605L3.91773 45.1636V47.0624C3.91773 47.373 4.16959 47.6249 4.48023 47.6249C4.48023 47.6249 40.8109 47.6282 47.0624 47.6249C47.3731 47.6249 47.6249 47.373 47.6249 47.0624V30.7835C47.6249 30.7395 47.6194 30.6969 47.6098 30.6559ZM15.3561 1.95017L18.4231 1.52994C18.5702 1.50957 18.7199 1.54803 18.8395 1.63917C18.9592 1.72999 19.0363 1.862 19.0567 2.01087L20.0163 9.01355C20.0584 9.32085 19.8426 9.60512 19.5353 9.64724L16.4683 10.0675C16.1699 10.1143 15.8694 9.88722 15.8347 9.58653C15.8347 9.58654 15.3549 6.08519 15.3549 6.08519C15.3304 5.92076 14.8837 2.63543 14.8751 2.58384C14.833 2.27655 15.0488 1.99228 15.3561 1.95017ZM7.83353 10.2912C7.77324 10.0021 7.49323 9.81049 7.20713 9.85145C7.20713 9.85145 6.12086 10.0003 6.12086 10.0003L5.89298 8.33757C5.86524 8.13529 5.73011 7.96395 5.53996 7.88984C5.34953 7.81559 5.13419 7.85042 4.977 7.98061C3.9907 8.79708 3.11179 9.76941 2.36482 10.8707C2.18166 11.1234 1.86014 11.1487 1.63688 10.937C1.51182 10.8111 1.46833 10.6249 1.52317 10.4511C2.01627 8.88927 2.7551 7.47689 3.71897 6.25319C4.41569 5.36879 5.41187 4.79778 6.52396 4.64539L13.8839 3.63694C14.0616 4.9335 14.4191 7.54263 14.5967 8.83887L12.9089 9.07018C12.6171 9.11014 12.4056 9.36837 12.4238 9.66225L12.6044 12.5769L8.44364 13.1471L7.83353 10.2912ZM37.3836 19.2525L45.9125 30.221H43.464L36.3335 21.051L36.5905 19.2525H37.3836ZM37.7736 40.4893C37.7058 39.9231 37.6122 39.3603 37.4919 38.8025C37.3253 38.0357 36.6321 37.4791 35.8435 37.4791H27.7237V31.3461C31.6496 31.3462 38.6309 31.3459 42.6181 31.346V43.3154H37.8792C37.9205 42.3731 37.8853 41.4298 37.7736 40.4893ZM24.4107 37.4791C24.2127 37.4805 24.0162 37.5304 23.8419 37.6235V31.346H26.5987V37.4791H24.4107ZM36.1119 22.6019L42.0312 30.221H35.0232L36.1119 22.6019ZM29.3529 30.221H27.4363L27.0134 29.677L29.1601 29.2504L29.3529 30.221ZM32.1667 16.4939C32.2198 16.2539 32.1109 16.0073 31.8979 15.8847C29.5641 14.5425 28.2599 11.8593 28.6524 9.20797C28.8722 7.72202 29.5646 6.39547 30.6545 5.37159C31.0614 4.98949 31.6443 4.82323 32.2144 4.92687C32.5998 4.99695 32.8564 5.36751 32.7862 5.75295L32.1575 9.2108C32.0769 9.65429 32.1738 10.1026 32.4304 10.4732C32.6869 10.8438 33.0725 11.0924 33.516 11.173L36.3652 11.6911C37.2539 11.8718 38.1837 11.2284 38.3274 10.3326C38.3274 10.3326 38.9562 6.87397 38.9562 6.87397C39.0262 6.48899 39.3956 6.23269 39.7813 6.30277C40.3568 6.40741 40.8523 6.78447 41.1066 7.31136C43.0481 11.1705 40.4936 16.0462 36.222 16.6705C35.9791 16.7098 35.7899 16.9025 35.7551 17.1462L35.546 18.6099C35.3029 20.3108 34.1518 28.3659 33.8868 30.221H30.4999C30.4338 29.888 30.2234 28.8293 30.1538 28.4789C30.1538 28.4789 29.8513 26.9565 29.8513 26.9565L32.1667 16.4939ZM19.4781 14.3847C19.4177 14.0805 19.616 13.7838 19.9201 13.7233L25.2895 12.6565C25.5848 12.5917 25.898 12.8008 25.9508 13.0986C25.9508 13.0986 26.1022 13.8606 26.1022 13.8606L23.84 14.3102C23.5352 14.3707 23.3373 14.6668 23.3979 14.9715C23.457 15.2781 23.762 15.475 24.0591 15.4135C24.0591 15.4135 26.3214 14.964 26.3214 14.964L26.5753 16.2417L25.3245 16.4902C25.0197 16.5507 24.8219 16.8468 24.8824 17.1515C24.9415 17.4582 25.2465 17.655 25.5437 17.5936C25.5437 17.5936 26.7945 17.3451 26.7945 17.3451L27.0484 18.6228L24.7862 19.0723C24.4814 19.1328 24.2835 19.4289 24.3441 19.7336C24.4032 20.0403 24.7082 20.2371 25.0053 20.1757C25.0053 20.1757 27.2677 19.7262 27.2677 19.7262L27.5215 21.0039L26.2708 21.2524C25.966 21.3129 25.7682 21.609 25.8287 21.9137C25.8878 22.2204 26.1928 22.4172 26.49 22.3558C26.49 22.3558 27.7408 22.1072 27.7408 22.1072L27.9946 23.3849L25.7324 23.8344C25.4276 23.8949 25.2297 24.191 25.2903 24.4957C25.3494 24.8024 25.6544 24.9992 25.9515 24.9378C25.9515 24.9378 28.2139 24.4883 28.2139 24.4883L28.4677 25.766L27.217 26.0145C26.9122 26.075 26.7144 26.3711 26.7749 26.6758C26.834 26.9825 27.139 27.1793 27.4362 27.1179C27.4362 27.1179 28.687 26.8694 28.687 26.8694L28.9408 28.147L26.6787 28.5965C26.5374 28.6246 26.4196 28.7036 26.3394 28.8102L20.9732 21.9093L19.4781 14.3847ZM26.0111 30.221H23.5628C21.4463 27.4991 17.1334 21.9526 15.0339 19.2525H17.4823C17.4823 19.2525 26.011 30.2206 26.0111 30.221ZM9.20325 14.1785L12.1502 13.7747L13.1839 18.6737L9.77553 23.0531L9.20325 14.1785ZM5.04273 39.6509V30.966C7.24423 28.1371 11.6953 22.4187 13.8839 19.6063L22.7169 30.9659V38.7874L21.4208 38.9219C21.3648 38.9278 21.3255 38.9041 21.3025 38.8833C21.2793 38.8625 21.2519 38.8259 21.2519 38.7696C21.2519 38.0648 20.6785 37.4914 19.9737 37.4914H19.2764C18.346 37.4914 17.5888 38.2484 17.5888 39.1789V40.6526H7.58039L7.1061 40.2511C7.06358 40.2206 6.22709 39.4917 6.20644 39.5064C6.08265 39.4391 5.93613 39.4203 5.7996 39.4561C5.7996 39.4561 5.04273 39.6509 5.04273 39.6509ZM1.49992 41.7242L5.79832 40.6181L7.01084 41.6445C7.11246 41.7304 7.24119 41.7776 7.37431 41.7776H17.5889V43.3263H7.37431C7.24119 43.3263 7.11246 43.3735 7.01084 43.4595L5.79832 44.4859L1.49992 43.3797V41.7242ZM5.04273 46.4999V45.4531L5.7996 45.6479C5.9087 45.6758 6.02532 45.6691 6.13139 45.6319C6.19345 45.6082 6.25167 45.5749 6.30323 45.5325C6.59934 45.2818 7.29086 44.6964 7.58039 44.4514H17.5888V45.925C17.5889 46.1214 17.6263 46.3148 17.6896 46.4999H5.04273ZM21.2435 46.4761C21.2484 46.4291 21.2518 46.3823 21.2519 46.3344C21.2519 46.2781 21.2793 46.2415 21.3024 46.2207C21.3255 46.1999 21.3647 46.1763 21.4208 46.1821L22.7169 46.3166V46.4999H21.2412C21.2423 46.492 21.2427 46.484 21.2435 46.4761ZM24.3416 46.4307C24.348 45.8296 23.872 45.3003 23.2706 45.243C23.2706 45.243 21.5369 45.0631 21.5369 45.0631C21.3917 45.0483 21.2446 45.059 21.1031 45.0939C20.5413 45.2217 20.119 45.7581 20.1269 46.3344C20.1269 46.4188 20.0581 46.4875 19.9737 46.4875H19.2764C18.9663 46.4875 18.7139 46.2352 18.7139 45.925V39.1789C18.7139 38.8688 18.9663 38.6164 19.2764 38.6164H19.9737C20.0581 38.6164 20.1269 38.6852 20.1269 38.7696C20.1113 39.506 20.8055 40.133 21.5369 40.0409C21.5369 40.0409 23.2712 39.861 23.2712 39.861C23.3126 39.8559 23.3537 39.8499 23.3938 39.8414C23.8719 39.74 24.2395 39.3599 24.3228 38.8822C24.3338 38.813 24.3422 38.7438 24.3416 38.6733C24.3416 38.6351 24.3726 38.6041 24.4107 38.6041C26.3971 38.6347 33.9273 38.5445 36.0326 38.6367C36.211 38.7004 36.3512 38.8513 36.3925 39.0414C36.4482 39.2996 36.4977 39.5585 36.5414 39.8188C36.7644 41.144 36.8236 42.4906 36.7193 43.8343C36.677 44.3757 36.6081 44.9166 36.5122 45.4513C36.4574 45.7006 36.4421 45.9677 36.3393 46.2017C36.244 46.3799 36.055 46.4999 35.8435 46.4999H24.4107C24.3726 46.4999 24.3416 46.4689 24.3416 46.4307ZM37.4471 46.4635C37.6211 45.7993 37.7149 45.1147 37.7948 44.4404H42.6181V46.4999H37.4356C37.4398 46.4879 37.4432 46.4756 37.4471 46.4635ZM46.4999 46.4999H43.7431V31.346H46.4999V46.4999Z" fill="#F47629"></path><path d="M30.5558 44.7267C32.8506 44.7267 35.1736 43.9799 35.1736 42.5525C35.155 39.6622 25.9566 39.6622 25.938 42.5525C25.938 43.9799 28.261 44.7267 30.5558 44.7267ZM30.5558 41.5033C32.8247 41.5033 34.0486 42.248 34.0486 42.5525C34.0486 42.857 32.8247 43.6017 30.5558 43.6017C28.287 43.6017 27.063 42.857 27.063 42.5525C27.063 42.248 28.287 41.5033 30.5558 41.5033Z" fill="#F47629"></path><path d="M22.2344 40.7256C21.9237 40.7256 21.6719 40.9774 21.6719 41.2881V43.6467C21.6719 43.9574 21.9237 44.2092 22.2344 44.2092C22.545 44.2092 22.7969 43.9574 22.7969 43.6467V41.2881C22.7969 40.9774 22.545 40.7256 22.2344 40.7256Z" fill="#F47629"></path></g><defs><clipPath id="clip0_897_13777"><rect width="48" height="48" fill="white"></rect></clipPath></defs></svg>