<svg xmlns="http://www.w3.org/2000/svg" width="32" height="32" viewBox="0 0 32 32" fill="none"><g clip-path="url(#clip0_798_29957)"><path d="M28.8 0H3.2C2.35157 0.000847163 1.53813 0.338261 0.938194 0.938194C0.338261 1.53813 0.000847163 2.35157 0 3.2L0 28.8C0.000847163 29.6484 0.338261 30.4619 0.938194 31.0618C1.53813 31.6617 2.35157 31.9992 3.2 32H28.8C29.6484 31.9992 30.4619 31.6617 31.0618 31.0618C31.6617 30.4619 31.9992 29.6484 32 28.8V3.2C31.9992 2.35157 31.6617 1.53813 31.0618 0.938194C30.4619 0.338261 29.6484 0.000847163 28.8 0ZM30.9333 28.8C30.9333 29.3658 30.7086 29.9084 30.3085 30.3085C29.9084 30.7086 29.3658 30.9333 28.8 30.9333H3.2C2.6342 30.9333 2.09158 30.7086 1.69151 30.3085C1.29143 29.9084 1.06667 29.3658 1.06667 28.8V3.2C1.06667 2.6342 1.29143 2.09158 1.69151 1.69151C2.09158 1.29143 2.6342 1.06667 3.2 1.06667H28.8C29.3658 1.06667 29.9084 1.29143 30.3085 1.69151C30.7086 2.09158 30.9333 2.6342 30.9333 3.2V28.8Z" fill="#101840"></path><path d="M28.7995 2.1333H3.19948C2.91658 2.1333 2.64527 2.24568 2.44523 2.44572C2.24519 2.64576 2.13281 2.91707 2.13281 3.19997V18.1333C2.13281 18.4162 2.24519 18.6875 2.44523 18.8875C2.64527 19.0876 2.91658 19.2 3.19948 19.2H28.7995C29.0824 19.2 29.3537 19.0876 29.5537 18.8875C29.7538 18.6875 29.8661 18.4162 29.8661 18.1333V3.19997C29.8661 2.91707 29.7538 2.64576 29.5537 2.44572C29.3537 2.24568 29.0824 2.1333 28.7995 2.1333ZM14.808 18.1333L10.8843 12.0304C10.846 11.9708 10.8199 11.9044 10.8074 11.8347C10.7948 11.7651 10.7961 11.6937 10.8111 11.6245C10.8262 11.5554 10.8547 11.4899 10.8951 11.4318C10.9355 11.3737 10.9869 11.3241 11.0464 11.2858C11.1059 11.2476 11.1724 11.2215 11.2421 11.2089C11.3117 11.1964 11.3831 11.1976 11.4523 11.2127C11.5214 11.2278 11.5869 11.2563 11.645 11.2967C11.7031 11.337 11.7527 11.3884 11.7909 11.448L16.0896 18.1333H14.808ZM28.7995 18.1333H17.3573L12.6885 10.8714C12.4583 10.5132 12.0953 10.2611 11.6792 10.1706C11.2631 10.0801 10.8281 10.1586 10.4699 10.3888C10.1117 10.619 9.85956 10.9821 9.76905 11.3981C9.67853 11.8142 9.757 12.2492 9.98721 12.6074L13.5397 18.1333H3.19948V3.19997H28.7995V18.1333Z" fill="#101840"></path><path d="M5.86602 21.8667C5.23312 21.8667 4.61443 22.0544 4.08819 22.406C3.56196 22.7576 3.1518 23.2574 2.9096 23.8421C2.6674 24.4268 2.60403 25.0703 2.7275 25.691C2.85098 26.3117 3.15575 26.8819 3.60328 27.3294C4.0508 27.777 4.62099 28.0817 5.24173 28.2052C5.86247 28.3287 6.50588 28.2653 7.0906 28.0231C7.67533 27.7809 8.1751 27.3708 8.52672 26.8445C8.87834 26.3183 9.06602 25.6996 9.06602 25.0667C9.06517 24.2183 8.72776 23.4048 8.12782 22.8049C7.52789 22.205 6.71445 21.8675 5.86602 21.8667ZM5.86602 27.2C5.44408 27.2 5.03163 27.0749 4.6808 26.8405C4.32998 26.6061 4.05654 26.2729 3.89507 25.8831C3.73361 25.4933 3.69136 25.0643 3.77368 24.6505C3.85599 24.2367 4.05917 23.8566 4.35752 23.5582C4.65587 23.2599 5.036 23.0567 5.44982 22.9744C5.86365 22.892 6.29259 22.9343 6.68241 23.0958C7.07222 23.2572 7.40541 23.5307 7.63982 23.8815C7.87423 24.2323 7.99935 24.6448 7.99935 25.0667C7.99935 25.6325 7.77459 26.1751 7.37451 26.5752C6.97443 26.9753 6.43181 27.2 5.86602 27.2Z" fill="#101840"></path><path d="M26.1336 21.8667C25.5007 21.8667 24.882 22.0544 24.3558 22.406C23.8295 22.7576 23.4194 23.2574 23.1772 23.8421C22.935 24.4268 22.8716 25.0703 22.9951 25.691C23.1186 26.3117 23.4233 26.8819 23.8709 27.3294C24.3184 27.777 24.8886 28.0817 25.5093 28.2052C26.13 28.3287 26.7735 28.2653 27.3582 28.0231C27.9429 27.7809 28.4427 27.3708 28.7943 26.8445C29.1459 26.3183 29.3336 25.6996 29.3336 25.0667C29.3327 24.2183 28.9953 23.4048 28.3954 22.8049C27.7955 22.205 26.982 21.8675 26.1336 21.8667ZM26.1336 27.2C25.7117 27.2 25.2992 27.0749 24.9484 26.8405C24.5976 26.6061 24.3241 26.2729 24.1627 25.8831C24.0012 25.4933 23.9589 25.0643 24.0413 24.6505C24.1236 24.2367 24.3267 23.8566 24.6251 23.5582C24.9235 23.2599 25.3036 23.0567 25.7174 22.9744C26.1312 22.892 26.5602 22.9343 26.95 23.0958C27.3398 23.2572 27.673 23.5307 27.9074 23.8815C28.1418 24.2323 28.2669 24.6448 28.2669 25.0667C28.2669 25.6325 28.0422 26.1751 27.6421 26.5752C27.242 26.9753 26.6994 27.2 26.1336 27.2Z" fill="#101840"></path><path d="M5.04759 10.0722C8.43374 8.33103 12.1916 7.43704 15.9991 7.46683C19.8065 7.4371 23.5644 8.33109 26.9505 10.0722C27.0757 10.1381 27.2219 10.1516 27.3571 10.1097C27.4922 10.0677 27.6051 9.97388 27.6711 9.8487C27.737 9.72351 27.7505 9.57727 27.7086 9.44215C27.6666 9.30702 27.5728 9.19408 27.4476 9.12816C27.0184 8.90203 26.58 8.68959 26.1324 8.49083V7.46683C26.1324 7.32538 26.0762 7.18973 25.9762 7.08971C25.8762 6.98969 25.7405 6.9335 25.5991 6.9335C25.4576 6.9335 25.322 6.98969 25.2219 7.08971C25.1219 7.18973 25.0657 7.32538 25.0657 7.46683V8.0535C24.3724 7.78683 23.6588 7.55216 22.9324 7.3479V6.40016C22.9324 6.25871 22.8762 6.12306 22.7762 6.02304C22.6762 5.92302 22.5405 5.86683 22.3991 5.86683C22.2576 5.86683 22.122 5.92302 22.0219 6.02304C21.9219 6.12306 21.8657 6.25871 21.8657 6.40016V7.06843C21.166 6.90843 20.4529 6.77936 19.7324 6.6759V6.00016C19.7324 5.85871 19.6762 5.72306 19.5762 5.62304C19.4762 5.52302 19.3405 5.46683 19.1991 5.46683C19.0576 5.46683 18.922 5.52302 18.8219 5.62304C18.7219 5.72306 18.6657 5.85871 18.6657 6.00016V6.54256C17.9614 6.47145 17.2503 6.42914 16.5324 6.41563V5.86683C16.5324 5.72538 16.4762 5.58973 16.3762 5.48971C16.2762 5.38969 16.1405 5.3335 15.9991 5.3335C15.8576 5.3335 15.722 5.38969 15.6219 5.48971C15.5219 5.58973 15.4657 5.72538 15.4657 5.86683V6.41563C14.7489 6.42985 14.0378 6.47216 13.3324 6.54256V6.00016C13.3324 5.85871 13.2762 5.72306 13.1762 5.62304C13.0762 5.52302 12.9405 5.46683 12.7991 5.46683C12.6576 5.46683 12.522 5.52302 12.4219 5.62304C12.3219 5.72306 12.2657 5.85871 12.2657 6.00016V6.6759C11.5452 6.77936 10.8321 6.90576 10.1324 7.06843V6.40016C10.1324 6.25871 10.0762 6.12306 9.97618 6.02304C9.87616 5.92302 9.74051 5.86683 9.59906 5.86683C9.45761 5.86683 9.32196 5.92302 9.22194 6.02304C9.12192 6.12306 9.06573 6.25871 9.06573 6.40016V7.34896C8.33933 7.55323 7.62573 7.7863 6.93239 8.05456V7.46683C6.93239 7.32538 6.8762 7.18973 6.77618 7.08971C6.67616 6.98969 6.54051 6.9335 6.39906 6.9335C6.25761 6.9335 6.12196 6.98969 6.02194 7.08971C5.92192 7.18973 5.86573 7.32538 5.86573 7.46683V8.49083C5.41879 8.68959 4.98039 8.90203 4.55053 9.12816C4.42534 9.19408 4.33147 9.30702 4.28957 9.44215C4.26882 9.50906 4.26145 9.5794 4.26788 9.64915C4.27431 9.71891 4.29442 9.78671 4.32706 9.8487C4.3597 9.91068 4.40422 9.96563 4.4581 10.0104C4.51197 10.0552 4.57414 10.0889 4.64105 10.1097C4.77617 10.1516 4.92241 10.1381 5.04759 10.0722Z" fill="#101840"></path><path d="M17.0659 24.5332H14.7849L16.4622 21.5998C16.4989 21.539 16.5231 21.4714 16.5333 21.401C16.5435 21.3306 16.5396 21.2589 16.5217 21.1901C16.5038 21.1213 16.4723 21.0568 16.4291 21.0003C16.3859 20.9438 16.3319 20.8966 16.2701 20.8613C16.2084 20.826 16.1402 20.8034 16.0697 20.7949C15.9991 20.7863 15.9275 20.792 15.8591 20.8115C15.7908 20.831 15.727 20.864 15.6715 20.9085C15.6161 20.9531 15.5701 21.0082 15.5363 21.0708L13.403 24.8041C13.3572 24.8851 13.3334 24.9768 13.334 25.0698C13.3346 25.1629 13.3595 25.2542 13.4063 25.3347C13.4531 25.4152 13.5202 25.482 13.6008 25.5285C13.6814 25.575 13.7728 25.5996 13.8659 25.5998H16.147L14.4697 28.5332C14.3995 28.656 14.3811 28.8016 14.4183 28.938C14.4555 29.0744 14.5453 29.1905 14.6681 29.2606C14.7483 29.3077 14.8396 29.3328 14.9326 29.3332C15.0265 29.3335 15.1188 29.3089 15.2002 29.2621C15.2815 29.2153 15.3491 29.1478 15.3961 29.0665L17.5294 25.3332C17.5763 25.252 17.6009 25.1599 17.6009 25.0661C17.6008 24.9724 17.576 24.8803 17.529 24.7992C17.482 24.718 17.4145 24.6507 17.3332 24.604C17.2519 24.5573 17.1597 24.5329 17.0659 24.5332Z" fill="#101840"></path></g><defs><clipPath id="clip0_798_29957"><rect width="32" height="32" fill="white"></rect></clipPath></defs></svg>