<svg xmlns="http://www.w3.org/2000/svg" width="48" height="48" viewBox="0 0 48 48" fill="none"><path d="M40.2351 1.41211H7.76448C7.34095 1.41211 7.05859 1.69446 7.05859 2.11799C7.05859 2.54152 7.34095 2.82387 7.76448 2.82387H23.2939V15.1062C19.7645 15.4592 16.9409 18.4239 16.9409 22.0239V22.8003C11.4351 24.2827 8.32918 28.3768 8.18801 34.5886C8.18801 35.0121 8.47036 35.2945 8.89389 35.2945H19.0586V35.7886C19.0586 38.6827 21.4586 41.0827 24.3527 41.0827C27.2468 41.0827 29.6468 38.6827 29.6468 35.7886V35.2945H39.1057C39.5292 35.2945 39.8115 34.9415 39.8115 34.5886C39.5292 27.8121 36.5645 23.8592 31.0586 22.7298V22.2356C31.0586 18.5651 28.2351 15.4592 24.7057 15.1062V2.82387H40.2351C40.6586 2.82387 40.9409 2.54152 40.9409 2.11799C40.9409 1.69446 40.6586 1.41211 40.2351 1.41211ZM28.2351 35.7886C28.2351 37.9062 26.4704 39.6709 24.3527 39.6709C22.2351 39.6709 20.4704 37.9062 20.4704 35.7886V35.2945H28.2351V35.7886ZM30.1409 24.0003C35.2233 24.7768 37.9057 27.9533 38.3998 33.8827H9.59977C9.81154 30.4945 11.3645 25.4121 17.9292 24.0003H30.1409ZM29.6468 22.2356V22.5886H18.3527V22.0239C18.3527 18.9886 20.8939 16.518 23.9998 16.518C27.0351 16.518 29.6468 19.2003 29.6468 22.2356Z" fill="#F47629"></path><path d="M23.9998 43.7646C23.5763 43.7646 23.2939 44.047 23.2939 44.4705V45.8823C23.2939 46.3058 23.5763 46.5882 23.9998 46.5882C24.4234 46.5882 24.7057 46.3058 24.7057 45.8823V44.4705C24.7057 44.047 24.4234 43.7646 23.9998 43.7646Z" fill="#F47629"></path><path d="M16.8 40.9413L15.4588 42.2824C15.1765 42.5648 15.1765 42.9883 15.4588 43.2707C15.7412 43.553 16.1647 43.553 16.4471 43.2707L17.7882 41.9295C18.0706 41.6471 18.0706 41.2236 17.7882 40.9413C17.5059 40.6589 17.0824 40.6589 16.8 40.9413Z" fill="#F47629"></path><path d="M31.2 40.9413C30.9176 40.6589 30.4941 40.6589 30.2118 40.9413C29.9294 41.2236 29.9294 41.6471 30.2118 41.9295L31.5529 43.2707C31.8353 43.553 32.2588 43.553 32.5412 43.2707C32.8235 42.9883 32.8235 42.5648 32.5412 42.2824L31.2 40.9413Z" fill="#F47629"></path></svg>