<svg xmlns="http://www.w3.org/2000/svg" width="48" height="48" viewBox="0 0 48 48" fill="none"><g clip-path="url(#clip0_897_10234)"><path d="M18.843 9.19767C19.239 9.19767 19.56 8.87666 19.56 8.48067C19.56 8.08468 19.239 7.76367 18.843 7.76367C18.447 7.76367 18.126 8.08468 18.126 8.48067C18.126 8.87666 18.447 9.19767 18.843 9.19767Z" fill="#F47629"></path><path d="M45.9386 8.63927H44.1416V6.84349C44.1416 5.71391 43.2226 4.79492 42.0931 4.79492H23.1824C22.0528 4.79492 21.1338 5.71391 21.1338 6.84349V11.4594C21.1338 12.4326 21.8166 13.2479 22.7279 13.4555V15.5856H12.1964V9.0073L16.2378 8.99982C16.5207 8.99931 16.7496 8.76956 16.749 8.48676C16.7485 8.20416 16.5194 7.97553 16.2369 7.97553C16.2366 7.97553 16.2363 7.97553 16.236 7.97553L0.526294 7.98404C0.244001 7.98404 0.0149701 8.21245 0.0141507 8.49475L0.00892683 20.5127C0.0081074 20.7956 0.236831 21.0255 0.519636 21.0263H0.52107C0.803261 21.0263 1.03239 20.798 1.03321 20.5156L1.04397 16.6099H6.60072V23.1872H0.533259C0.250966 23.1872 0.0219353 23.4156 0.0211158 23.6979L0.000117969 38.901C-0.00613018 39.1765 0.236728 39.42 0.512261 39.4146H25.6168C25.8997 39.4146 26.1289 39.1853 26.1289 38.9024C26.1289 38.6195 25.8997 38.3903 25.6168 38.3903H19.7646V31.813H29.7944V38.9024C29.7944 39.1853 30.0236 39.4146 30.3065 39.4146H42.5882C42.8711 39.4146 43.1003 39.1853 43.1003 38.9024V19.8586H45.9386C47.0753 19.8586 48 18.9404 48 17.812V10.686C48 9.55744 47.0753 8.63927 45.9386 8.63927ZM22.1581 11.4594V6.84349C22.1581 6.2787 22.6176 5.81921 23.1824 5.81921H42.0931C42.6579 5.81921 43.1173 6.2787 43.1173 6.84349V11.4594C43.1173 12.0242 42.6579 12.4837 42.0931 12.4837H23.1824C22.6177 12.4837 22.1581 12.0242 22.1581 11.4594ZM42.0761 24.2115V30.7887H40.4907L39.8909 27.4228C39.7019 26.3614 39.7568 25.2515 40.0487 24.2115H42.0761ZM39.095 23.7182C38.7884 24.9832 38.6276 26.3107 38.8825 27.6024L39.817 32.8467C40.1206 34.3796 38.7704 35.8092 37.2282 35.7748C35.6864 35.8093 34.3356 34.3793 34.6395 32.8467L35.574 27.6024C35.7911 26.3831 35.7271 25.1078 35.3888 23.9147C35.2523 23.3994 35.6723 22.9673 36.162 22.9712H38.2944C38.7234 22.9827 39.0716 23.2526 39.095 23.7182ZM36.7161 20.8808V21.9469H36.162C35.5753 21.9469 35.0396 22.2107 34.692 22.6705C34.5715 22.8298 34.4813 23.0044 34.4217 23.1871H31.5946V19.4965C32.1945 19.1349 32.5745 18.4626 32.5685 17.7626L32.5675 15.627C32.5671 14.7668 33.0157 13.9667 33.7453 13.5079H42.0761V15.5855H35.1285C34.8456 15.5855 34.6164 15.8147 34.6164 16.0976C34.6164 16.3805 34.8456 16.6098 35.1285 16.6098H42.0761V18.8342H38.7775C37.6409 18.8343 36.7161 19.7524 36.7161 20.8808ZM27.6487 15.7097C26.6363 15.7097 25.8126 16.5276 25.8126 17.5331V19.2981C25.8126 19.8579 25.3506 20.3132 24.782 20.3132C24.2141 20.3132 23.7521 19.8579 23.7521 19.2981V13.508H32.2563C31.8017 14.1106 31.5428 14.8515 31.5432 15.6275L31.5442 17.7631C31.4916 19.1113 29.5365 19.1069 29.4846 17.7636V17.5331C29.4847 16.5276 28.6611 15.7097 27.6487 15.7097ZM24.7827 21.3375C25.9155 21.3375 26.8369 20.4226 26.8369 19.2981V17.5331C26.8369 17.0925 27.2011 16.734 27.6487 16.734C28.0963 16.734 28.4604 17.0925 28.4604 17.5331V17.7636C28.4604 18.8882 29.3819 19.8031 30.5146 19.8031C30.5335 19.8031 30.5518 19.8009 30.5706 19.8004V23.1872H19.2907V16.6099H22.7279V19.2981C22.7279 20.4227 23.6494 21.3375 24.7827 21.3375ZM1.01877 15.5856L1.037 9.00832L11.1721 9.00822V15.5856H1.01877ZM7.62511 16.6099H18.2665V23.1872H14.4259C14.143 23.1872 13.9137 23.4164 13.9137 23.6994C13.9137 23.9823 14.143 24.2115 14.4259 24.2115H23.1753V30.7887H11.2963V23.6994C11.2963 23.4164 11.067 23.1872 10.7841 23.1872H7.62511V16.6099ZM1.04407 24.2115H10.2721V30.7887H1.02584L1.04407 24.2115ZM18.7404 38.3903H8.88211V35.1017C8.88211 34.8188 8.65288 34.5896 8.36997 34.5896C8.08706 34.5896 7.85783 34.8188 7.85783 35.1017V38.3903H1.02584L1.04407 31.813H18.7404V38.3903ZM24.1995 24.2115H34.4077C34.6998 25.2512 34.7546 26.3612 34.5655 27.4228L33.9658 30.7887H24.1995V24.2115ZM42.0761 38.3903H30.8186V31.813H33.7832L33.631 32.6672C33.2176 34.8192 35.0532 36.8407 37.2282 36.7991C39.4028 36.8408 41.2392 34.819 40.8254 32.6672L40.6732 31.813H42.0761V38.3903ZM42.0761 23.1872H40.0347C39.975 23.0046 39.8849 22.8299 39.7643 22.6706C39.4167 22.2108 38.881 21.947 38.2943 21.947H37.7403V20.8809C37.7403 20.3173 38.2056 19.8587 38.7774 19.8587H42.076V23.1872H42.0761ZM46.9757 17.812C46.9757 18.3757 46.5105 18.8343 45.9386 18.8343H43.1003V13.2412C43.7212 12.8888 44.1416 12.2228 44.1416 11.4594V9.66356H45.9386C46.5105 9.66356 46.9757 10.1222 46.9757 10.6859V17.812Z" fill="#F47629"></path><path d="M37.2283 31.4316C36.3804 31.4316 35.6904 32.1097 35.6904 32.9432C35.6904 33.7766 36.3803 34.4547 37.2283 34.4547C38.0763 34.4547 38.7662 33.7766 38.7662 32.9432C38.7662 32.1097 38.0763 31.4316 37.2283 31.4316ZM37.2283 33.4304C36.9451 33.4304 36.7147 33.2119 36.7147 32.9432C36.7147 32.6745 36.9451 32.4559 37.2283 32.4559C37.5115 32.4559 37.7419 32.6745 37.7419 32.9432C37.7419 33.2119 37.5115 33.4304 37.2283 33.4304Z" fill="#F47629"></path><path d="M6.25485 3.70599C7.27145 3.70599 8.09856 2.87887 8.09856 1.86227C8.09856 0.845666 7.27145 0.0185547 6.25485 0.0185547C5.23824 0.0185547 4.41113 0.845666 4.41113 1.86227C4.41113 2.87887 5.23824 3.70599 6.25485 3.70599ZM6.25485 1.04284C6.70666 1.04284 7.07428 1.41046 7.07428 1.86227C7.07428 2.31408 6.70666 2.6817 6.25485 2.6817C5.80304 2.6817 5.43542 2.31408 5.43542 1.86227C5.43542 1.41046 5.80293 1.04284 6.25485 1.04284Z" fill="#F47629"></path><path d="M32.8892 45.6255H32.0697V44.8061C32.0697 44.5232 31.8405 44.2939 31.5576 44.2939C31.2747 44.2939 31.0454 44.5232 31.0454 44.8061V45.6255H30.226C29.9431 45.6255 29.7139 45.8548 29.7139 46.1377C29.7139 46.4206 29.9431 46.6498 30.226 46.6498H31.0454V47.4692C31.0454 47.7521 31.2747 47.9814 31.5576 47.9814C31.8405 47.9814 32.0697 47.7521 32.0697 47.4692V46.6498H32.8892C33.1721 46.6498 33.4013 46.4206 33.4013 46.1377C33.4013 45.8548 33.1721 45.6255 32.8892 45.6255Z" fill="#F47629"></path></g><defs><clipPath id="clip0_897_10234"><rect width="48" height="48" fill="white"></rect></clipPath></defs></svg>