<svg xmlns="http://www.w3.org/2000/svg" width="36" height="41" viewBox="0 0 36 41" fill="none"><path d="M12.5166 16.606C12.6296 16.7153 12.7753 16.7696 12.9208 16.7696C13.0728 16.7696 13.2246 16.7104 13.3386 16.5925C13.5619 16.3618 13.5559 15.9938 13.3252 15.7706C12.6247 15.0928 11.485 15.0928 10.7845 15.7706C10.5538 15.9938 10.5477 16.3618 10.7711 16.5925C10.9942 16.8233 11.3622 16.8293 11.5931 16.606C11.8476 16.3596 12.2619 16.3596 12.5166 16.606Z" fill="#101111"></path><path d="M19.0685 16.6051C19.3214 16.3591 19.7343 16.3595 19.9889 16.606C20.1019 16.7152 20.2476 16.7696 20.3932 16.7696C20.5451 16.7696 20.697 16.7104 20.811 16.5925C21.0342 16.3618 21.0282 15.9937 20.7975 15.7705C20.0959 15.0916 18.9567 15.0923 18.2581 15.7715C18.0279 15.9953 18.0228 16.3634 18.2466 16.5935C18.4703 16.8237 18.8382 16.8289 19.0685 16.6051Z" fill="#101111"></path><path d="M15.7928 21.0489H15.7948C16.4234 21.0484 17.0139 20.803 17.4575 20.3579C17.6842 20.1306 17.6835 19.7625 17.4562 19.5358C17.2289 19.3092 16.8607 19.3097 16.6341 19.5372C16.41 19.762 16.1116 19.886 15.7939 19.8862C15.7935 19.8862 15.7932 19.8862 15.7929 19.8862C15.4745 19.8862 15.175 19.7621 14.9495 19.5365C14.7225 19.3095 14.3544 19.3094 14.1274 19.5365C13.9003 19.7635 13.9003 20.1315 14.1273 20.3586C14.5725 20.8038 15.1639 21.0489 15.7928 21.0489Z" fill="#101111"></path><path d="M34.9047 13.7374H30.3285C29.7513 13.7374 29.2819 14.2069 29.2819 14.7839V19.4755C29.2819 20.4373 29.6088 20.9384 29.8971 21.3805C30.1838 21.8201 30.4315 22.1998 30.4315 23.1769V28.0473C29.902 28.0515 29.4724 28.4841 29.4724 29.0159V29.2022C27.497 27.2991 24.4103 26.032 21.6629 25.2205C21.6571 25.2186 21.6517 25.2162 21.6458 25.2144C21.6363 25.2115 21.6268 25.2097 21.6173 25.2073C21.1688 25.0755 20.7293 24.9554 20.3058 24.847C20.2753 24.8391 20.2524 24.8318 20.2354 24.8256L20.2393 22.7662C21.6967 21.5945 22.8475 19.9936 23.3652 18.3859C25.2249 18.1708 26.0975 16.6844 26.117 15.3006C26.1317 14.2586 25.7097 13.3691 25.0394 12.8648C25.1737 12.642 25.2524 12.3821 25.2524 12.1035V11.0669C25.2524 10.3117 24.6839 9.68805 23.9526 9.59844C23.7078 6.08992 21.2209 3.10586 17.8017 2.23664C17.6591 1.25594 16.812 0.5 15.7912 0.5C14.7703 0.5 13.9232 1.25594 13.7805 2.23672C10.3613 3.10594 7.87439 6.09 7.62955 9.59852C6.8983 9.68812 6.32971 10.3119 6.32971 11.067V12.1036C6.32971 12.3823 6.40853 12.6423 6.54299 12.8652C5.87307 13.3697 5.45135 14.2592 5.46611 15.3013C5.48564 16.6853 6.35877 18.172 8.21932 18.3862C8.73721 19.9948 9.88877 21.5966 11.3468 22.7686V24.826C11.3303 24.832 11.308 24.839 11.2788 24.8466C10.8328 24.9609 10.3984 25.0805 9.97494 25.2048C9.96197 25.2078 9.94908 25.2106 9.93619 25.2145C9.92783 25.2171 9.91994 25.2205 9.91181 25.2233C8.47947 25.6465 7.17994 26.1258 6.03619 26.654C5.74478 26.7886 5.61752 27.134 5.75213 27.4255C5.85033 27.638 6.06057 27.7633 6.28033 27.7633C6.36182 27.7633 6.44471 27.746 6.52369 27.7096C7.47674 27.2695 8.54658 26.8641 9.71861 26.4974L10.6722 29.6347C10.6805 29.6619 10.6906 29.6884 10.7028 29.7141C10.9056 30.143 11.2199 30.4391 11.612 30.5702C11.7592 30.6195 11.913 30.6439 12.0708 30.6439C12.3535 30.6439 12.6493 30.5653 12.9453 30.4098L15.21 29.2188V38.5045H12.9128V33.9955C12.9128 33.4955 12.5059 33.0886 12.0058 33.0886H8.77846C8.27963 33.0886 7.87377 33.4955 7.87377 33.9955V38.5045H5.57635V35.2825C5.57635 34.9615 5.31611 34.7012 4.99502 34.7012C4.67393 34.7012 4.41369 34.9614 4.41369 35.2825V38.5045H1.45103C1.3365 38.5045 1.26135 38.4988 1.21346 38.4926C1.21103 38.4498 1.21049 38.3858 1.21619 38.2924C1.21689 38.2808 1.21728 38.2691 1.21728 38.2573V33.6123C1.21728 31.9063 2.2208 30.3559 4.19994 29.0042C4.4651 28.8231 4.53322 28.4614 4.35213 28.1963C4.17103 27.9313 3.80916 27.863 3.54424 28.0441C1.22861 29.6256 0.0545506 31.4991 0.0545506 33.6123V38.2402C0.03416 38.601 0.0550194 39.0076 0.341113 39.3115C0.636035 39.6248 1.06768 39.667 1.45103 39.667H30.4885C31.0488 40.1837 31.7964 40.4999 32.6166 40.4999C34.3503 40.4999 35.7607 39.0884 35.7607 37.3535V29.0159C35.7607 28.4849 35.3324 28.0528 34.8038 28.0474V23.1769C34.8038 22.1995 35.051 21.8198 35.3373 21.38C35.6251 20.938 35.9512 20.4369 35.9512 19.4754V14.7838C35.9512 14.2069 35.4817 13.7374 34.9047 13.7374ZM34.7885 14.9001V16.2471H30.4446V14.9001H34.7885ZM34.5981 33.8927H30.6351V32.1336H34.5981V33.8927ZM30.6351 30.9709V29.2096H34.5981V30.9709H30.6351ZM34.3629 20.7458C34.0413 21.2397 33.6412 21.8545 33.6412 23.177V28.047H31.5942V23.177C31.5942 21.8542 31.1932 21.2394 30.871 20.7454C30.6235 20.3659 30.4445 20.0916 30.4445 19.4755V17.4098H34.7885V19.4755C34.7885 20.0919 34.61 20.3662 34.3629 20.7458ZM19.7766 25.8925C19.8492 25.9228 19.9278 25.9502 20.0152 25.973C20.2549 26.0343 20.5002 26.0997 20.749 26.1685L19.814 29.2509C19.7606 29.3526 19.6815 29.4589 19.5605 29.4773C19.4305 29.4972 19.2928 29.4399 19.1804 29.3807L16.86 28.1612L19.7766 25.8925ZM23.6347 17.1483C23.6541 16.967 23.6643 16.787 23.6643 16.6091V13.5843H23.7567C24.5499 13.6154 24.966 14.4823 24.9545 15.2843C24.9442 16.0214 24.5795 16.8615 23.6347 17.1483ZM15.7912 1.66266C16.2706 1.66266 16.6606 2.05172 16.6606 2.53V2.70805V2.71273V6.26688C16.6606 6.74633 16.2706 7.13641 15.7912 7.13641C15.3117 7.13641 14.9217 6.74633 14.9217 6.26688V2.71273C14.9217 2.71117 14.9217 2.70961 14.9217 2.70805V2.53C14.9216 2.05172 15.3117 1.66266 15.7912 1.66266ZM13.759 3.44914V6.26688C13.759 7.38742 14.6706 8.29906 15.7912 8.29906C16.9117 8.29906 17.8233 7.38742 17.8233 6.26688V3.44914C20.5681 4.28172 22.5488 6.72258 22.787 9.58633H8.79533C9.03346 6.72266 11.0142 4.2818 13.759 3.44914ZM6.62853 15.285C6.61721 14.4827 7.03283 13.6154 7.82549 13.5843H7.92017V16.6091C7.92017 16.7873 7.93049 16.9673 7.94986 17.1488C7.004 16.8627 6.639 16.0223 6.62853 15.285ZM9.23494 17.7288C9.23049 17.7038 9.22447 17.6794 9.21689 17.6555C9.13033 17.3002 9.08275 16.949 9.08275 16.6091V13.5843H14.7035C15.0245 13.5843 15.2848 13.3241 15.2848 13.003C15.2848 12.6819 15.0245 12.4216 14.7035 12.4216H7.81025C7.63791 12.4216 7.49228 12.276 7.49228 12.1036V11.067C7.49228 10.8916 7.63494 10.7489 7.81025 10.7489H23.7719C23.9472 10.7489 24.0899 10.8916 24.0899 11.067V12.1036C24.0899 12.276 23.9442 12.4216 23.7719 12.4216H17.4104C17.0893 12.4216 16.8291 12.6819 16.8291 13.003C16.8291 13.3241 17.0893 13.5843 17.4104 13.5843H22.5017V16.6091C22.5017 16.9428 22.4559 17.2876 22.3723 17.6363C22.3592 17.6729 22.3498 17.711 22.3442 17.7505C21.7727 19.9208 19.7136 22.2254 17.4135 23.0773C16.8069 23.3033 16.2914 23.4085 15.7912 23.4085C15.2909 23.4085 14.7754 23.3033 14.1681 23.077C11.8621 22.2223 9.7983 19.9052 9.23494 17.7288ZM13.7631 24.167C14.5035 24.4428 15.1479 24.5712 15.7912 24.5712C16.4343 24.5712 17.0788 24.4428 17.8183 24.1673C18.2483 24.008 18.6688 23.8054 19.0753 23.5689L19.0728 24.8383C19.0728 24.8786 19.075 24.9202 19.0787 24.9625L15.7912 27.5198L12.5036 24.9625C12.5073 24.9203 12.5095 24.8786 12.5095 24.8384V23.5701C12.9149 23.8058 13.3342 24.008 13.7631 24.167ZM12.4042 29.3807C12.2916 29.4399 12.1535 29.4974 12.0234 29.4775C11.9025 29.459 11.8237 29.3524 11.7705 29.2509L10.8337 26.1687C11.075 26.1018 11.32 26.0363 11.5688 25.9726C11.6558 25.9501 11.734 25.9229 11.8063 25.8929L14.7226 28.1614L12.4042 29.3807ZM16.3725 29.2184L18.6388 30.4096C18.9342 30.5653 19.2299 30.6441 19.5127 30.6441C19.6703 30.6441 19.824 30.6196 19.9713 30.5705C20.3642 30.4394 20.6792 30.1433 20.8819 29.7141C20.8941 29.6884 20.9044 29.6617 20.9126 29.6345L21.8645 26.4966C24.7812 27.4067 27.9491 28.8325 29.4725 30.9642V37.3537C29.4725 37.7598 29.5506 38.1478 29.6913 38.5045H27.1709V35.2825C27.1709 34.9615 26.9106 34.7012 26.5895 34.7012C26.2685 34.7012 26.0082 34.9614 26.0082 35.2825V38.5045H23.711V33.9955C23.711 33.4955 23.3041 33.0886 22.804 33.0886H19.5767C19.0767 33.0886 18.6698 33.4955 18.6698 33.9955V38.5045H16.3725V29.2184ZM19.8324 38.5045V34.2512H22.5483V38.5045H19.8324ZM9.03627 34.2512H11.7499V38.5045H9.03627V34.2512ZM32.6166 39.3373C32.0459 39.3373 31.531 39.0942 31.1692 38.7064C31.1594 38.6951 31.1495 38.6839 31.1388 38.6734C30.8259 38.3224 30.6351 37.86 30.6351 37.3537V35.0553H34.5981V37.3537C34.5981 38.4474 33.7092 39.3373 32.6166 39.3373Z" fill="#101111"></path></svg>