<svg xmlns="http://www.w3.org/2000/svg" width="40" height="41" viewBox="0 0 40 41" fill="none"><g clip-path="url(#clip0_798_29856)"><path d="M30.5215 15.4213C30.5215 9.65589 25.831 4.96533 20.0656 4.96533C14.2999 4.96533 9.60938 9.65589 9.60938 15.4213C9.60938 21.187 14.2999 25.8775 20.0656 25.8775C25.831 25.8775 30.5215 21.187 30.5215 15.4213ZM20.0656 24.7056C14.9463 24.7056 10.7813 20.5406 10.7813 15.4213C10.7813 10.3022 14.9463 6.13721 20.0656 6.13721C25.1849 6.13721 29.3497 10.3022 29.3497 15.4213C29.3497 20.5406 25.1849 24.7056 20.0656 24.7056Z" fill="#101111"></path><path d="M27.3483 13.1289C27.2378 12.7883 26.9232 12.5598 26.5652 12.5598H22.1988L20.8496 8.40723C20.7388 8.06696 20.4242 7.83838 20.0665 7.83838C19.7088 7.83838 19.3942 8.06696 19.2834 8.40723L17.9342 12.5601H13.5678C13.2098 12.5601 12.8952 12.7886 12.7847 13.1289C12.6742 13.4692 12.7945 13.8391 13.0838 14.0493L16.6162 16.6158L15.267 20.7684C15.1565 21.1086 15.2765 21.4788 15.5661 21.6891C15.8554 21.8994 16.2445 21.8994 16.5341 21.6891L20.0665 19.1226L23.5989 21.6891C23.7439 21.7944 23.9132 21.8469 24.0829 21.8469C24.2526 21.8469 24.4223 21.7944 24.5669 21.6891C24.8565 21.4788 24.9765 21.1086 24.866 20.7684L23.5165 16.6158L27.0489 14.0493C27.3385 13.8391 27.4588 13.4692 27.3483 13.1289ZM22.623 15.8166C22.3337 16.0269 22.2134 16.3967 22.3239 16.7373L23.4198 20.1104L20.5505 18.0258C20.4056 17.9205 20.2362 17.868 20.0665 17.868C19.8968 17.868 19.7271 17.9205 19.5825 18.0258L16.7132 20.1104L17.8091 16.737C17.9196 16.3967 17.7994 16.0269 17.51 15.8166L14.6405 13.7316H18.1875C18.5452 13.7316 18.8598 13.5031 18.9706 13.1628L20.0665 9.78937L21.1624 13.1628C21.2732 13.5031 21.5878 13.7316 21.9455 13.7316H25.4925L22.623 15.8166Z" fill="#101111"></path><path d="M35.6361 34.8056L30.142 25.1602L31.1045 24.8514C32.2642 24.4797 33.0296 23.3707 32.9661 22.1546L32.8932 20.7578C32.8709 20.3351 33.0284 19.9195 33.3253 19.6176L34.3064 18.6206C35.1603 17.7524 35.3227 16.4148 34.7013 15.3675L33.9875 14.1648C33.7715 13.8007 33.7181 13.3594 33.8404 12.9541L34.2457 11.6153C34.5985 10.4499 34.1206 9.19009 33.0839 8.55166L31.8928 7.81802C31.5324 7.59615 31.2797 7.23055 31.2001 6.8146L30.9367 5.441C30.7075 4.24502 29.6989 3.35146 28.484 3.26784L27.0884 3.17202C26.6661 3.14303 26.2727 2.93642 26.009 2.60531L25.1371 1.51125C24.3785 0.559102 23.0699 0.236837 21.9557 0.727254L20.6755 1.29091C20.6755 1.29091 20.6755 1.29091 20.6751 1.29091C20.2879 1.46151 19.8435 1.46151 19.456 1.29091L18.1758 0.727254C17.0613 0.236837 15.753 0.559102 14.994 1.51156L14.1224 2.60531C13.8587 2.93642 13.4654 3.14303 13.043 3.17202L11.6474 3.26784C10.4325 3.35146 9.42393 4.24502 9.19474 5.441L8.93137 6.8146C8.85142 7.23025 8.59904 7.59615 8.23862 7.81802L7.04752 8.55135C6.01084 9.18978 5.53293 10.4499 5.88572 11.6153L6.29069 12.9541C6.41337 13.3594 6.35996 13.8004 6.1439 14.1645L5.43009 15.3675C4.80875 16.4145 4.97111 17.7524 5.82499 18.6203L6.80613 19.6176C7.10276 19.9195 7.26054 20.3348 7.23826 20.7575L7.16532 22.1546C7.10184 23.3704 7.86722 24.4794 9.02659 24.8514L9.98942 25.1599L4.49534 34.8056C4.32932 35.0971 4.33542 35.4554 4.51151 35.741C4.6876 36.0266 5.00651 36.1939 5.34006 36.1756L9.93204 35.9378L12.0698 40.0092C12.2257 40.3058 12.5309 40.4941 12.8663 40.4996C12.8715 40.4996 12.8767 40.4999 12.8819 40.4999C13.2112 40.4999 13.5157 40.3235 13.679 40.0367L19.2701 30.2204C19.5289 30.3006 19.7972 30.3424 20.0657 30.3424C20.3343 30.3424 20.6022 30.3006 20.8613 30.2204L26.4524 40.0367C26.6157 40.3235 26.92 40.4999 27.2492 40.4999C27.2544 40.4999 27.2599 40.4999 27.2651 40.4996C27.6005 40.4941 27.9057 40.3061 28.0616 40.0092L30.1991 35.9378L34.7914 36.1756C35.1277 36.1933 35.4438 36.0263 35.6196 35.741C35.7957 35.4554 35.8021 35.0971 35.6361 34.8056ZM12.891 39.0525L10.944 35.3446L12.0936 33.3268C12.2538 33.0454 12.1559 32.6877 11.8745 32.5275C11.5937 32.3676 11.2358 32.4655 11.0755 32.7466L9.92594 34.7647L5.74381 34.9814L11.024 25.7117C11.1235 25.8231 11.2077 25.9491 11.2712 26.0871L11.8559 27.3581C12.1592 28.0176 12.7061 28.5065 13.3521 28.7491L12.4366 30.3568C12.2764 30.6378 12.3747 30.9958 12.6557 31.156C12.7473 31.2079 12.8471 31.2326 12.9454 31.2326C13.1489 31.2326 13.347 31.1264 13.455 30.9366L14.6144 28.9014C14.662 28.8956 14.7096 28.8892 14.7572 28.8806L16.1354 28.6399C16.5519 28.5669 16.9834 28.6734 17.3188 28.9316L18.2481 29.6472L12.891 39.0525ZM20.8274 28.964C20.8253 28.9652 20.8235 28.9658 20.8216 28.967C20.8186 28.9688 20.8155 28.971 20.8125 28.9728C20.3501 29.2356 19.7813 29.2356 19.3189 28.9728C19.3159 28.971 19.3132 28.9688 19.3098 28.967C19.308 28.9658 19.3061 28.9652 19.3043 28.964C19.2488 28.9316 19.1944 28.8968 19.1426 28.8568L18.0342 28.0033C17.5621 27.6395 16.9825 27.4454 16.3935 27.4454C16.2403 27.4454 16.0865 27.4588 15.9336 27.4854L14.5555 27.7262C14.4667 27.7417 14.3778 27.7487 14.29 27.7484C14.2826 27.7481 14.2756 27.7478 14.2686 27.7478C13.6964 27.7378 13.1666 27.403 12.9206 26.868L12.3359 25.5973C12.086 25.0537 11.6603 24.6121 11.1363 24.3387C11.135 24.3381 11.1341 24.3372 11.1329 24.3366C11.1296 24.3347 11.1262 24.3332 11.1231 24.3317C11.1106 24.3253 11.0981 24.3189 11.0856 24.3128C11.0826 24.3112 11.0801 24.31 11.0771 24.3088C10.9611 24.2517 10.8409 24.2026 10.7167 24.1626L9.38456 23.7357C8.73118 23.526 8.29966 22.901 8.33567 22.2159L8.40861 20.8188C8.44767 20.0687 8.16813 19.3314 7.64139 18.7961L6.66056 17.7988C6.1793 17.3096 6.08774 16.5558 6.43778 15.9656L7.15159 14.7626C7.53489 14.1165 7.6301 13.3338 7.41251 12.6148L7.00724 11.276C6.80826 10.6192 7.07773 9.90908 7.66215 9.54958L8.85325 8.81594C9.4929 8.42196 9.94089 7.77316 10.0822 7.03524L10.3456 5.66164C10.4746 4.98781 11.0432 4.48427 11.7277 4.43697L13.1233 4.34115C13.8725 4.28957 14.5707 3.92306 15.0389 3.33559L15.9104 2.24184C16.3383 1.70504 17.0756 1.52346 17.7037 1.79995L18.9836 2.3633C19.6711 2.66604 20.46 2.66604 21.1473 2.3633L22.4275 1.79995C23.0558 1.52346 23.7928 1.70504 24.2204 2.24184L25.0923 3.3359C25.5601 3.92336 26.2586 4.28957 27.0079 4.34115L28.4034 4.43728C29.0879 4.48427 29.6565 4.98781 29.7856 5.66164L30.0489 7.03554C30.1905 7.77316 30.6385 8.42226 31.2779 8.81594L32.469 9.54958C33.0534 9.90939 33.3229 10.6192 33.1239 11.276L32.7186 12.6151C32.501 13.3338 32.5962 14.1165 32.9795 14.7629L33.6933 15.9656C34.0434 16.5558 33.9521 17.3096 33.4706 17.7988L32.4897 18.7961C31.963 19.3314 31.6835 20.0687 31.7225 20.8191L31.7955 22.2159C31.8315 22.901 31.3999 23.526 30.7466 23.7357L29.4145 24.1626C29.2903 24.2026 29.17 24.2517 29.0541 24.3085C29.051 24.31 29.0483 24.3112 29.0455 24.3125C29.033 24.3189 29.0202 24.3253 29.0077 24.3317C29.0046 24.3335 29.0013 24.3347 28.9982 24.3366C28.997 24.3372 28.9961 24.3378 28.9952 24.3384C28.4709 24.6118 28.0451 25.0537 27.7952 25.5973L27.2105 26.8683C26.9648 27.4027 26.4356 27.7375 25.8637 27.7478C25.8555 27.7478 25.847 27.7481 25.8387 27.7487C25.7514 27.7487 25.6636 27.7417 25.5754 27.7262L24.1975 27.4854C23.4574 27.356 22.6918 27.5449 22.0967 28.0033L20.9886 28.8568C20.937 28.8968 20.8827 28.9316 20.8274 28.964ZM30.2055 34.7647L29.0464 32.7301C28.8862 32.4488 28.5282 32.3508 28.2475 32.511C27.9661 32.6712 27.8681 33.0289 28.0284 33.3103L29.1871 35.3446L27.2404 39.0525L21.8833 29.6472L22.8123 28.9316C23.1477 28.6734 23.5792 28.5669 23.9961 28.6399L25.3739 28.8806C25.4215 28.8892 25.4695 28.8956 25.5171 28.9014L26.6758 30.936C26.7839 31.1255 26.9819 31.232 27.1855 31.232C27.2837 31.232 27.3835 31.2073 27.4751 31.1551C27.7561 30.9949 27.8541 30.6372 27.6942 30.3559L26.779 28.7491C27.425 28.5062 27.9719 28.0176 28.2752 27.3581L28.86 26.0871C28.9234 25.9491 29.0077 25.8231 29.1072 25.7117L34.3873 34.9814L30.2055 34.7647Z" fill="#101111"></path></g><defs><clipPath id="clip0_798_29856"><rect width="40" height="40" fill="white" transform="translate(0 0.5)"></rect></clipPath></defs></svg>