<svg xmlns="http://www.w3.org/2000/svg" width="40" height="41" viewBox="0 0 40 41" fill="none"><g clip-path="url(#clip0_798_29827)"><path d="M22.9305 29.4864H21.8612L22.3405 25.4851C22.3925 25.0764 22.1565 24.6931 21.7652 24.5531C21.3838 24.4144 20.9705 24.5471 20.7412 24.8711L16.2038 30.5144C16.1878 30.5344 16.1725 30.5558 16.1592 30.5778C15.9578 30.8971 15.9472 31.3011 16.1292 31.6311C16.3158 31.9698 16.6752 32.1798 17.0672 32.1798H18.1365L17.6578 36.1791C17.6038 36.5884 17.8398 36.9724 18.2318 37.1131C18.3332 37.1498 18.4372 37.1671 18.5385 37.1671C18.8198 37.1671 19.0878 37.0331 19.2565 36.7944L23.7938 31.1518C23.8098 31.1318 23.8252 31.1104 23.8385 31.0884C24.0398 30.7691 24.0505 30.3651 23.8685 30.0351C23.6818 29.6964 23.3225 29.4864 22.9305 29.4864ZM19.1678 34.7771L19.5492 31.5924C19.5718 31.4031 19.5118 31.2131 19.3858 31.0704C19.2598 30.9278 19.0778 30.8464 18.8872 30.8464H17.6478L20.8292 26.8884L20.4478 30.0738C20.4252 30.2631 20.4852 30.4531 20.6112 30.5958C20.7372 30.7384 20.9192 30.8198 21.1098 30.8198H22.3492L19.1678 34.7771Z" fill="#101111"></path><path d="M38.0887 2.04933C38.0033 1.166 37.2687 0.5 36.3813 0.5C35.568 0.5 34.8873 1.07133 34.7127 1.83333H5.28733C5.11267 1.07133 4.432 0.5 3.61867 0.5C2.73133 0.5 1.99667 1.166 1.91133 2.04933L0.114 20.6253C0.0386667 21.4073 0 22.2 0 22.982V37.166C0 39.004 1.49533 40.4993 3.33333 40.4993H36.6667C38.5047 40.4993 40 39.004 40 37.166V22.982C40 22.2 39.9613 21.4073 39.886 20.6247L38.0887 2.04933ZM26.6667 21.1667C26.6667 19.7347 26.9253 18.7273 27.1973 18.0553C27.4393 18.216 27.7113 18.3307 28 18.4053V21.1667H26.6667ZM26.3487 13.92C26.066 13.632 25.8787 13.2547 25.82 12.86L25.342 9.47733L26.192 9.194L27.4693 13.4633C27.13 13.6353 26.8353 13.876 26.598 14.17L26.3487 13.92ZM31.1407 9.194L31.9907 9.47733L31.5133 12.8553C31.454 13.2547 31.2667 13.632 30.9887 13.9153L30.734 14.17C30.4973 13.876 30.2027 13.6353 29.8627 13.4633L31.1407 9.194ZM28.6667 17.1667C27.9313 17.1667 27.3333 16.5687 27.3333 15.8333C27.3333 15.098 27.9313 14.5 28.6667 14.5C29.402 14.5 30 15.098 30 15.8333C30 16.5687 29.402 17.1667 28.6667 17.1667ZM29.3333 18.4053C29.6213 18.3307 29.894 18.216 30.136 18.0553C30.408 18.7273 30.6667 19.7347 30.6667 21.1667H29.3333V18.4053ZM31.0867 16.9387C31.2413 16.6007 31.3333 16.2287 31.3333 15.8333C31.3333 15.716 31.3133 15.604 31.2987 15.4913L31.936 14.854C32.414 14.3673 32.732 13.7273 32.8333 13.0467L33.32 9.60067C33.406 8.996 33.0493 8.42 32.4773 8.23467L31.4813 7.90267C31.1567 7.79133 30.81 7.818 30.5067 7.97467C30.2033 8.13267 29.9827 8.40267 29.8873 8.72933L28.666 12.812L27.446 8.734C27.3493 8.40267 27.1287 8.13333 26.8253 7.97467C26.5227 7.818 26.1767 7.79067 25.8547 7.90133L24.8593 8.23267C24.2833 8.42 23.9267 8.996 24.012 9.6L24.4993 13.0513C24.5993 13.7273 24.918 14.3673 25.4007 14.8587L26.0333 15.4913C26.0187 15.6047 25.9987 15.7167 25.9987 15.8333C25.9987 16.2287 26.0907 16.6007 26.2453 16.9387C25.8393 17.7013 25.332 19.0693 25.332 21.1667H21.9987V13.324L22.446 12.4287C22.6173 12.086 22.6533 11.6953 22.548 11.3293L21.8053 8.732C21.6533 8.20267 21.164 7.83267 20.6133 7.83267H19.384C18.8333 7.83267 18.3433 8.20267 18.192 8.73133L17.45 11.3287C17.3447 11.696 17.3807 12.0867 17.5513 12.4287L17.9987 13.324V21.1667H13.9987V15.658C15.2413 14.7887 15.9987 13.3593 15.9987 11.8393C15.9987 10.362 15.2893 8.95733 14.096 8.07867C13.6967 7.79 13.1747 7.75133 12.7333 7.978C12.28 8.20933 11.9987 8.66667 11.9987 9.17267V11.136L11.332 11.7973L10.6653 11.136V9.17867C10.6653 8.67133 10.3853 8.216 9.93467 7.98933C9.476 7.75933 8.93333 7.80933 8.51733 8.12C7.06867 9.212 6.39733 11.0047 6.76467 12.798C7.00067 13.9607 7.68467 14.9887 8.66533 15.6713V21.166H6.66533C5.93 21.166 5.332 20.568 5.332 19.8327V5.83333H34.6653V19.8333C34.6653 20.5687 34.0673 21.1667 33.332 21.1667H31.9987C31.9987 19.0693 31.4913 17.7013 31.0853 16.9387H31.0867ZM19.2633 12.8687L18.746 11.8327C18.7247 11.7907 18.72 11.742 18.7333 11.6967L19.4567 9.16667H20.544L21.268 11.6973C21.2813 11.742 21.2767 11.7907 21.2547 11.8327L20.7373 12.8687C20.6913 12.9613 20.6673 13.0633 20.6673 13.1667V21.1667H19.334V13.1667C19.334 13.0633 19.3093 12.9607 19.2633 12.8687ZM9.66733 14.73C8.84 14.2507 8.25867 13.4507 8.07267 12.5327C7.80933 11.2473 8.28733 9.96467 9.33333 9.18V11.1733C9.33333 11.506 9.46133 11.8187 9.69733 12.0533L10.456 12.8053C10.9393 13.2873 11.7267 13.2887 12.21 12.8067L12.972 12.0513C13.206 11.818 13.334 11.506 13.334 11.1733L13.312 9.15733C14.1607 9.782 14.6673 10.7847 14.6673 11.84C14.6673 13.0173 14.028 14.1193 12.9993 14.7173C12.7933 14.8367 12.6673 15.056 12.6673 15.2933V21.1667H10.0007V15.3067C10.0007 15.0693 9.87333 14.8487 9.66733 14.73ZM34.6667 4.5H5.33333V3.16667H34.6667V4.5ZM38.6667 37.1667C38.6667 38.2693 37.7693 39.1667 36.6667 39.1667H3.33333C2.23067 39.1667 1.33333 38.2693 1.33333 37.1667V22.9827C1.33333 22.244 1.37 21.494 1.44067 20.754L3.238 2.17867C3.25733 1.982 3.42 1.83333 3.618 1.83333C3.828 1.83333 3.99933 2.00467 3.99933 2.21467V19.8333C3.99933 21.304 5.19533 22.5 6.666 22.5H33.3327C34.8033 22.5 35.9993 21.304 35.9993 19.8333V2.21467C35.9993 2.00467 36.1707 1.83333 36.3807 1.83333C36.578 1.83333 36.7413 1.982 36.7607 2.17867L38.558 20.7533C38.6287 21.4933 38.6653 22.2433 38.6653 22.9827V37.1667H38.6667Z" fill="#101111"></path></g><defs><clipPath id="clip0_798_29827"><rect width="40" height="40" fill="white" transform="translate(0 0.5)"></rect></clipPath></defs></svg>