<svg width="21" height="20" viewBox="0 0 21 20" fill="none" xmlns="http://www.w3.org/2000/svg">
<g clip-path="url(#clip0_805_6866)">
<path d="M20.3376 12.7729C20.3301 12.7398 20.3149 12.7092 20.2946 12.6822C20.2946 12.6822 16.3763 7.64324 16.3763 7.64324C16.3319 7.58613 16.2636 7.55273 16.1913 7.55273H15.8132L15.8385 7.37596C17.827 6.97617 18.9677 4.6622 18.0501 2.84219C17.8792 2.48821 17.5463 2.23487 17.1596 2.16455C16.7451 2.0891 16.3462 2.36515 16.2708 2.77988L16.0087 4.22102C15.9856 4.34814 15.8635 4.43275 15.7362 4.40967L14.549 4.1938C14.4246 4.17379 14.3352 4.0448 14.3604 3.92127C14.3604 3.92128 14.6223 2.48052 14.6223 2.48052C14.7043 2.07765 14.4127 1.65641 14.0067 1.59126C13.6236 1.52164 13.2293 1.63555 12.952 1.89609C11.4332 3.27919 11.6828 5.83817 13.4092 6.93389L12.7111 10.0884C12.4364 8.70495 12.0482 6.75251 11.7728 5.36599C11.7068 4.99393 11.3152 4.73193 10.9461 4.81341C10.9461 4.8134 8.7089 5.25791 8.7089 5.25791C8.32865 5.3335 8.08077 5.70434 8.15634 6.08459L8.59711 8.30293L8.08413 7.64324C8.03973 7.58613 7.97144 7.55273 7.89912 7.55273H6.42459L6.02843 5.67524C6.15117 5.65997 6.24109 5.5516 6.23335 5.42816C6.23335 5.42816 6.15809 4.21369 6.15809 4.21369L6.65215 4.14599C6.72672 4.44449 7.02113 4.67055 7.32871 4.6654C7.28208 4.68373 8.6901 4.48388 8.70356 4.48368C9.08766 4.43103 9.35732 4.07573 9.30472 3.69161L8.9049 0.773826C8.87942 0.587764 8.78298 0.42274 8.63341 0.309196C8.4838 0.195651 8.29874 0.147129 8.11285 0.172668L6.83493 0.347762C6.48114 0.396247 6.22511 0.701671 6.22793 1.04971L3.15489 1.47077C2.57063 1.55082 2.04737 1.85066 1.68158 2.31502C1.24476 2.86954 0.910439 3.50812 0.687852 4.2131C0.612359 4.45238 0.674386 4.71063 0.84971 4.88704C1.13379 5.18304 1.64888 5.13583 1.87346 4.7922C2.07564 4.49411 2.30273 4.22094 2.55137 3.9763L2.61797 4.4622C2.63556 4.59045 2.75385 4.68015 2.88199 4.66259L3.35124 4.59831L3.60545 5.78825C3.63073 5.90975 3.74929 5.98978 3.8693 5.97109L4.13956 10.1624L2.18199 12.6777C2.14999 12.7188 2.13259 12.7695 2.13259 12.8217V16.6414L0.832391 16.976C0.728822 17.0027 0.656419 17.0961 0.656419 17.203V18.2562C0.656419 18.3631 0.728822 18.4565 0.832391 18.4831L2.13259 18.8177V19.6089C2.13259 19.7383 2.23753 19.8433 2.36697 19.8433C2.36697 19.8433 17.5047 19.8447 20.1095 19.8433C20.239 19.8433 20.3439 19.7383 20.3439 19.6089V12.826C20.3439 12.8077 20.3416 12.79 20.3376 12.7729ZM6.89856 0.812164L8.17648 0.637069C8.2378 0.628581 8.30017 0.644605 8.35001 0.682579C8.39987 0.72042 8.43199 0.775428 8.4405 0.837455L8.84032 3.75524C8.85786 3.88328 8.76795 4.00173 8.63993 4.01928L7.36201 4.19437C7.23766 4.2139 7.11245 4.11927 7.09799 3.99398C7.09799 3.99398 6.89808 2.53509 6.89808 2.53509C6.88789 2.46658 6.70173 1.09769 6.69817 1.07619C6.68063 0.948158 6.77054 0.829711 6.89856 0.812164ZM3.76418 4.2876C3.73905 4.16713 3.62238 4.0873 3.50317 4.10436C3.50317 4.10436 3.05056 4.16637 3.05056 4.16637L2.95561 3.47358C2.94405 3.3893 2.88775 3.3179 2.80852 3.28702C2.72917 3.25609 2.63945 3.2706 2.57395 3.32485C2.163 3.66504 1.79678 4.07018 1.48554 4.52905C1.40923 4.63433 1.27526 4.64489 1.18224 4.55666C1.13013 4.50424 1.11201 4.42665 1.13486 4.35421C1.34032 3.70346 1.64816 3.11496 2.04978 2.60509C2.34007 2.23659 2.75515 1.99867 3.21852 1.93517L6.28518 1.51498C6.35921 2.05522 6.50817 3.14235 6.58217 3.68246L5.87889 3.77883C5.75732 3.79549 5.6692 3.90308 5.67679 4.02553L5.75205 5.23998L4.01839 5.47754L3.76418 4.2876ZM16.0767 8.02148L19.6304 12.5917H18.6102L15.6392 8.77086L15.7463 8.02148H16.0767ZM16.2392 16.8701C16.2109 16.6342 16.1719 16.3997 16.1218 16.1673C16.0524 15.8478 15.7636 15.6159 15.435 15.6159H12.0518V13.0605C13.6875 13.0605 16.5964 13.0604 18.2577 13.0604V18.0477H16.2832C16.3004 17.655 16.2857 17.262 16.2392 16.8701ZM10.6713 15.6159C10.5888 15.6165 10.5069 15.6373 10.4343 15.676V13.0604H11.583V15.6159H10.6713ZM15.5468 9.41703L18.0132 12.5917H15.0932L15.5468 9.41703ZM12.7306 12.5917H11.932L11.7558 12.365L12.6502 12.1873L12.7306 12.5917ZM13.903 6.87204C13.9251 6.77206 13.8798 6.66929 13.791 6.61823C12.8186 6.05897 12.2751 4.94098 12.4387 3.83625C12.5303 3.2171 12.8188 2.66437 13.2729 2.23775C13.4424 2.07855 13.6853 2.00927 13.9229 2.05246C14.0835 2.08166 14.1904 2.23606 14.1611 2.39666L13.8992 3.83743C13.8656 4.02221 13.906 4.20902 14.0129 4.36344C14.1197 4.51786 14.2804 4.62141 14.4652 4.65499L15.6524 4.87087C16.0227 4.94616 16.4101 4.67809 16.4699 4.30486C16.4699 4.30486 16.732 2.86375 16.732 2.86375C16.7611 2.70334 16.915 2.59655 17.0758 2.62575C17.3155 2.66935 17.522 2.82646 17.628 3.04599C18.4369 4.65396 17.3725 6.68553 15.5927 6.94563C15.4915 6.96201 15.4127 7.04231 15.3982 7.14386L15.311 7.7537C15.2098 8.46243 14.7301 11.8187 14.6197 12.5917H13.2085C13.1809 12.4529 13.0933 12.0118 13.0643 11.8658C13.0643 11.8658 12.9383 11.2315 12.9383 11.2315L13.903 6.87204ZM8.61609 5.99323C8.59091 5.86647 8.67354 5.74285 8.80026 5.71765L11.0375 5.27315C11.1605 5.24613 11.291 5.33327 11.313 5.45736C11.313 5.45736 11.3761 5.77486 11.3761 5.77486L10.4335 5.96216C10.3065 5.98737 10.2241 6.11076 10.2493 6.23771C10.274 6.36549 10.401 6.4475 10.5248 6.4219C10.5248 6.42191 11.4675 6.2346 11.4675 6.2346L11.5733 6.76696L11.0521 6.87051C10.9251 6.89573 10.8427 7.0191 10.8679 7.14607C10.8925 7.27384 11.0196 7.35585 11.1434 7.33026C11.1434 7.33026 11.6646 7.2267 11.6646 7.2267L11.7704 7.75909L10.8278 7.94637C10.7008 7.97159 10.6183 8.09496 10.6436 8.22193C10.6682 8.3497 10.7953 8.43171 10.9191 8.40612C10.9191 8.40612 11.8617 8.21883 11.8617 8.21883L11.9675 8.7512L11.4464 8.85475C11.3194 8.87996 11.2369 9.00333 11.2622 9.1303C11.2868 9.25808 11.4139 9.34009 11.5377 9.31449C11.5377 9.31449 12.0589 9.21094 12.0589 9.21094L12.1646 9.7433L11.222 9.93059C11.095 9.9558 11.0126 10.0792 11.0378 10.2061C11.0625 10.3339 11.1895 10.4159 11.3133 10.3903C11.3133 10.3903 12.256 10.2031 12.256 10.2031L12.3617 10.7354L11.8406 10.839C11.7136 10.8642 11.6312 10.9875 11.6564 11.1145C11.6811 11.2423 11.8081 11.3243 11.9319 11.2987C11.9319 11.2987 12.4531 11.1952 12.4531 11.1952L12.5589 11.7275L11.6163 11.9148C11.5575 11.9265 11.5084 11.9594 11.4749 12.0039L9.23905 9.12847L8.61609 5.99323ZM11.3382 12.5917H10.3181C9.43617 11.4576 7.6391 9.1465 6.76432 8.02148H7.78449C7.78449 8.02148 11.3381 12.5915 11.3382 12.5917ZM4.33489 5.9073L5.56281 5.73906L5.9935 7.78028L4.57334 9.60505L4.33489 5.9073ZM2.60134 16.5208V12.9021C3.51863 11.7234 5.37323 9.34073 6.28516 8.16888L9.96558 12.902V16.161L9.42553 16.217C9.40218 16.2195 9.38582 16.2096 9.37624 16.201C9.36659 16.1923 9.35515 16.177 9.35515 16.1536C9.35515 15.8599 9.11623 15.621 8.82258 15.621H8.53205C8.14435 15.621 7.82889 15.9364 7.82889 16.3242V16.9382H3.6587L3.46108 16.7709C3.44336 16.7582 3.09483 16.4545 3.08622 16.4606C3.03464 16.4326 2.97359 16.4247 2.9167 16.4396C2.9167 16.4396 2.60134 16.5208 2.60134 16.5208ZM1.12517 17.3847L2.91617 16.9238L3.42139 17.3515C3.46373 17.3873 3.51737 17.4069 3.57283 17.4069H7.82893V18.0522H3.57283C3.51737 18.0522 3.46373 18.0719 3.42139 18.1077L2.91617 18.5354L1.12517 18.0745V17.3847ZM2.60134 19.3745V18.9384L2.9167 19.0195C2.96216 19.0312 3.01075 19.0284 3.05495 19.0129C3.08081 19.003 3.10507 18.9891 3.12655 18.9715C3.24993 18.867 3.53806 18.6231 3.6587 18.521H7.82889V19.135C7.82892 19.2169 7.84448 19.2974 7.87089 19.3745H2.60134ZM9.35168 19.3646C9.35368 19.345 9.35514 19.3256 9.35515 19.3056C9.35515 19.2821 9.36659 19.2669 9.37621 19.2582C9.38582 19.2495 9.40215 19.2397 9.42553 19.2421L9.96558 19.2982V19.3745H9.35072C9.35114 19.3713 9.35131 19.3679 9.35168 19.3646ZM10.6425 19.3457C10.6452 19.0953 10.4469 18.8747 10.1963 18.8508C10.1963 18.8508 9.4739 18.7759 9.4739 18.7759C9.41341 18.7697 9.35211 18.7742 9.29317 18.7887C9.0591 18.842 8.88312 19.0655 8.8864 19.3056C8.8864 19.3408 8.85775 19.3694 8.82258 19.3694H8.53205C8.40281 19.3694 8.29768 19.2643 8.29768 19.135V16.3242C8.29768 16.1949 8.40281 16.0898 8.53205 16.0898H8.82258C8.85775 16.0898 8.8864 16.1184 8.8864 16.1536C8.87991 16.4604 9.16915 16.7217 9.47391 16.6833C9.4739 16.6833 10.1966 16.6083 10.1966 16.6083C10.2138 16.6062 10.2309 16.6037 10.2476 16.6002C10.4468 16.5579 10.6 16.3995 10.6347 16.2005C10.6393 16.1717 10.6428 16.1428 10.6425 16.1134C10.6425 16.0976 10.6555 16.0846 10.6713 16.0846C11.499 16.0974 14.6366 16.0598 15.5138 16.0982C15.5881 16.1247 15.6465 16.1876 15.6637 16.2668C15.687 16.3744 15.7076 16.4823 15.7258 16.5908C15.8187 17.1429 15.8434 17.704 15.7999 18.2639C15.7823 18.4895 15.7536 18.7149 15.7136 18.9376C15.6908 19.0415 15.6844 19.1528 15.6416 19.2503C15.6019 19.3246 15.5231 19.3745 15.435 19.3745H10.6713C10.6555 19.3745 10.6425 19.3616 10.6425 19.3457ZM16.1032 19.3594C16.1757 19.0826 16.2147 18.7974 16.248 18.5164H18.2577V19.3745H16.0984C16.1001 19.3696 16.1015 19.3644 16.1032 19.3594ZM19.8752 19.3745H18.7265V13.0604H19.8752V19.3745Z" fill="#101111"/>
<path d="M13.2307 18.6363C14.1869 18.6363 15.1548 18.3251 15.1548 17.7304C15.1471 16.5261 11.3144 16.5261 11.3066 17.7304C11.3066 18.3251 12.2746 18.6363 13.2307 18.6363ZM13.2307 17.2932C14.1761 17.2932 14.6861 17.6035 14.6861 17.7304C14.6861 17.8573 14.1761 18.1675 13.2307 18.1675C12.2854 18.1675 11.7754 17.8573 11.7754 17.7304C11.7754 17.6035 12.2854 17.2932 13.2307 17.2932Z" fill="#101111"/>
<path d="M9.76367 16.9688C9.63424 16.9688 9.5293 17.0737 9.5293 17.2031V18.1859C9.5293 18.3153 9.63424 18.4203 9.76367 18.4203C9.8931 18.4203 9.99805 18.3153 9.99805 18.1859V17.2031C9.99805 17.0737 9.8931 16.9688 9.76367 16.9688Z" fill="#101111"/>
</g>
<defs>
<clipPath id="clip0_805_6866">
<rect width="20" height="20" fill="white" transform="translate(0.5)"/>
</clipPath>
</defs>
</svg>
