<svg xmlns="http://www.w3.org/2000/svg" width="32" height="32" viewBox="0 0 32 32" fill="none"><g clip-path="url(#clip0_798_29985)"><path d="M28.2118 22.0883C29.1455 21.3801 29.75 20.2593 29.75 18.9996C29.75 16.8629 28.0117 15.1246 25.875 15.1246C23.7383 15.1246 22 16.8629 22 18.9996C22 20.2589 22.6041 21.3793 23.5374 22.0876C22.7629 22.4072 22.0582 22.8844 21.4694 23.4951C20.8093 22.1898 19.6956 21.1516 18.3368 20.5886C19.2705 19.8804 19.875 18.7596 19.875 17.5C19.875 15.3633 18.1367 13.625 16 13.625C13.8633 13.625 12.125 15.3633 12.125 17.5C12.125 18.7596 12.7295 19.8804 13.6632 20.5886C12.3044 21.1516 11.1907 22.1898 10.5306 23.4951C9.94175 22.8843 9.23706 22.4072 8.46262 22.0876C9.39587 21.3793 10 20.2589 10 18.9996C10 16.8629 8.26169 15.1246 6.125 15.1246C3.98831 15.1246 2.25 16.8629 2.25 18.9996C2.25 20.2593 2.8545 21.3801 3.78825 22.0883C1.56681 23.0086 0 25.1994 0 27.7496V31.3746C0 31.7198 0.279813 31.9996 0.625 31.9996H10.5H21.5H31.375C31.7202 31.9996 32 31.7198 32 31.3746V27.7496C32 25.1994 30.4332 23.0086 28.2118 22.0883ZM3.5 18.9996C3.5 17.5522 4.67756 16.3746 6.125 16.3746C7.57244 16.3746 8.75 17.5522 8.75 18.9996C8.75 20.4471 7.57244 21.6246 6.125 21.6246C4.67756 21.6246 3.5 20.4471 3.5 18.9996ZM9.875 26.25V30.7496H1.25V27.7496C1.25 25.0615 3.43694 22.8746 6.125 22.8746C7.67544 22.8746 9.11856 23.6061 10.0381 24.8439C9.93163 25.2956 9.875 25.7663 9.875 26.25ZM13.375 17.5C13.375 16.0526 14.5526 14.875 16 14.875C17.4474 14.875 18.625 16.0526 18.625 17.5C18.625 18.9474 17.4474 20.125 16 20.125C14.5526 20.125 13.375 18.9474 13.375 17.5ZM20.875 30.7496H19.6354V28.7792C19.6354 28.4341 19.3556 28.1542 19.0104 28.1542C18.6652 28.1542 18.3854 28.4341 18.3854 28.7792V30.7496H11.125V26.25C11.125 23.5619 13.3119 21.375 16 21.375C18.6881 21.375 20.875 23.5619 20.875 26.25V30.7496ZM23.25 18.9996C23.25 17.5522 24.4276 16.3746 25.875 16.3746C27.3224 16.3746 28.5 17.5522 28.5 18.9996C28.5 20.4471 27.3224 21.6246 25.875 21.6246C24.4276 21.6246 23.25 20.4471 23.25 18.9996ZM30.75 30.7496H22.125V26.25C22.125 25.7663 22.0684 25.2956 21.9619 24.8439C22.8814 23.6061 24.3246 22.8746 25.875 22.8746C28.5631 22.8746 30.75 25.0615 30.75 27.7496V30.7496Z" fill="white"></path><path d="M22.1921 1.92526C21.948 1.68113 21.5523 1.6812 21.3081 1.92526L19.1635 4.06988C18.9195 4.31394 18.9195 4.7097 19.1635 4.95382C19.2856 5.07582 19.4455 5.13688 19.6055 5.13688C19.7655 5.13688 19.9255 5.07588 20.0475 4.95382L22.1921 2.8092C22.4361 2.56513 22.4361 2.16938 22.1921 1.92526Z" fill="white"></path><path d="M12.8366 4.06986L10.692 1.92523C10.4479 1.68117 10.0522 1.68117 9.80807 1.92523C9.56395 2.1693 9.56401 2.56505 9.80807 2.80917L11.9528 4.9538C12.0748 5.07586 12.2348 5.13686 12.3947 5.13686C12.5546 5.13686 12.7146 5.07586 12.8366 4.9538C13.0807 4.70973 13.0807 4.31398 12.8366 4.06986Z" fill="white"></path><path d="M16 0C15.6548 0 15.375 0.279813 15.375 0.625V1.96794C15.375 2.31312 15.6548 2.59294 16 2.59294C16.3452 2.59294 16.625 2.31312 16.625 1.96794V0.625C16.625 0.279813 16.3452 0 16 0Z" fill="white"></path><path d="M20.8565 7.05969C20.7472 6.723 20.4615 6.48231 20.1113 6.43144L17.8425 6.10175L16.8279 4.04588C16.6712 3.72844 16.354 3.53125 16 3.53125C15.646 3.53125 15.3288 3.72844 15.1722 4.04588L14.1575 6.10175L11.8888 6.43144C11.5385 6.48231 11.253 6.72306 11.1435 7.05969C11.0342 7.39631 11.1236 7.75894 11.3771 8.00606L13.0188 9.60631L12.6313 11.8659C12.5714 12.2148 12.7121 12.5608 12.9985 12.7689C13.1603 12.8864 13.3497 12.9462 13.5402 12.9462C13.687 12.9462 13.8345 12.9108 13.9707 12.8392L16 11.7723L18.0293 12.8391C18.3426 13.0039 18.7152 12.9769 19.0016 12.7689C19.288 12.5608 19.4287 12.2147 19.3688 11.8659L18.9812 9.60631L20.623 8.00606C20.8765 7.75894 20.9659 7.39631 20.8565 7.05969ZM17.9857 8.83119C17.7681 9.04331 17.6688 9.34869 17.7202 9.64831L18.0248 11.4246L16.4297 10.586C16.2952 10.5153 16.1476 10.4799 16 10.4799C15.8525 10.4799 15.7049 10.5153 15.5704 10.586L13.9752 11.4246L14.2799 9.64825C14.3312 9.34875 14.232 9.04331 14.0143 8.83119L12.7238 7.57325L14.5072 7.31406C14.8081 7.27038 15.068 7.08156 15.2024 6.809L16 5.19287L16.867 6.94956C16.958 7.13394 17.1339 7.26175 17.3373 7.29144L19.2762 7.57319L17.9857 8.83119Z" fill="white"></path><path d="M19.4516 25.9042C19.3348 25.7879 19.1741 25.7217 19.0098 25.7217C18.8448 25.7217 18.6841 25.7879 18.5679 25.9042C18.451 26.0211 18.3848 26.1816 18.3848 26.3467C18.3848 26.5111 18.451 26.6723 18.5679 26.7885C18.6841 26.9048 18.8448 26.9717 19.0098 26.9717C19.1741 26.9717 19.3348 26.9048 19.4516 26.7885C19.5679 26.6717 19.6348 26.5111 19.6348 26.3467C19.6348 26.1823 19.5679 26.0211 19.4516 25.9042Z" fill="white"></path></g><defs><clipPath id="clip0_798_29985"><rect width="32" height="32" fill="white"></rect></clipPath></defs></svg>