<svg xmlns="http://www.w3.org/2000/svg" width="32" height="32" viewBox="0 0 32 32" fill="none"><path d="M29.4412 12.9229C29.0942 12.6993 28.7258 12.5169 28.3426 12.3765C27.752 6.08598 22.4424 1.14648 16 1.14648C9.55769 1.14648 4.24806 6.08592 3.65744 12.3765C3.27437 12.5167 2.90606 12.6991 2.55944 12.9224C0.956813 13.9543 0 15.7073 0 17.6117V19.413C0 22.4869 2.50075 24.9877 5.57463 24.9877H6.83162C7.80825 24.9877 8.60281 24.1931 8.60281 23.2164V13.8083C8.60281 12.8317 7.80825 12.037 6.83162 12.037H5.57463C5.54319 12.037 5.51187 12.0382 5.48044 12.0387C6.21394 6.8898 10.6514 2.91767 16 2.91767C21.3486 2.91767 25.7861 6.88974 26.5196 12.0388C26.4881 12.0383 26.4568 12.0372 26.4254 12.0372H25.1684C24.1917 12.0372 23.3972 12.8317 23.3972 13.8084V23.2165C23.3972 24.1931 24.1917 24.9877 25.1684 24.9877H26.3579C25.6111 27.3581 23.3925 29.0817 20.7787 29.0817C20.2896 29.0817 19.8931 29.4782 19.8931 29.9674C19.8931 30.4565 20.2896 30.853 20.7787 30.853C24.4866 30.853 27.5837 28.1905 28.2601 24.6771C30.4354 23.9167 32 21.8444 32 19.413V17.6117C32 15.7073 31.0433 13.9544 29.4412 12.9229ZM5.57463 13.8084H6.83162L6.83275 23.2164C6.83275 23.2164 6.83238 23.2165 6.83162 23.2165H5.57463C3.47744 23.2165 1.77125 21.5103 1.77125 19.4131V17.6118C1.77125 16.3123 2.42438 15.1161 3.51863 14.4115C4.13088 14.0169 4.84188 13.8084 5.57463 13.8084ZM30.2288 19.413C30.2288 21.5102 28.5227 23.2164 26.4254 23.2164H25.1684V13.8083H26.4254C27.1582 13.8083 27.8692 14.0169 28.4821 14.4119C29.5759 15.116 30.2288 16.3122 30.2288 17.6117V19.413Z" fill="white"></path></svg>