<svg xmlns="http://www.w3.org/2000/svg" width="56" height="56" viewBox="0 0 56 56" fill="none"><g clip-path="url(#clip0_798_13402)"><path d="M55.4062 20.93C55.7891 20.4513 56 19.8502 56 19.2372V1.80645C56 0.810419 55.1896 0 54.1936 0H45.1613C44.1653 0 43.3548 0.810419 43.3548 1.80645V19.2374C43.3548 19.8502 43.5657 20.4513 43.9486 20.9301L46.9677 24.7039V27.0968H45.1613C44.1653 27.0968 43.3548 27.9072 43.3548 28.9032V51.308L36.129 45.0247V9.93548H36.6582C37.1406 9.93548 37.5944 9.7475 37.9355 9.40631L40.9097 6.4321C41.3216 6.02034 41.5484 5.47264 41.5484 4.89018C41.5484 3.68787 40.5702 2.70968 39.3679 2.70968H23.4839C22.4878 2.70968 21.6774 3.5201 21.6774 4.51613V8.12903C21.6774 9.12506 22.4878 9.93548 23.4839 9.93548H27.0968V37.1706L21.6774 32.4581V16.4677C21.6774 16.259 21.6531 16.0501 21.6054 15.8471L18.2474 1.57556C18.0291 0.647839 17.2111 0 16.2581 0C15.305 0 14.4871 0.647839 14.2687 1.57556L10.9107 15.847C10.863 16.0501 10.8387 16.2589 10.8387 16.4677V23.033L3.65253 16.7842C3.26223 16.4449 2.76263 16.2581 2.24553 16.2581H2.14426C0.961936 16.2581 0 17.22 0 18.4023V53.8557C0 55.0381 0.961936 56 2.14426 56H43.0171C43.5628 56 44.0599 55.7934 44.4388 55.4566C44.892 55.7976 45.4551 56 46.0646 56H53.2904C54.7846 56 56.0001 54.7844 56.0001 53.2903V28.9032C56.0001 27.9072 55.1897 27.0968 54.1937 27.0968H52.3872V24.7039L55.4062 20.93ZM48.3051 23.4839L45.4148 19.871H53.9401L51.0498 23.4839H48.3051ZM46.9677 4.89018C47.3089 5.23137 47.7626 5.41935 48.245 5.41935H51.1097C51.5921 5.41935 52.0459 5.23137 52.387 4.89018L54.1934 3.08373V18.0645H45.1612V3.08373L46.9677 4.89018ZM46.4386 1.80645H52.9162L51.1097 3.6129H48.245L46.4386 1.80645ZM28.9032 9.93548H30.7097V8.12903H23.4839V4.51613H39.3679C39.5742 4.51613 39.7419 4.6839 39.7419 4.89018C39.7419 4.9901 39.703 5.08403 39.6324 5.15471L36.6582 8.12903H32.5161V9.93548H34.3226V43.4539L28.9032 38.7414V9.93548ZM10.8387 46.9677H9.03226V30.8937L10.8387 32.4744V46.9677ZM12.6452 18.0645H15.3548V46.9677H12.6452V18.0645ZM19.8464 16.2581H12.6699L14.7951 7.22581H17.7212L19.8464 16.2581ZM17.1613 18.0645H19.871V46.9677H17.1613V18.0645ZM21.6774 41.9582L27.4025 46.9677H21.6774V41.9582ZM16.2581 1.80645C16.3687 1.80645 16.4637 1.88165 16.489 1.98935L17.2961 5.41935H15.2201L16.0272 1.98935C16.0525 1.88165 16.1474 1.80645 16.2581 1.80645ZM43.017 54.1935H36.129V52.3871H34.3226V54.1935H32.5161V50.5806H30.7097V54.1935H28.9032V52.3871H27.0968V54.1935H25.2903V50.5806H23.4839V54.1935H21.6774V52.3871H19.871V54.1935H18.0645V50.5806H16.2581V54.1935H14.4516V52.3871H12.6452V54.1935H10.8387V50.5806H9.03226V54.1935H7.22581V52.3871H5.41935V54.1935H2.14426C1.95808 54.1935 1.80645 54.042 1.80645 53.8557V52.3871H3.6129V50.5806H1.80645V48.7742H5.41935V46.9677H1.80645V45.1613H3.6129V43.3548H1.80645V41.5484H5.41935V39.7419H1.80645V37.9355H3.6129V36.129H1.80645V34.3226H5.41935V32.5161H1.80645V30.7097H3.6129V28.9032H1.80645V27.0968H5.41935V25.2903H1.80645V23.4839H3.6129V21.6774H1.80645V18.4023C1.80645 18.2161 1.95797 18.0645 2.14426 18.0645H2.24553C2.32705 18.0645 2.40574 18.094 2.46716 18.1474L10.8387 25.4269V30.074L7.22581 26.9127V48.7742H32.2104L21.6774 39.5579V34.852L43.2387 53.6008C43.3125 53.665 43.3548 53.758 43.3548 53.8557C43.3548 54.042 43.2033 54.1935 43.017 54.1935ZM53.2903 54.1935H46.0645C45.5665 54.1935 45.1613 53.7883 45.1613 53.2903V32.5161H54.1936V53.2903C54.1936 53.7883 53.7883 54.1935 53.2903 54.1935ZM54.1936 30.7097H45.1613V28.9032H54.1936V30.7097ZM48.7742 27.0968V25.2903H50.5806V27.0968H48.7742Z" fill="#F47629"></path></g><defs><clipPath id="clip0_798_13402"><rect width="56" height="56" fill="white"></rect></clipPath></defs></svg>