<svg xmlns="http://www.w3.org/2000/svg" width="56" height="56" viewBox="0 0 56 56" fill="none"><g clip-path="url(#clip0_798_13405)"><mask id="mask0_798_13405" style="mask-type:luminance" maskUnits="userSpaceOnUse" x="0" y="0" width="56" height="56"><path d="M56 0H0V56H56V0Z" fill="white"></path></mask><g mask="url(#mask0_798_13405)"><path d="M11.7031 20.7813C11.7031 29.8278 19.0629 37.1875 28.1094 37.1875C37.156 37.1875 44.5157 29.8278 44.5157 20.7813C44.5157 11.7347 37.156 4.375 28.1094 4.375C19.0629 4.375 11.7031 11.7347 11.7031 20.7813ZM28.1094 6.5625C35.9498 6.5625 42.3282 12.9409 42.3282 20.7813C42.3282 28.6217 35.9498 35 28.1094 35C20.269 35 13.8907 28.6217 13.8907 20.7813C13.8907 12.9409 20.269 6.5625 28.1094 6.5625Z" fill="#F47629"></path><path d="M17.9805 18.8311L22.22 23.0082L21.2447 28.8791C21.1767 29.288 21.3455 29.6999 21.6809 29.9434C22.0158 30.1869 22.4598 30.2198 22.8276 30.0293L28.1096 27.2863L33.3912 30.0293C33.7561 30.2185 34.2001 30.189 34.538 29.9434C34.8734 29.6999 35.0421 29.288 34.9742 28.8791L33.9988 23.0082L38.2384 18.8311C38.5336 18.5406 38.6391 18.1082 38.5109 17.7138C38.3828 17.32 38.0432 17.0324 37.6334 16.9704L31.7498 16.0848L29.0876 10.7609C28.9026 10.3904 28.5236 10.1562 28.1096 10.1562C27.6952 10.1562 27.3166 10.3904 27.1313 10.7609L24.469 16.0848L18.5854 16.9704C18.1758 17.0319 17.836 17.32 17.7079 17.7138C17.5797 18.1082 17.6857 18.5406 17.9805 18.8311ZM25.3564 18.1633C25.7085 18.1103 26.0127 17.8895 26.1721 17.5711L28.1096 13.6956L30.0472 17.5711C30.2065 17.8895 30.5108 18.1103 30.8628 18.1633L35.1451 18.8081L32.0591 21.8479C31.8058 22.0978 31.6895 22.4554 31.7476 22.8067L32.4577 27.0795L28.6133 25.0834C28.4557 25.0014 28.2826 24.9604 28.1096 24.9604C27.9366 24.9604 27.7635 25.0014 27.6055 25.0834L23.7611 27.0795L24.4712 22.8067C24.5297 22.4554 24.4135 22.0978 24.1597 21.8479L21.0741 18.8081L25.3564 18.1633Z" fill="#F47629"></path><path d="M29.2032 1.09375C29.2032 1.69788 28.7135 2.1875 28.1094 2.1875C27.5053 2.1875 27.0156 1.69788 27.0156 1.09375C27.0156 0.489625 27.5053 0 28.1094 0C28.7135 0 29.2032 0.489625 29.2032 1.09375Z" fill="#F47629"></path><path d="M22.9546 0.64465C13.7539 2.99323 7.32812 11.2737 7.32812 20.7812C7.32812 26.6862 9.81088 32.2502 14.1692 36.1907L7.57977 47.8037C7.36786 48.1776 7.39434 48.6407 7.64728 48.9876C7.90021 49.335 8.33259 49.502 8.75342 49.4144L16.2366 47.8605L18.8667 55.272C19.0094 55.6753 19.3748 55.9578 19.8012 55.9957C20.2275 56.0337 20.6364 55.8189 20.8479 55.4468L28.1094 42.6806L35.3705 55.4468C35.5661 55.7907 35.9301 55.9996 36.3206 55.9996C36.3527 55.9996 36.3852 55.9984 36.4172 55.9957C36.8436 55.9578 37.2089 55.6749 37.3521 55.272L39.9817 47.8605L47.465 49.4144C47.8854 49.5016 48.3182 49.3345 48.5711 48.9876C48.8245 48.6407 48.8505 48.1776 48.6386 47.8037L42.0492 36.1907C46.4075 32.2502 48.8903 26.6862 48.8903 20.7812C48.8903 11.2737 42.4645 2.99323 33.2642 0.64465C32.6784 0.495114 32.0832 0.848447 31.9337 1.43378C31.7842 2.01911 32.1375 2.61469 32.7228 2.76423C40.9542 4.86542 46.7032 12.2743 46.7032 20.7812C46.7032 31.1347 38.2945 39.375 28.1094 39.375C17.917 39.375 9.51567 31.1278 9.51567 20.7812C9.51567 12.2743 15.2643 4.86542 23.4956 2.76423C24.0809 2.61469 24.4343 2.01911 24.2851 1.43378C24.1356 0.848447 23.5404 0.495114 22.9546 0.64465ZM20.1289 52.2872L17.9794 46.2302C17.7965 45.7149 17.2616 45.4137 16.7262 45.5248L10.6752 46.7813L15.8902 37.5904C18.9309 39.8009 22.5313 41.1476 26.2753 41.4809L20.1289 52.2872ZM39.4921 45.5248C38.9572 45.4137 38.4218 45.7149 38.239 46.2302L36.0899 52.2872L29.9432 41.4809C33.6875 41.1476 37.2876 39.8009 40.3286 37.5904L45.5436 46.7813L39.4921 45.5248Z" fill="#F47629"></path></g></g><defs><clipPath id="clip0_798_13405"><rect width="56" height="56" fill="white"></rect></clipPath></defs></svg>