<svg xmlns="http://www.w3.org/2000/svg" width="56" height="56" viewBox="0 0 56 56" fill="none"><g clip-path="url(#clip0_798_13395)"><path d="M56 23.4839H53.9704L50.9453 25.0756C50.6049 24.8877 50.2508 24.7285 49.8688 24.6327L46.0636 23.6805V23.2479C47.747 22.0731 48.7742 20.1321 48.7742 18.0645V16.4857C48.7742 12.9768 46.0248 10.0404 42.6457 9.93813C42.4741 9.93375 42.3052 9.93991 42.1354 9.94831L43.122 7.63861L38.339 2.85698L35.5195 4.6921C34.4483 4.08877 33.3152 3.61907 32.1386 3.28963L31.4422 0H24.5586L23.8623 3.29051C22.6856 3.61996 21.5517 4.08965 20.4813 4.69298L17.6618 2.85787L12.8829 7.63684L13.8527 9.94831C13.8157 9.94653 13.7804 9.93991 13.7433 9.93897C12.0136 9.88876 10.3845 10.5199 9.14693 11.7212C7.90764 12.9217 7.22581 14.5327 7.22581 16.2581V18.0645C7.22581 20.1321 8.25208 22.0721 9.93552 23.247V23.6805L7.45338 24.3011L2.95445 21.6774H0V40.3934L8.88584 43.3548H10.6164L10.8325 42.5981L13.5563 44.2329C13.6009 45.7139 14.7886 46.9056 16.2682 46.9576C16.3203 48.431 17.5044 49.6153 18.9779 49.6672C19.0299 51.1408 20.2141 52.3249 21.6876 52.377C21.7413 53.8848 22.9762 55.0968 24.4965 55.0968C25.061 55.0968 25.6145 54.9208 26.0798 54.6073L26.8798 55.3137C27.3812 55.7553 28.0269 56 28.6973 56H28.8645C30.3674 56 31.5904 54.785 31.6094 53.2868C33.0961 53.2679 34.3001 52.0639 34.319 50.5771C35.8067 50.5582 37.0115 49.3524 37.0287 47.8648C38.53 47.8295 39.742 46.603 39.742 45.0933C39.742 45.0025 39.7375 44.913 39.7283 44.8226L56 36.6874V23.4839ZM46.9678 16.4857V18.0645C46.9678 19.6677 46.1015 21.1654 44.707 21.9729L44.2554 22.234L44.2589 25.0923L48.7715 26.2196L38.8387 31.4475V29.0143C38.8387 27.8002 38.3483 26.6884 37.5452 25.8668L40.6452 25.0923V22.2318L40.1945 21.9711C38.8008 21.1654 37.9355 19.6677 37.9355 18.0645V16.2581C37.9355 15.0263 38.4223 13.8743 39.3075 13.0165C40.1918 12.1592 41.365 11.6969 42.5915 11.7446C45.0043 11.8169 46.9678 13.944 46.9678 16.4857ZM29.3619 30.7375L25.2731 29.4307C23.4098 28.8336 21.3929 28.7444 19.4855 29.1669L18.9678 29.2817V29.0143C18.9678 27.7689 19.8123 26.6875 21.0199 26.385L26.1935 25.0923V22.2318L25.7428 21.9711C24.3492 21.1654 23.4839 19.6677 23.4839 18.0645V16.2581C23.4839 15.0263 23.9708 13.8743 24.8559 13.0165C25.7402 12.1592 26.9208 11.6969 28.1398 11.7446C30.5527 11.8169 32.5161 13.944 32.5161 16.4857V18.0645C32.5161 19.6677 31.65 21.1654 30.2554 21.9729L29.8039 22.234L29.8073 25.0923L34.9801 26.385C36.1877 26.6875 37.0322 27.7689 37.0322 29.0143V32.3988L36.8091 32.5161H36.2556L30.7027 30.9293C30.2651 30.8054 29.8144 30.7546 29.3619 30.7375ZM19.1702 13.5184C20.8663 10.2319 24.2804 8.12903 28 8.12903C31.6843 8.12903 35.0838 10.2037 36.7927 13.4456C36.3628 14.3078 36.1291 15.2627 36.1291 16.2581V18.0645C36.1291 20.1321 37.1553 22.0721 38.8387 23.247V23.6805L35.2258 24.5851L31.612 23.6805V23.2479C33.2955 22.0731 34.3226 20.1321 34.3226 18.0645V16.4857C34.3226 12.9768 31.5732 10.0404 28.194 9.93813C26.4652 9.88745 24.8352 10.5189 23.5977 11.7203C22.3592 12.9217 21.6774 14.5327 21.6774 16.2581V18.0645C21.6774 20.1321 22.7037 22.0721 24.3871 23.247V23.6805L20.7742 24.5851L17.1605 23.6805V23.2479C18.8438 22.0731 19.8709 20.1321 19.8709 18.0645V16.4857C19.8709 15.4228 19.6152 14.4137 19.1702 13.5184ZM15.0161 8.05582L17.9018 5.17017L20.4417 6.82315L20.9277 6.52502C22.1454 5.77879 23.4614 5.23236 24.8387 4.90291L25.3944 4.76972L26.0228 1.80645H29.978L30.6047 4.76884L31.1605 4.90159C32.5378 5.23147 33.8538 5.77791 35.0715 6.52413L35.5575 6.82227L38.0974 5.16929L40.9795 8.0523L39.955 10.451C39.2577 10.751 38.6112 11.173 38.0484 11.7186C38.0113 11.7547 37.9796 11.7935 37.9435 11.8306C35.8155 8.4479 32.0535 6.32258 28 6.32258C23.9174 6.32258 20.1449 8.46774 18.0222 11.8848C17.4542 11.2903 16.7784 10.8087 16.0296 10.4722L15.0161 8.05582ZM11.7419 25.0923V22.2318L11.2912 21.9711C9.89753 21.1654 9.03226 19.6677 9.03226 18.0645V16.2581C9.03226 15.0263 9.51916 13.8743 10.4043 13.0165C11.2886 12.1592 12.4644 11.6969 13.6882 11.7446C16.101 11.8169 18.0645 13.944 18.0645 16.4857V18.0645C18.0645 19.6677 17.1983 21.1654 15.8038 21.9729L15.3522 22.234L15.3558 25.0923L18.4548 25.8668C17.6518 26.6884 17.1613 27.8002 17.1613 29.0143V29.6835L14.344 30.3096L14.4172 30.0539L14.4516 28.3845L9.68809 25.6056L11.7419 25.0923ZM1.80645 23.4839H2.46491L8.96081 27.2727L5.68309 40.3832L1.80645 39.0905V23.4839ZM9.17868 41.5484L7.40089 40.9561L10.5851 28.2205L12.6452 29.4218V29.6799L9.25454 41.5484H9.17868ZM15.3548 44.1487C15.3548 43.8823 15.4624 43.6212 15.6513 43.4325L17.2389 41.8448C17.4277 41.656 17.6887 41.5484 17.9552 41.5484C18.5135 41.5484 18.9678 42.0026 18.9678 42.561C18.9678 42.8274 18.8601 43.0885 18.6713 43.2773L17.0836 44.865C16.8949 45.0537 16.6339 45.1613 16.3674 45.1613C15.8091 45.1613 15.3548 44.707 15.3548 44.1487ZM18.0645 46.8584C18.0645 46.592 18.1721 46.3309 18.3609 46.1421L19.9486 44.5544C20.1373 44.3657 20.3985 44.2581 20.6648 44.2581C21.2232 44.2581 21.6774 44.7124 21.6774 45.2707C21.6774 45.5371 21.5698 45.7981 21.3811 45.9869L19.7934 47.5746C19.6046 47.7633 19.3435 47.8709 19.0771 47.8709C18.5187 47.8709 18.0645 47.4167 18.0645 46.8584ZM20.7742 49.568C20.7742 49.3017 20.8818 49.0406 21.0706 48.8518L22.6583 47.2641C22.8471 47.0754 23.1081 46.9678 23.3745 46.9678C23.9328 46.9678 24.3871 47.422 24.3871 47.9803C24.3871 48.2467 24.2795 48.5079 24.0907 48.6966L22.503 50.2843C22.3142 50.4731 22.0532 50.5807 21.7868 50.5807C21.2285 50.5807 20.7742 50.1263 20.7742 49.568ZM24.4965 53.2903C23.9381 53.2903 23.4839 52.8361 23.4839 52.2777C23.4839 52.0113 23.5915 51.7503 23.7802 51.5615L25.3679 49.9738C25.5567 49.785 25.8178 49.6774 26.0841 49.6774C26.6426 49.6774 27.0968 50.1317 27.0968 50.69C27.0968 50.9564 26.9892 51.2175 26.8004 51.4062L25.2127 52.9939C25.024 53.1827 24.7628 53.2903 24.4965 53.2903ZM28.8645 54.1935H28.6973C28.467 54.1935 28.2465 54.1097 28.0749 53.9576L27.3993 53.3617L28.0777 52.6835C28.3198 52.4414 28.5076 52.1534 28.6465 51.8442L29.4678 52.5278C29.6825 52.7068 29.8065 52.9706 29.8065 53.2515C29.8065 53.771 29.3839 54.1935 28.8645 54.1935ZM36.9644 46.0645H36.8082C36.5815 46.0645 36.3601 45.9842 36.1868 45.8387L31.2888 41.757L30.1315 43.1454L34.888 47.1084C35.1019 47.2875 35.2258 47.5512 35.2258 47.8321C35.2258 48.3517 34.8033 48.7742 34.2838 48.7742H34.0866C33.8674 48.7742 33.6531 48.6966 33.4842 48.5555L28.5782 44.4675L27.421 45.8559L32.1774 49.8195C32.3922 49.9972 32.5161 50.2609 32.5161 50.5419C32.5161 51.0614 32.0936 51.4839 31.5741 51.4839C31.2275 51.4839 30.8896 51.3609 30.6237 51.1399L28.6077 49.4596C28.1636 48.5519 27.2511 47.919 26.1825 47.8811C26.1304 46.4077 24.9463 45.2235 23.4729 45.1715C23.4208 43.6979 22.2367 42.5138 20.7632 42.4617C20.7103 40.9539 19.4754 39.742 17.9552 39.742C17.2129 39.742 16.4865 40.0427 15.9617 40.5675L14.374 42.1552C14.2792 42.25 14.2007 42.3577 14.1209 42.4644L11.3463 40.7995L13.7786 32.2868L19.8763 30.931C21.4759 30.5734 23.1623 30.651 24.7223 31.1503L26.0529 31.5759L21.542 33.8313C20.5113 34.3477 19.8709 35.3845 19.8709 36.5374V36.716C19.8709 38.3845 21.2285 39.742 22.8969 39.742C23.4451 39.742 23.9844 39.5928 24.4532 39.3101L27.8165 37.2934C28.4921 36.8885 29.399 36.9772 29.9824 37.502L37.614 44.3701C37.8182 44.5553 37.9355 44.8182 37.9355 45.0933C37.9355 45.6293 37.5002 46.0645 36.9644 46.0645ZM54.1935 35.5707L38.9767 43.1797C38.9274 43.1273 38.8758 43.0774 38.8215 43.0289L31.1913 36.1608C30.5227 35.5575 29.6583 35.2258 28.7577 35.2258C28.0992 35.2258 27.4527 35.4049 26.8864 35.7444L23.5218 37.7622C23.3331 37.876 23.1174 37.9355 22.8969 37.9355C22.2239 37.9355 21.6774 37.3891 21.6774 36.716V36.5374C21.6774 36.0721 21.9359 35.6549 22.3513 35.4472L27.3896 32.9281C28.2518 32.4962 29.2755 32.3997 30.2047 32.6669L35.8807 34.2881L37.2554 34.3226L54.1935 25.4077V35.5707Z" fill="#F47629"></path></g><defs><clipPath id="clip0_798_13395"><rect width="56" height="56" fill="white"></rect></clipPath></defs></svg>