<svg xmlns="http://www.w3.org/2000/svg" width="56" height="56" viewBox="0 0 56 56" fill="none"><g clip-path="url(#clip0_798_13398)"><path d="M3.03009 30.2505H12.4678C14.1422 30.2505 15.5063 31.6146 15.5063 33.2763V48.307C15.5063 52.5481 12.0338 56.0083 7.80497 56.0083H3.03009C1.36847 56.0083 0.00390625 54.6442 0.00390625 52.9703V33.2763C0.00434375 31.6146 1.36847 30.2505 3.03009 30.2505ZM12.4678 31.9988H3.03009C2.33578 31.9988 1.75303 32.5697 1.75303 33.2763V52.9703C1.75303 53.6769 2.33578 54.2597 3.03009 54.2597H7.80497C11.0788 54.2597 13.7453 51.5813 13.7453 48.3075V33.2763C13.7453 32.5693 13.1748 31.9988 12.4678 31.9988Z" fill="#F47629"></path><path d="M17.4284 30.3002L21.831 27.8572C22.2527 27.2002 22.4636 26.4437 22.513 25.5135C22.5874 24.4098 22.4509 23.0578 22.2033 21.3591C21.9802 19.8956 22.5008 18.6553 23.3815 17.8744C23.8404 17.4775 24.3737 17.1923 24.9687 17.0681C25.5515 16.9315 26.1719 16.9442 26.804 17.1302C28.0938 17.5148 29.3463 18.6309 30.0779 20.7268C30.7227 22.5748 31.0452 24.3481 31.1196 26.1217C31.1817 27.5606 31.0823 28.9865 30.8592 30.4498H39.8136C41.413 30.4498 43.0379 31.1192 44.1789 32.248C45.3199 33.3763 45.9276 34.8774 45.7172 36.4892L43.9807 49.3744C43.559 52.4495 41.3269 53.8264 38.3628 53.8264H33.7122H21.5335C19.388 53.8264 17.4411 52.9589 16.0393 51.5449C14.6258 50.1435 13.7451 48.1962 13.7451 46.0507V34.9754C13.7451 33.7102 14.2163 32.78 14.9605 32.0235C15.6307 31.3419 16.4983 30.8208 17.4284 30.3002ZM40.297 39.6509C40.7804 39.6509 41.165 40.0478 41.165 40.5316C41.165 41.0155 40.7804 41.3996 40.297 41.3996H30.934V43.6938H39.7641C40.2476 43.6938 40.6448 44.078 40.6448 44.5615C40.6448 45.0453 40.248 45.4422 39.7641 45.4422H30.934V47.7242H37.3456C37.829 47.7242 38.2136 48.1209 38.2136 48.6049C38.2136 49.0887 37.829 49.4729 37.3456 49.4729H30.9463C30.9835 50.1675 31.2814 50.7998 31.7526 51.2587C32.261 51.7671 32.9553 52.0772 33.7122 52.0772H38.3628C40.4335 52.0772 41.9468 51.3331 42.2443 49.1377L43.993 36.2528C44.0796 35.5331 43.9063 34.8388 43.5463 34.2435C43.2733 35.5831 42.1699 36.8107 40.7809 36.8107H33.7122C32.9557 36.8107 32.2614 37.1205 31.7526 37.6165C31.2438 38.1254 30.934 38.8197 30.934 39.5762V39.6505L40.297 39.6509ZM30.1404 52.0772C29.5454 51.3082 29.1853 50.3535 29.1853 49.3119V39.5765C29.1853 38.3362 29.6937 37.2079 30.5123 36.3894C31.3309 35.5585 32.4719 35.0498 33.7117 35.0498H40.7804C41.4629 35.0498 42.0085 33.9959 41.8221 33.3505C41.7477 33.053 41.5373 32.7305 41.165 32.4204C40.7183 32.2716 40.272 32.1972 39.8131 32.1972H30.4751C29.3836 35.657 27.5977 39.9109 24.3733 41.6718C23.952 41.8953 23.4182 41.7462 23.1829 41.3244C22.9597 40.9031 23.1085 40.3693 23.5425 40.1339C27.6099 37.9141 29.5572 30.659 29.3709 26.1948C29.3087 24.5825 29.0117 22.9704 28.4289 21.3088C27.9079 19.8082 27.1016 19.039 26.3079 18.8036C25.9728 18.7043 25.6508 18.6921 25.3529 18.7665C25.0427 18.8285 24.7697 18.9768 24.5466 19.1755C24.0753 19.5972 23.8023 20.2671 23.9266 21.0978C24.1996 22.9082 24.3483 24.3717 24.2617 25.6242C24.1996 26.5295 23.7284 28.7865 22.8604 29.2699L18.2842 31.8249C17.4656 32.2838 16.7214 32.7178 16.213 33.2385C15.779 33.6852 15.506 34.2308 15.506 34.9749V46.0494C15.506 47.711 16.1759 49.2116 17.267 50.3032C18.3581 51.4065 19.8714 52.0769 21.533 52.0769L30.1404 52.0772Z" fill="#F47629"></path><path d="M47.9979 6.58804L50.1801 11.2138L55.2398 11.8586C55.7111 11.9208 56.0584 12.3548 55.9963 12.8381C55.9714 13.0491 55.8725 13.2228 55.7233 13.3588L52.0151 16.8561L52.9574 21.8787C53.0445 22.3498 52.7343 22.8088 52.2631 22.8955C52.0395 22.9453 51.8291 22.8955 51.6431 22.7838L47.2034 20.3531L42.7265 22.8088C42.3048 23.0319 41.7714 22.8831 41.5361 22.4618C41.4368 22.2759 41.4118 22.0773 41.4494 21.8787L42.3918 16.8561L38.6835 13.3588C38.1253 12.8381 38.46 11.9081 39.2168 11.8581L44.2271 11.2133L46.4094 6.58761C46.6202 6.15361 47.1413 5.96767 47.5753 6.1781C47.7621 6.2656 47.9108 6.41436 47.9979 6.58804ZM48.8038 12.3919L47.2043 9.0061L45.6048 12.3919C45.4805 12.6522 45.2325 12.8386 44.9223 12.8754L41.2268 13.3588L43.9428 15.9134C44.1531 16.112 44.2529 16.4095 44.2031 16.7197L43.5088 20.3908L46.7825 18.5926C47.0306 18.4561 47.3531 18.4438 47.6261 18.5926L50.8998 20.3908L50.2051 16.7197C50.1557 16.4344 50.2428 16.1365 50.4658 15.9134L53.1941 13.3588L49.5231 12.8876C49.2255 12.8631 48.9403 12.6771 48.8038 12.3919Z" fill="#F47629"></path><path d="M46.448 24.9299C46.56 24.4588 47.0312 24.1612 47.4902 24.2728C47.9613 24.3844 48.2589 24.856 48.1473 25.3145C47.9491 26.1825 47.7006 27.0133 47.4031 27.8196C47.1056 28.6382 46.746 29.4318 46.3365 30.2128C46.1134 30.6345 45.5923 30.8082 45.171 30.5851C44.737 30.3619 44.5756 29.8286 44.7987 29.4073C45.1583 28.7125 45.4807 27.9811 45.766 27.2246C46.0386 26.4682 46.2748 25.7118 46.448 24.9299ZM28.8999 1.83825V9.89922C30.9466 9.79982 32.8934 9.39083 34.7165 8.69605C34.828 8.65887 34.9396 8.60943 35.0639 8.55955C34.2947 6.71155 33.3646 5.14925 32.3107 3.98375C31.269 2.84318 30.1153 2.08675 28.8999 1.83825ZM28.8999 11.6483V13.0002C28.8999 13.4836 28.5036 13.8804 28.0319 13.8804C27.5485 13.8804 27.1513 13.4836 27.1513 13.0002V11.6483C24.8942 11.549 22.7364 11.0901 20.7274 10.3336C20.6159 10.2842 20.5043 10.247 20.3923 10.2098C19.4744 12.9752 18.9166 16.2495 18.8296 19.7836H19.5615C20.0449 19.7836 20.4295 20.1804 20.4295 20.6643C20.4295 21.1482 20.0454 21.5323 19.5615 21.5323H18.8296C18.8418 22.1155 18.8667 22.6733 18.9039 23.2188C18.966 24.0868 19.0527 24.9177 19.1642 25.724C19.2264 26.1952 18.8912 26.6418 18.42 26.7035C17.9366 26.7657 17.5022 26.4305 17.44 25.9594C17.3162 25.0914 17.2292 24.2229 17.167 23.3427C17.1299 22.735 17.0927 22.1395 17.0804 21.5319H9.14418C9.16912 22.2139 9.2308 22.8838 9.34241 23.5408C9.47886 24.4959 9.70202 25.4261 9.98725 26.3312C10.1237 26.7902 9.8634 27.2736 9.40448 27.4228C8.94556 27.5593 8.46212 27.3112 8.31293 26.8523C8.00318 25.8601 7.76736 24.8433 7.60593 23.7894C7.44449 22.7726 7.37012 21.7182 7.37012 20.6643C7.37012 14.9593 9.67664 9.78806 13.422 6.05531C17.1557 2.32211 22.3269 0.00292969 28.0319 0.00292969C30.8844 0.00292969 33.6127 0.58568 36.0929 1.64005C38.6601 2.73118 40.9666 4.33111 42.8767 6.31561C43.2114 6.66255 43.2114 7.20855 42.8645 7.54325C42.5171 7.87837 41.9593 7.86568 41.6242 7.51831C41.4509 7.34461 41.2768 7.17093 41.0909 6.99768C39.9249 7.96499 38.6352 8.79581 37.2584 9.49014C37.3332 9.70098 37.4076 9.91182 37.4692 10.1228C37.6057 10.5817 37.3577 11.0778 36.8865 11.2143C36.4276 11.3508 35.9441 11.1028 35.7949 10.6311C35.7577 10.4946 35.7083 10.3458 35.6584 10.1971C35.5469 10.2465 35.4353 10.2838 35.336 10.3336C33.3147 11.0901 31.157 11.5485 28.8999 11.6483ZM27.1513 9.89922V1.83825C25.0679 2.27225 23.1455 4.18237 21.6825 7.07161C21.4344 7.54281 21.2113 8.03893 21.0004 8.55955C21.112 8.60943 21.2236 8.65887 21.3351 8.69605C23.1582 9.39083 25.105 9.80029 27.1513 9.89922ZM38.6474 19.7836C39.1313 19.7836 39.5281 20.1804 39.5281 20.6643C39.5281 21.1482 39.1317 21.5323 38.6474 21.5323H32.7447C32.2612 21.5323 31.8767 21.1482 31.8767 20.6643C31.8767 20.1804 32.2612 19.7836 32.7447 19.7836H38.6474ZM9.14418 19.7836H17.0813C17.1679 16.001 17.7883 12.4664 18.7928 9.47782C17.4164 8.79581 16.1389 7.96499 14.9607 6.99768C14.8614 7.09699 14.7621 7.19631 14.6628 7.29518C11.4262 10.5195 9.3677 14.9098 9.14418 19.7836ZM16.2877 5.83175C17.255 6.60043 18.2967 7.27025 19.4005 7.84075C19.6363 7.29518 19.8717 6.77411 20.1197 6.27843C20.8884 4.77781 21.7691 3.50031 22.7487 2.49581C20.3678 3.19011 18.1851 4.33111 16.2877 5.83175ZM36.6507 7.84075C37.7545 7.27025 38.7962 6.60087 39.7635 5.83175C38.4366 4.79005 36.9731 3.90937 35.4104 3.25225C34.7283 2.95431 34.0213 2.70625 33.3025 2.49581C33.4018 2.60737 33.5007 2.70668 33.6004 2.81825C34.7782 4.12025 35.8076 5.81949 36.6507 7.84075ZM37.1595 22.896C37.1967 22.4248 37.6062 22.0529 38.0896 22.0774C38.5608 22.1024 38.9331 22.5241 38.9082 23.0075C38.8587 23.8012 38.7843 24.5703 38.6977 25.3141C38.6107 26.0705 38.4991 26.8269 38.3504 27.5711C38.2637 28.0423 37.817 28.3643 37.3459 28.2781C36.8624 28.1911 36.5522 27.7321 36.6389 27.2609C36.7627 26.5788 36.8747 25.8596 36.9613 25.1154C37.0479 24.3844 37.1223 23.6406 37.1595 22.896Z" fill="#F47629"></path><path d="M9.00636 48.2816C9.00636 47.7981 9.39093 47.4141 9.8744 47.4141C10.3578 47.4141 10.755 47.7981 10.755 48.2816C10.755 50.1423 9.24217 51.6551 7.38192 51.6551C5.52167 51.6551 4.00879 50.1423 4.00879 48.2816C4.00879 47.7981 4.40561 47.4141 4.88948 47.4141C5.37336 47.4141 5.77017 47.7981 5.77017 48.2816C5.77017 49.1868 6.48942 49.9064 7.38236 49.9064C8.27529 49.9064 9.00636 49.1872 9.00636 48.2816Z" fill="#F47629"></path></g><defs><clipPath id="clip0_798_13398"><rect width="56" height="56" fill="white"></rect></clipPath></defs></svg>