<svg xmlns="http://www.w3.org/2000/svg" width="60" height="60" viewBox="0 0 60 60" fill="none"><g clip-path="url(#clip0_798_12641)"><mask id="mask0_798_12641" style="mask-type:luminance" maskUnits="userSpaceOnUse" x="0" y="0" width="60" height="60"><path d="M60 0H0V60H60V0Z" fill="white"></path></mask><g mask="url(#mask0_798_12641)"><path d="M12.5391 22.2657C12.5391 31.9584 20.4246 39.8438 30.1173 39.8438C39.81 39.8438 47.6954 31.9584 47.6954 22.2657C47.6954 12.5729 39.81 4.6875 30.1173 4.6875C20.4246 4.6875 12.5391 12.5729 12.5391 22.2657ZM30.1173 7.03125C38.5177 7.03125 45.3517 13.8652 45.3517 22.2657C45.3517 30.6661 38.5177 37.5 30.1173 37.5C21.7168 37.5 14.8829 30.6661 14.8829 22.2657C14.8829 13.8652 21.7168 7.03125 30.1173 7.03125Z" fill="#F47629"></path><path d="M19.2645 20.1763L23.8068 24.6518L22.7618 30.942C22.689 31.3801 22.8698 31.8214 23.2292 32.0823C23.588 32.3432 24.0637 32.3785 24.4578 32.1743L30.1171 29.2354L35.776 32.1743C36.1669 32.3771 36.6426 32.3455 37.0047 32.0823C37.364 31.8214 37.5448 31.3801 37.472 30.942L36.427 24.6518L40.9694 20.1763C41.2857 19.865 41.3987 19.4017 41.2614 18.9792C41.1241 18.5572 40.7602 18.2491 40.3212 18.1827L34.0173 17.2338L31.165 11.5296C30.9667 11.1327 30.5607 10.8818 30.1171 10.8818C29.6731 10.8818 29.2675 11.1327 29.0689 11.5296L26.2165 17.2338L19.9126 18.1827C19.4737 18.2486 19.1097 18.5572 18.9724 18.9792C18.8351 19.4017 18.9486 19.865 19.2645 20.1763ZM27.1673 19.4608C27.5445 19.404 27.8704 19.1674 28.0412 18.8263L30.1171 14.674L32.1931 18.8263C32.3638 19.1674 32.6898 19.404 33.067 19.4608L37.6551 20.1516L34.3487 23.4086C34.0773 23.6763 33.9527 24.0595 34.015 24.4358L34.7758 29.0139L30.6568 26.8752C30.4879 26.7873 30.3025 26.7434 30.1171 26.7434C29.9317 26.7434 29.7463 26.7873 29.577 26.8752L25.458 29.0139L26.2188 24.4358C26.2815 24.0595 26.157 23.6763 25.8851 23.4086L22.5791 20.1516L27.1673 19.4608Z" fill="#F47629"></path><path d="M31.2891 1.17188C31.2891 1.81916 30.7645 2.34375 30.1172 2.34375C29.4699 2.34375 28.9453 1.81916 28.9453 1.17188C28.9453 0.524598 29.4699 0 30.1172 0C30.7645 0 31.2891 0.524598 31.2891 1.17188Z" fill="#F47629"></path><path d="M24.5943 0.690557C14.7364 3.20689 7.85156 12.0788 7.85156 22.2654C7.85156 28.5922 10.5117 34.5537 15.1813 38.7756L8.12118 51.2181C7.89413 51.6187 7.92251 52.1149 8.19351 52.4866C8.46451 52.8588 8.92777 53.0377 9.37866 52.9439L17.3964 51.279L20.2144 59.2199C20.3673 59.652 20.7587 59.9546 21.2156 59.9953C21.6724 60.036 22.1105 59.8058 22.3371 59.4071L30.1173 45.7291L37.897 59.4071C38.1066 59.7756 38.4966 59.9994 38.915 59.9994C38.9494 59.9994 38.9842 59.9981 39.0185 59.9953C39.4753 59.9546 39.8667 59.6515 40.0201 59.2199L42.8376 51.279L50.8554 52.9439C51.3058 53.0373 51.7695 52.8583 52.0405 52.4866C52.312 52.1149 52.3399 51.6187 52.1128 51.2181L45.0527 38.7756C49.7224 34.5537 52.3825 28.5922 52.3825 22.2654C52.3825 12.0788 45.4977 3.20689 35.6402 0.690557C35.0126 0.53034 34.3749 0.908911 34.2147 1.53605C34.0545 2.16319 34.4331 2.80131 35.0602 2.96153C43.8795 5.21281 50.0392 13.1509 50.0392 22.2654C50.0392 33.3585 41.0299 42.1874 30.1173 42.1874C19.1968 42.1874 10.1954 33.3511 10.1954 22.2654C10.1954 13.1509 16.3546 5.21281 25.1739 2.96153C25.801 2.80131 26.1796 2.16319 26.0198 1.53605C25.8596 0.908911 25.2219 0.53034 24.5943 0.690557ZM21.5667 56.0219L19.2637 49.5322C19.0677 48.9801 18.4946 48.6574 17.921 48.7764L11.4377 50.1227L17.0252 40.2753C20.2831 42.6437 24.1407 44.0866 28.1521 44.4437L21.5667 56.0219ZM42.313 48.7764C41.7399 48.6574 41.1663 48.9801 40.9704 49.5322L38.6678 56.0219L32.082 44.4437C36.0938 44.0866 39.951 42.6437 43.2093 40.2753L48.7968 50.1227L42.313 48.7764Z" fill="#F47629"></path></g></g><defs><clipPath id="clip0_798_12641"><rect width="60" height="60" fill="white"></rect></clipPath></defs></svg>