<svg xmlns="http://www.w3.org/2000/svg" width="48" height="48" viewBox="0 0 48 48" fill="none"><path d="M12.9474 34.2964C12.9474 33.9406 13.0776 33.6051 13.3343 33.2991C13.667 32.9024 13.6152 32.311 13.2186 31.9783C12.8219 31.6456 12.2305 31.6973 11.8978 32.094C10.7656 33.4436 10.8113 35.4796 12.0522 36.7463C12.6433 37.3497 12.6433 38.4152 12.0522 39.0186C11.4112 39.6729 11.0723 40.5201 11.0723 41.4685C11.0723 41.9863 11.492 42.406 12.0098 42.406C12.5275 42.406 12.9473 41.9863 12.9473 41.4685C12.9473 41.008 13.0926 40.6359 13.3915 40.3308C14.6883 39.007 14.6883 36.758 13.3915 35.4342C13.0969 35.1332 12.9474 34.7504 12.9474 34.2964Z" fill="#F47629"></path><path d="M21.082 34.2962C21.082 33.9404 21.2122 33.6048 21.4688 33.2988C21.8017 32.9022 21.7499 32.3108 21.3533 31.9781C20.9566 31.6453 20.3653 31.6971 20.0325 32.0938C18.9003 33.4433 18.946 35.4795 20.1869 36.7461C20.778 37.3495 20.778 38.415 20.1869 39.0184C19.5458 39.6727 19.207 40.5199 19.207 41.4683C19.207 41.9861 19.6267 42.4058 20.1445 42.4058C20.6623 42.4058 21.082 41.9861 21.082 41.4683C21.082 41.0078 21.2273 40.6357 21.5263 40.3306C22.8231 39.0068 22.8231 36.7578 21.5263 35.434C21.2315 35.1331 21.082 34.7503 21.082 34.2962Z" fill="#F47629"></path><path d="M29.2168 34.2963C29.2168 33.9406 29.347 33.605 29.6036 33.2991C29.9365 32.9026 29.8847 32.3112 29.4881 31.9784C29.0916 31.6457 28.5001 31.6972 28.1674 32.094C27.035 33.4435 27.0807 35.4797 28.3217 36.7463C28.9127 37.3498 28.9128 38.4152 28.3217 39.0186C27.6806 39.6729 27.3418 40.5201 27.3418 41.4685C27.3418 41.9863 27.7616 42.406 28.2793 42.406C28.797 42.406 29.2168 41.9863 29.2168 41.4685C29.2168 41.008 29.3621 40.6359 29.6611 40.3307C30.2929 39.6857 30.6409 38.8161 30.6409 37.8824C30.6409 36.9486 30.2929 36.0792 29.6611 35.4341C29.3663 35.1332 29.2168 34.7504 29.2168 34.2963Z" fill="#F47629"></path><path d="M46.3857 28.9296L45.284 26.9895C44.7708 26.086 44.4997 25.0592 44.4997 24.0202V20.7564C44.4997 20.2387 44.0798 19.8189 43.5622 19.8189H43.2243V9.07247C43.2243 8.92238 43.2691 8.77753 43.3537 8.65369L44.4323 7.07616C44.9332 6.34331 45.0292 5.41631 44.6889 4.59656L43.0221 0.57825C42.8769 0.228188 42.5352 0 42.1562 0H38.3429C37.9639 0 37.6222 0.228188 37.477 0.57825L35.8102 4.59647C35.6838 4.90087 35.6179 5.22019 35.6103 5.53875H26.6144C26.0967 5.53875 25.6769 5.95847 25.6769 6.47625C25.6769 6.99403 26.0967 7.41375 26.6144 7.41375H36.2975L37.1453 8.65397C37.2253 8.77069 37.2748 8.931 37.2748 9.07247V19.8188L2.46084 19.8187V18.8419C2.46084 13.4548 2.62341 11.6873 2.96503 9.96553L3.38128 7.86994C3.43378 7.60556 3.66759 7.41375 3.93741 7.41375H18.3683C18.8861 7.41375 19.3058 6.99403 19.3058 6.47625C19.3058 5.95847 18.8861 5.53875 18.3683 5.53875H3.93741C2.77556 5.53875 1.76831 6.36572 1.54228 7.50488L1.12603 9.60037C0.760031 11.4448 0.585938 13.2982 0.585938 18.8419V26.1375C0.585938 26.6553 1.00566 27.075 1.52344 27.075H5.31469V29.1159C5.31469 29.6337 5.73441 30.0534 6.25219 30.0534H33.5883C33.2571 30.9368 33.0846 31.8769 33.0846 32.8249V40.9093C33.0846 42.6397 33.6656 44.3479 34.7208 45.7193L36.1941 47.6342C36.3716 47.8648 36.646 48 36.9371 48H43.5623C43.8533 48 44.1278 47.8648 44.3054 47.6342L45.7787 45.7193C46.8338 44.348 47.4149 42.6397 47.4149 40.9093V32.8249C47.4147 31.4617 47.0589 30.1148 46.3857 28.9296ZM37.5419 5.31497L38.969 1.875H41.5301L42.9572 5.31506C43.0536 5.54747 43.0264 5.81025 42.8844 6.018L41.8058 7.59553C41.5072 8.03241 41.3494 8.54316 41.3494 9.07247V19.8188H39.1499V9.07219C39.1499 8.55009 38.988 8.02659 38.6932 7.59553L37.6148 6.01809C37.4727 5.81025 37.4455 5.54747 37.5419 5.31497ZM2.46084 21.6938H35.9994V23.8031H7.64897C6.73312 23.8031 5.88009 24.3621 5.51119 25.2H2.46084V21.6938ZM7.18959 26.1375C7.18959 25.8842 7.39566 25.6781 7.64897 25.6781H35.7653C35.5067 26.5783 34.9987 27.3706 34.5399 28.1784H7.18959V26.1375ZM45.5397 40.9093C45.5397 42.2284 45.0967 43.5305 44.2924 44.576L43.1005 46.125H37.3986L36.2067 44.576C35.4023 43.5305 34.9594 42.2283 34.9594 40.9093V32.8249C34.9594 31.6508 35.3296 30.5899 35.9011 29.5788C35.9011 29.5788 36.8006 28.0118 36.9757 27.6747C37.5606 26.5486 37.8749 25.2896 37.8749 24.0198V21.6939H42.6247V24.0202C42.6247 25.3833 42.9804 26.7303 43.6537 27.9155L44.7554 29.8555C45.2686 30.759 45.5397 31.7858 45.5397 32.8249V40.9093Z" fill="#F47629"></path><path d="M38.2129 30.9077C37.6952 30.9077 37.2754 31.3274 37.2754 31.8452V41.3192C37.2754 41.837 37.6952 42.2567 38.2129 42.2567C38.7306 42.2567 39.1504 41.837 39.1504 41.3192V31.8452C39.1504 31.3274 38.7306 30.9077 38.2129 30.9077Z" fill="#F47629"></path><path d="M42.2871 30.9077C41.7694 30.9077 41.3496 31.3274 41.3496 31.8452V41.3192C41.3496 41.837 41.7694 42.2567 42.2871 42.2567C42.8048 42.2567 43.2246 41.837 43.2246 41.3192V31.8452C43.2246 31.3274 42.8048 30.9077 42.2871 30.9077Z" fill="#F47629"></path><path d="M6.09375 9.69385C5.57597 9.69385 5.15625 10.1136 5.15625 10.6313C5.15625 11.1491 5.57597 11.5688 6.09375 11.5688H9.05109C9.56888 11.5688 9.98859 11.1491 9.98859 10.6313C9.98859 10.1136 9.56888 9.69385 9.05109 9.69385H6.09375Z" fill="#F47629"></path><path d="M22.543 17.0258C24.5644 17.0258 26.209 15.3813 26.209 13.3598C26.209 11.3384 24.5644 9.69385 22.543 9.69385C20.5215 9.69385 18.877 11.3384 18.877 13.3598C18.877 15.3813 20.5215 17.0258 22.543 17.0258ZM22.543 11.5688C23.5305 11.5688 24.334 12.3723 24.334 13.3598C24.334 14.3474 23.5305 15.1508 22.543 15.1508C21.5554 15.1508 20.752 14.3474 20.752 13.3598C20.752 12.3723 21.5554 11.5688 22.543 11.5688Z" fill="#F47629"></path><path d="M21.7693 6.83448C21.9205 7.2031 22.306 7.4416 22.7035 7.41085C23.1109 7.37935 23.4587 7.08095 23.5485 6.68157C23.7326 5.86304 22.7828 5.23013 22.0954 5.71051C21.7408 5.9582 21.603 6.4352 21.7693 6.83448Z" fill="#F47629"></path></svg>