<svg xmlns="http://www.w3.org/2000/svg" width="48" height="48" viewBox="0 0 48 48" fill="none"><g clip-path="url(#clip0_897_12326)"><path d="M15.8444 28.2642C22.6934 28.2642 28.2654 22.6921 28.2654 15.8431C27.583 -0.635016 4.10317 -0.630234 3.42334 15.8432C3.42334 22.6921 8.99537 28.2642 15.8444 28.2642ZM15.8444 4.82827C21.918 4.82827 26.8592 9.76949 26.8592 15.8431C26.2542 30.4559 5.43227 30.4516 4.82949 15.843C4.82949 9.76949 9.77072 4.82827 15.8444 4.82827Z" fill="#F47629"></path><path d="M47.9982 39.9291V35.4418L46.5208 33.6963V31.166H46.5207V28.3269L47.6015 27.3483L46.1785 20.3424H44.4041V3.51538C44.4041 1.57695 42.8271 0 40.8887 0H6.94974V1.40615H40.8887C42.0517 1.40615 42.9979 2.3524 42.9979 3.51538V20.3424H42.2509L40.8278 27.3482L41.9086 28.3268V30.0154C41.5983 30.1883 41.2513 30.2791 40.8886 30.2791H38.6507C41.0617 27.3521 40.0315 22.5905 36.5281 21.0212C36.5282 21.0212 35.5248 20.5474 35.5248 20.5474L35.5256 25.0148L32.3527 25.0143L32.3518 20.5476L31.3488 21.0212C27.8456 22.5897 26.8154 27.3542 29.2274 30.2791H3.51685C2.35387 30.2791 1.40762 29.3328 1.40762 28.1699V3.51529C1.40762 2.35231 2.35387 1.40606 3.51685 1.40606H5.54359V0H3.51685C1.57842 0 0.00146484 1.57695 0.00146484 3.51538V28.17C0.00146484 30.1084 1.57842 31.6853 3.51685 31.6853H4.84023V35.4351H13.7459V31.6853H30.8564C30.8865 31.7031 30.9161 31.7211 30.9466 31.7383V45.0061C30.9466 45.805 31.2577 46.5562 31.8195 47.1182C32.687 48.0011 33.9563 48.2301 35.0763 47.7639C36.2237 47.2912 36.9348 46.2339 36.9318 45.0061L36.931 31.7391C36.9619 31.7216 36.9921 31.7032 37.0226 31.6853H40.8886C41.2395 31.6853 41.5818 31.6344 41.9085 31.5355V33.6963L40.4311 35.4418V44.2131C40.4311 46.2994 42.1283 47.9966 44.2145 47.9966C46.2467 48.0387 48.0403 46.2454 47.998 44.213V41.3352H46.5918V44.213C46.5918 44.8475 46.3444 45.4443 45.895 45.8936C44.4153 47.3864 41.8323 46.315 41.8372 44.213V35.957L43.3146 34.2114V32.5722H45.1144V34.2115L46.5918 35.957V39.9291H47.9982ZM12.3397 34.0289H6.24638V31.6853H12.3397V34.0289ZM35.9279 30.6762L35.5249 30.8663L35.5258 45.0078C35.518 46.4155 33.8131 47.1178 32.8172 46.1272C32.5177 45.8277 32.3528 45.4296 32.3528 45.0062V30.8655C29.0157 29.5979 28.2476 25.2369 30.9462 22.9345L30.9468 26.4204L36.9322 26.4214L36.9315 22.9349C39.4683 25.0181 38.9524 29.3088 35.9279 30.6762ZM43.4002 21.7485H45.0292L46.0641 26.8435L45.1145 27.7033V31.1658H43.3149V27.7033L42.3653 26.8435L43.4002 21.7485Z" fill="#F47629"></path><path d="M8.47126 15.1749C9.26649 16.0034 10.6955 16.0034 11.4907 15.1749C11.9428 14.7226 12.6242 15.0295 13.1354 15.3858C13.1086 15.5489 13.0935 15.7172 13.098 15.8853C11.4751 16.7301 9.17753 18.1876 8.97195 19.7524C8.62238 22.0062 10.7037 24.0871 12.9812 24.068C13.8263 24.068 14.6136 23.7782 15.1759 23.2159C16.0043 22.4207 16.0046 20.9917 15.1759 20.1964C14.7238 19.7444 15.0305 19.063 15.3868 18.5518C15.5499 18.5786 15.7182 18.5937 15.8864 18.5892C16.8508 20.3746 18.3091 22.8324 20.2267 22.7463C21.6443 22.7462 22.9474 21.9086 23.6327 20.5183C24.6112 18.6171 23.9068 15.9672 21.7076 15.8857C21.1373 15.8856 20.6009 16.1078 20.1975 16.5113C19.7455 16.9636 19.064 16.6568 18.5528 16.3003C18.5796 16.1372 18.5947 15.969 18.5902 15.8008C20.2131 14.9561 22.5107 13.4985 22.7163 11.9338C22.9256 10.3382 22.0633 8.81539 20.5194 8.05438C18.6183 7.07616 15.9681 7.78018 15.8868 9.9795C15.8866 10.5497 16.1088 11.086 16.5123 11.4896C16.9644 11.9416 16.6578 12.6231 16.3014 13.1343C16.1383 13.1074 15.97 13.0923 15.8018 13.0968C14.9571 11.474 13.4996 9.1764 11.9348 8.97082C8.70909 8.45907 6.23332 12.8263 8.47126 15.1749ZM14.896 14.8948C15.7344 14.0535 17.1872 14.6553 17.1851 15.8431C17.1999 16.5639 16.565 17.1989 15.8441 17.184C14.6564 17.1861 14.0544 15.7332 14.896 14.8948ZM14.1816 21.1908C14.4658 21.4749 14.4658 21.9373 14.1816 22.2215C13.5674 22.8359 12.538 22.7388 11.7905 22.3703C10.9987 21.9801 10.2087 21.1354 10.3663 19.9353C10.4508 19.2925 11.704 18.2362 13.4943 17.2675C13.6511 17.526 13.8585 17.7664 14.0947 17.961C13.3328 19.188 13.3517 20.3609 14.1816 21.1908ZM21.1918 17.5056C21.4757 17.2213 21.9382 17.2212 22.2225 17.5056C22.8368 18.1198 22.7399 19.149 22.3714 19.8966C21.9811 20.6886 21.1361 21.4794 19.9363 21.3209C19.2935 21.2364 18.2373 19.9832 17.2684 18.1928C17.4545 18.0795 17.6285 17.9435 17.7865 17.7855C17.8482 17.7237 17.9068 17.659 17.962 17.5924C19.1892 18.3543 20.3619 18.3353 21.1918 17.5056ZM17.5066 10.4954C17.2224 10.2112 17.2224 9.74879 17.5066 9.46466C18.1208 8.85036 19.1503 8.94729 19.8977 9.31579C20.6895 9.70605 21.4795 10.5508 21.3219 11.7509C21.2375 12.3937 19.9842 13.4499 18.1939 14.4186C18.0371 14.1602 17.8297 13.9197 17.5935 13.7251C18.3554 12.4981 18.3365 11.3253 17.5066 10.4954ZM9.31683 11.7895C9.70718 10.9977 10.5524 10.2072 11.7519 10.3653C12.3947 10.4497 13.4509 11.703 14.4197 13.4933C14.1612 13.65 13.9207 13.8575 13.7261 14.0936C12.499 13.3319 11.3263 13.3507 10.4964 14.1805C10.2123 14.4648 9.74983 14.4649 9.46569 14.1805C8.85139 13.5663 8.94832 12.537 9.31683 11.7895Z" fill="#F47629"></path><path d="M31.0635 8.25781H40.8886V9.66397H31.0635V8.25781Z" fill="#F47629"></path><path d="M31.0635 11.1641H40.8886V12.5702H31.0635V11.1641Z" fill="#F47629"></path><path d="M31.0635 14.0693H40.8886V15.4755H31.0635V14.0693Z" fill="#F47629"></path><path d="M31.0635 16.9756H40.8886V18.3817H31.0635V16.9756Z" fill="#F47629"></path><path d="M43.5117 37.4717H44.9179V38.8778H43.5117V37.4717Z" fill="#F47629"></path><path d="M43.5117 40.2842H44.9179V41.6903H43.5117V40.2842Z" fill="#F47629"></path></g><defs><clipPath id="clip0_897_12326"><rect width="48" height="48" fill="white"></rect></clipPath></defs></svg>