<svg xmlns="http://www.w3.org/2000/svg" width="48" height="48" viewBox="0 0 48 48" fill="none"><g clip-path="url(#clip0_897_16426)"><path d="M43.1714 0H28.6281C26.5549 0 24.8682 1.6864 24.8682 3.75989V17.2679C24.8682 19.3411 26.5549 21.0275 28.6281 21.0275H43.1714C45.2445 21.0275 46.9313 19.3411 46.9313 17.2679V3.75989C46.9313 1.6864 45.2445 0 43.1714 0ZM45.0563 17.2676C45.0563 18.3069 44.2107 19.1525 43.1714 19.1525H28.6281C27.5887 19.1525 26.7432 18.3069 26.7432 17.2676V3.75989C26.7432 2.72058 27.5887 1.875 28.6281 1.875H43.1714C44.2107 1.875 45.0563 2.72058 45.0563 3.75989V17.2676Z" fill="#F47629"></path><path d="M35.9001 3.88281C32.2439 3.88281 29.2695 6.85754 29.2695 10.5138C29.2695 14.17 32.2439 17.1444 35.9001 17.1444C39.5564 17.1444 42.5311 14.17 42.5311 10.5138C42.5311 6.85754 39.5564 3.88281 35.9001 3.88281ZM35.9001 15.2694C33.2781 15.2694 31.1445 13.1359 31.1445 10.5134C31.1445 7.89136 33.2781 5.75781 35.9001 5.75781C38.5226 5.75781 40.6561 7.89136 40.6561 10.5134C40.6561 13.1359 38.5226 15.2694 35.9001 15.2694Z" fill="#F47629"></path><path d="M33.7197 8.61328C33.2019 8.61328 32.7822 9.03296 32.7822 9.55078V11.4774C32.7822 11.9952 33.2019 12.4149 33.7197 12.4149C34.2375 12.4149 34.6572 11.9952 34.6572 11.4774V9.55078C34.6572 9.03296 34.2375 8.61328 33.7197 8.61328Z" fill="#F47629"></path><path d="M38.0801 8.61328C37.5623 8.61328 37.1426 9.03296 37.1426 9.55078V11.4774C37.1426 11.9952 37.5623 12.4149 38.0801 12.4149C38.5979 12.4149 39.0176 11.9952 39.0176 11.4774V9.55078C39.0176 9.03296 38.5979 8.61328 38.0801 8.61328Z" fill="#F47629"></path><path d="M40.0613 46.1252H28.6659C27.1769 46.1252 25.9655 44.9138 25.9655 43.4248V35.8289C25.9655 33.6155 24.1648 31.8148 21.9514 31.8148C19.738 31.8148 17.9374 33.6155 17.9374 35.8289V43.4006C17.9374 44.9028 16.715 46.1252 15.2128 46.1252C13.7102 46.1252 12.4878 44.9028 12.4878 43.4006V35.5828C13.6564 35.5267 14.5895 34.5585 14.5895 33.3763V32.3802H14.6349C17.4899 32.3802 19.8124 30.0577 19.8124 27.2028V21.4115H20.9594C21.5197 21.4115 21.9756 20.9556 21.9756 20.3949V18.614C21.9756 17.1781 20.8074 16.0099 19.3715 16.0099H17.5818V9.08777C17.5818 7.74597 16.4901 6.6543 15.1483 6.6543C13.8065 6.6543 12.7145 7.74597 12.7145 9.08777V16.0099H10.3861V9.08777C10.3861 7.74597 9.29443 6.6543 7.95227 6.6543C6.61047 6.6543 5.5188 7.74597 5.5188 9.08777V16.0099H3.72913C2.29321 16.0099 1.125 17.1781 1.125 18.614V20.3949C1.125 20.9556 1.58093 21.4115 2.1416 21.4115H3.28821V27.2028C3.28821 30.0577 5.61108 32.3802 8.4657 32.3802H8.51111V33.3763C8.51111 34.5585 9.44458 35.5267 10.6128 35.5828V43.4006C10.6128 45.937 12.6764 48.0002 15.2128 48.0002C17.7488 48.0002 19.8124 45.9366 19.8124 43.4006V35.8289C19.8124 34.6493 20.7719 33.6898 21.9514 33.6898C23.131 33.6898 24.0905 34.6493 24.0905 35.8289V43.4248C24.0905 45.9476 26.1431 48.0002 28.6659 48.0002H40.0613C40.5791 48.0002 40.9988 47.5806 40.9988 47.0627C40.9988 46.5449 40.5791 46.1252 40.0613 46.1252ZM14.5895 9.08777C14.5895 8.77979 14.8403 8.5293 15.1483 8.5293C15.4563 8.5293 15.7068 8.77979 15.7068 9.08777V16.0099H14.5895V9.08777ZM7.3938 9.08777C7.3938 8.77979 7.64429 8.5293 7.95227 8.5293C8.26025 8.5293 8.51111 8.77979 8.51111 9.08777V16.0099H7.3938V9.08777ZM5.16321 27.2028V21.4115H10.1843C10.7021 21.4115 11.1218 20.9915 11.1218 20.474C11.1218 19.9562 10.7021 19.5365 10.1843 19.5365H3V18.614C3 18.2119 3.32703 17.8849 3.72913 17.8849H19.3718C19.7736 17.8849 20.1006 18.2119 20.1006 18.614V19.5365H17.6843C17.1665 19.5365 16.7468 19.9562 16.7468 20.474C16.7468 20.9915 17.1665 21.4115 17.6843 21.4115H17.9374V27.2028C17.9374 29.0239 16.4561 30.5052 14.6349 30.5052H8.4657C6.6449 30.5052 5.16321 29.0239 5.16321 27.2028ZM10.3861 33.3763V32.3802H12.7145V33.3763C12.7145 33.5605 12.5647 33.7103 12.3809 33.7103H10.7197C10.5359 33.71 10.3861 33.5605 10.3861 33.3763Z" fill="#F47629"></path><path d="M13.9346 21.4111H13.9368C14.4546 21.4111 14.8732 20.9911 14.8732 20.4736C14.8732 19.9558 14.4524 19.5361 13.9346 19.5361C13.4167 19.5361 12.9971 19.9558 12.9971 20.4736C12.9971 20.9911 13.4167 21.4111 13.9346 21.4111Z" fill="#F47629"></path></g><defs><clipPath id="clip0_897_16426"><rect width="48" height="48" fill="white"></rect></clipPath></defs></svg>