<svg xmlns="http://www.w3.org/2000/svg" width="40" height="41" viewBox="0 0 40 41" fill="none"><g clip-path="url(#clip0_798_29882)"><path d="M38.2225 31.2645L31.9344 17.8382C31.7973 17.5451 31.4483 17.419 31.1552 17.5561C30.8622 17.6934 30.7358 18.0423 30.8731 18.3353L37.1611 31.7612C37.4424 32.3627 37.1821 33.0813 36.5808 33.363L24.5248 39.0089C23.9236 39.2906 23.2053 39.0305 22.9235 38.4293L20.6695 33.6151L26.5361 19.4603C26.7896 18.8485 26.7754 18.1531 26.4973 17.5523L23.2883 10.6204L27.4479 11.9364C27.768 12.0375 28.033 12.2696 28.1752 12.574L29.716 15.8626C29.8156 16.0753 30.0267 16.2001 30.247 16.2001C30.3302 16.2001 30.4148 16.1822 30.4952 16.1447C30.7883 16.0074 30.9145 15.6584 30.7772 15.3654L29.2366 12.0773C28.9563 11.4771 28.4329 11.0185 27.8011 10.8189L22.7846 9.23189C23.8189 7.7211 24.9083 5.70086 25.2832 4.7964C26.2661 2.42482 25.4728 1.10591 24.4026 0.662313C23.3324 0.218873 21.8387 0.589891 20.8557 2.96147C20.433 3.98147 20.0451 6.20289 19.7692 8.10861C19.4409 8.129 19.1109 8.19775 18.7895 8.32064L11.1999 11.2205C10.5927 11.4525 10.1017 11.93 9.85275 12.5304L1.73513 32.1169C1.49208 32.7033 1.49192 33.3491 1.73474 33.9356C1.97747 34.5221 2.43412 34.9789 3.02045 35.2219L5.39468 36.2059C5.69367 36.3298 6.03656 36.1879 6.16039 35.8889C6.2843 35.5899 6.14242 35.2471 5.84343 35.1232L3.4692 34.1392C3.17209 34.016 2.9406 33.7845 2.81756 33.4873C2.69451 33.19 2.69459 32.8627 2.81779 32.5656L10.9356 12.9789C11.0618 12.6746 11.3107 12.4325 11.6184 12.315L19.208 9.4151C19.3384 9.36526 19.471 9.32916 19.6042 9.30564C19.5318 9.85604 19.473 10.3374 19.4305 10.6982C19.182 10.7124 18.9359 10.7737 18.7036 10.8825C18.2247 11.1067 17.8618 11.504 17.6818 12.0012C17.5017 12.4985 17.5261 13.036 17.7503 13.5149C18.0865 14.2329 18.8013 14.6549 19.5462 14.6549C19.827 14.6549 20.1121 14.5949 20.3827 14.4682C20.8616 14.244 21.2245 13.8465 21.4046 13.3494C21.5846 12.8521 21.5603 12.3146 21.3361 11.8357C21.1691 11.4792 20.9059 11.1871 20.5772 10.9867C20.6208 10.6136 20.6873 10.0634 20.7716 9.42283C21.2788 9.62049 21.7124 10.0057 21.9562 10.5324L25.4337 18.0444C25.5747 18.3488 25.5818 18.7014 25.4533 19.0114L17.3409 38.5849C17.2178 38.882 16.9863 39.1135 16.689 39.2365C16.3919 39.3597 16.0645 39.3595 15.7673 39.2364L8.51736 36.2316C8.21853 36.1075 7.87555 36.2496 7.75165 36.5485C7.62782 36.8475 7.76962 37.1903 8.0686 37.3143L15.3186 40.319C15.6151 40.4419 15.9226 40.5 16.2253 40.5C17.158 40.5 18.0448 39.9475 18.4235 39.0336L20.0617 35.0811L21.862 38.9263C22.2657 39.7879 23.1238 40.2944 24.0176 40.2944C24.3546 40.2944 24.697 40.2224 25.0218 40.0701L37.0778 34.4242C38.264 33.8684 38.7775 32.4512 38.2225 31.2645ZM20.3027 12.9504C20.2292 13.1532 20.0812 13.3153 19.8857 13.4068C19.4824 13.5957 19.0005 13.4212 18.8116 13.0179C18.7201 12.8226 18.7102 12.6032 18.7837 12.4004C18.8571 12.1975 19.0051 12.0354 19.2005 11.9439C19.3094 11.8928 19.4258 11.8672 19.5426 11.8672C19.6353 11.8672 19.7283 11.8834 19.818 11.9159C20.0209 11.9893 20.183 12.1374 20.2745 12.3328C20.3662 12.5282 20.3762 12.7475 20.3027 12.9504ZM21.7792 8.62634C21.5165 8.45986 21.232 8.33056 20.9345 8.24189C21.1988 6.41321 21.5612 4.32108 21.9387 3.41006C22.2045 2.76842 22.9332 1.322 23.9541 1.7449C24.9749 2.16803 24.4667 3.706 24.2006 4.34757C23.8403 5.21695 22.7779 7.18165 21.7792 8.62634Z" fill="#101111"></path><path d="M12.0628 20.2576C13.3324 19.5819 14.7891 19.4409 16.1647 19.861C18.448 20.558 19.9806 22.6286 19.9784 25.0135C19.9781 25.3371 20.2402 25.5997 20.5639 25.6C20.5641 25.6 20.5642 25.6 20.5644 25.6C20.8878 25.6 21.1502 25.338 21.1505 25.0146C21.1517 23.6386 20.7041 22.2652 19.8902 21.1474C19.0483 19.9912 17.8783 19.1587 16.5068 18.7399C13.0491 17.6845 9.37743 19.6387 8.32203 23.0963C7.8107 24.7713 7.98227 26.5451 8.80516 28.091C9.62798 29.6369 11.0035 30.7699 12.6784 31.2813C13.3044 31.4723 13.9496 31.5672 14.5937 31.5672C15.5096 31.5672 16.4224 31.3752 17.271 30.995C18.702 30.3539 19.8563 29.2234 20.5213 27.8118C20.6593 27.519 20.5337 27.1698 20.241 27.0319C19.9483 26.8939 19.5991 27.0195 19.4612 27.3122C18.3308 29.7117 15.5622 30.9363 13.0207 30.1602C11.6452 29.7404 10.5156 28.8099 9.83978 27.5404C9.16407 26.2708 9.02313 24.814 9.44313 23.4385C9.86282 22.063 10.7934 20.9333 12.0628 20.2576Z" fill="#101111"></path><path d="M16.8466 23.4154C16.7063 23.1518 16.4718 22.9585 16.1861 22.8714L15.9199 22.7901L16.1008 22.1976C16.1952 21.8881 16.0209 21.5605 15.7115 21.466C15.4018 21.3717 15.0744 21.5459 14.9799 21.8553L14.795 22.4613C14.0143 22.3265 13.2346 22.7903 12.9975 23.5673C12.873 23.9752 12.9147 24.4072 13.1151 24.7836C13.3155 25.1601 13.6505 25.4361 14.0583 25.5605L14.796 25.7857C14.9045 25.8188 14.9936 25.8922 15.0469 25.9923C15.1002 26.0924 15.1112 26.2073 15.0781 26.3158C15.045 26.4243 14.9716 26.5133 14.8715 26.5666C14.7714 26.62 14.6566 26.6311 14.548 26.5979L14.1793 26.4853L13.4019 26.248C13.463 25.9548 13.2912 25.658 12.9991 25.5689C12.6894 25.4746 12.362 25.6487 12.2676 25.9583C12.0876 26.5478 12.4208 27.1738 13.0104 27.3539L13.2766 27.4351L13.0958 28.0276C13.0013 28.3372 13.1756 28.6648 13.4851 28.7592C13.5421 28.7766 13.5997 28.7849 13.6563 28.7849C13.9073 28.7849 14.1395 28.6224 14.2166 28.3698L14.4014 27.7645C14.492 27.7803 14.5831 27.7891 14.6741 27.7891C14.9321 27.7891 15.188 27.7259 15.4222 27.6012C15.7986 27.4008 16.0746 27.0658 16.1991 26.658C16.4561 25.8159 15.9802 24.9218 15.1382 24.6647L14.4005 24.4396C14.2921 24.4065 14.203 24.3331 14.1498 24.2329C14.0965 24.1329 14.0853 24.0179 14.1185 23.9094C14.1868 23.6855 14.4244 23.5588 14.6487 23.6273L15.0172 23.7398L15.0174 23.7399H15.0176L15.7947 23.9772C15.7337 24.2703 15.9054 24.5671 16.1975 24.6562C16.507 24.7507 16.8346 24.5764 16.9291 24.2668C17.0162 23.9814 16.9869 23.679 16.8466 23.4154Z" fill="#101111"></path><path d="M34.3412 31.2334L30.5909 23.2639C30.453 22.971 30.1038 22.8453 29.8112 22.9832C29.5184 23.121 29.3928 23.4702 29.5305 23.7629L33.2808 31.7324C33.3807 31.9446 33.5915 32.069 33.8115 32.069C33.895 32.069 33.98 32.0511 34.0605 32.0131C34.3533 31.8753 34.479 31.5262 34.3412 31.2334Z" fill="#101111"></path><path d="M31.7221 32.6347L27.9718 24.6652C27.834 24.3724 27.4847 24.2467 27.1921 24.3845C26.8993 24.5224 26.7736 24.8715 26.9114 25.1642L30.6617 33.1337C30.7616 33.3459 30.9723 33.4704 31.1923 33.4704C31.2759 33.4704 31.3609 33.4524 31.4414 33.4144C31.7342 33.2766 31.8598 32.9275 31.7221 32.6347Z" fill="#101111"></path></g><defs><clipPath id="clip0_798_29882"><rect width="40" height="40" fill="white" transform="translate(0 0.5)"></rect></clipPath></defs></svg>