<svg xmlns="http://www.w3.org/2000/svg" width="40" height="41" viewBox="0 0 40 41" fill="none"><g clip-path="url(#clip0_798_29869)"><path d="M30.548 20.1448H33.3382C33.969 20.1448 34.4822 19.6316 34.4822 19.0009V16.2107C34.4822 15.5799 33.969 15.0667 33.3382 15.0667H30.548C29.9173 15.0667 29.4041 15.5799 29.4041 16.2107V19.0009C29.4041 19.6316 29.9173 20.1448 30.548 20.1448ZM30.5759 16.2386H33.3103V18.973H30.5759V16.2386ZM30.548 27.5667H33.3382C33.969 27.5667 34.4822 27.0535 34.4822 26.4227V23.6326C34.4822 23.0018 33.969 22.4886 33.3382 22.4886H30.548C29.9173 22.4886 29.4041 23.0018 29.4041 23.6326V26.4227C29.4041 27.0535 29.9173 27.5667 30.548 27.5667ZM30.5759 23.6605H33.3103V26.3948H30.5759V23.6605ZM22.5859 20.1448H25.376C26.0068 20.1448 26.52 19.6316 26.52 19.0009V16.2107C26.52 15.5799 26.0068 15.0667 25.376 15.0667H22.5859C21.9551 15.0667 21.4419 15.5799 21.4419 16.2107V19.0009C21.4419 19.6316 21.9551 20.1448 22.5859 20.1448ZM22.6137 16.2386H25.3481V18.973H22.6137V16.2386ZM9.45164 29.5625H6.66148C6.0307 29.5625 5.5175 30.0757 5.5175 30.7065V33.4966C5.5175 34.1274 6.0307 34.6406 6.66148 34.6406H9.45164C10.0824 34.6406 10.5956 34.1274 10.5956 33.4966V30.7065C10.5956 30.0757 10.0824 29.5625 9.45164 29.5625ZM9.42375 33.4688H6.68937V30.7344H9.42375V33.4688ZM9.45164 15.0667H6.66148C6.0307 15.0667 5.5175 15.5799 5.5175 16.2107V19.0009C5.5175 19.6316 6.0307 20.1448 6.66148 20.1448H9.45164C10.0824 20.1448 10.5956 19.6316 10.5956 19.0009V16.2107C10.5956 15.5798 10.0824 15.0667 9.45164 15.0667ZM9.42375 18.973H6.68937V16.2386H9.42375V18.973ZM22.5859 27.3927H25.376C26.0068 27.3927 26.52 26.8795 26.52 26.2488V23.4586C26.52 22.8278 26.0068 22.3146 25.376 22.3146H22.5859C21.9551 22.3146 21.4419 22.8278 21.4419 23.4586V26.2488C21.4419 26.8795 21.9551 27.3927 22.5859 27.3927ZM22.6137 23.4865H25.3481V26.2209H22.6137V23.4865ZM35.0641 3.17766H32.559V2.2818C32.559 1.2993 31.7597 0.5 30.7772 0.5H30.5081C29.5257 0.5 28.7264 1.2993 28.7264 2.2818V3.17766H11.2733V2.2818C11.2733 1.2993 10.474 0.5 9.49148 0.5H9.22242C8.23992 0.5 7.44062 1.2993 7.44062 2.2818V3.17766H4.93555C3.31797 3.17766 2.00195 4.49367 2.00195 6.11125V37.5703C2.00195 39.1858 3.31617 40.5 4.93164 40.5H35.0682C36.6837 40.5 37.9979 39.1858 37.9979 37.5703V6.11125C37.9978 4.49367 36.6818 3.17766 35.0641 3.17766ZM29.8983 2.2818C29.8983 1.94547 30.1719 1.67188 30.5082 1.67188H30.7773C31.1136 1.67188 31.3872 1.94547 31.3872 2.2818V3.17766H29.8983V2.2818ZM8.61258 2.2818C8.61258 1.94547 8.88617 1.67188 9.2225 1.67188H9.49156C9.82789 1.67188 10.1015 1.94547 10.1015 2.2818V3.17766H8.61266V2.2818H8.61258ZM36.8259 37.5703C36.8259 38.5396 36.0374 39.3281 35.0681 39.3281H4.93156C3.96227 39.3281 3.17375 38.5396 3.17375 37.5703V37.5666C3.66469 37.9366 4.27492 38.1562 4.93555 38.1562H28.692C29.4756 38.1562 30.2123 37.8511 30.7664 37.297L36.8259 31.2374V37.5703ZM30.1685 36.2376C30.2144 36.048 30.2394 35.8502 30.2394 35.6467V31.7355C30.2394 30.998 30.8395 30.3979 31.5771 30.3979H35.4883C35.6918 30.3979 35.8895 30.3729 36.0791 30.327L30.1685 36.2376ZM36.8259 11.5511H11.8592C11.5356 11.5511 11.2733 11.8134 11.2733 12.137C11.2733 12.4606 11.5356 12.723 11.8592 12.723H36.8259V27.8884C36.8259 28.626 36.2259 29.2261 35.4883 29.2261H31.5771C30.1934 29.2261 29.0676 30.3519 29.0676 31.7355V35.6468C29.0676 36.3844 28.4675 36.9845 27.73 36.9845H4.93555C3.96414 36.9845 3.17383 36.1941 3.17383 35.2227V12.723H9.51547C9.83906 12.723 10.1014 12.4606 10.1014 12.137C10.1014 11.8134 9.83906 11.5511 9.51547 11.5511H3.17375V6.11125C3.17375 5.13984 3.96406 4.34953 4.93547 4.34953H7.44062V6.07234C7.44062 7.05484 8.23992 7.85414 9.22242 7.85414C9.54602 7.85414 9.80836 7.5918 9.80836 7.2682C9.80836 6.94461 9.54602 6.68227 9.22242 6.68227C8.88609 6.68227 8.6125 6.40867 8.6125 6.07234V4.34953H28.7264V6.07234C28.7264 7.05484 29.5257 7.85414 30.5082 7.85414C30.8318 7.85414 31.0941 7.5918 31.0941 7.2682C31.0941 6.94461 30.8318 6.68227 30.5082 6.68227C30.1719 6.68227 29.8983 6.40867 29.8983 6.07234V4.34953H35.0642C36.0356 4.34953 36.8259 5.13984 36.8259 6.11125V11.5511ZM9.45164 22.3146H6.66148C6.0307 22.3146 5.5175 22.8278 5.5175 23.4586V26.2488C5.5175 26.8795 6.0307 27.3927 6.66148 27.3927H9.45164C10.0824 27.3927 10.5956 26.8795 10.5956 26.2488V23.4586C10.5956 22.8277 10.0824 22.3146 9.45164 22.3146ZM9.42375 26.2209H6.68937V23.4865H9.42375V26.2209ZM14.6237 20.1448H17.4138C18.0446 20.1448 18.5578 19.6316 18.5578 19.0009V16.2107C18.5578 15.5799 18.0446 15.0667 17.4138 15.0667H14.6237C13.9929 15.0667 13.4797 15.5799 13.4797 16.2107V19.0009C13.4797 19.6316 13.9929 20.1448 14.6237 20.1448ZM14.6516 16.2386H17.3859V18.973H14.6516V16.2386ZM22.613 33.4688C22.5985 33.158 22.342 32.9107 22.0277 32.9107C21.7041 32.9107 21.4418 33.173 21.4418 33.4966C21.4418 34.1274 21.955 34.6406 22.5858 34.6406H25.3759C26.0067 34.6406 26.5199 34.1274 26.5199 33.4966V30.7065C26.5199 30.0757 26.0067 29.5625 25.3759 29.5625H22.5858C21.955 29.5625 21.4418 30.0757 21.4418 30.7065V31.5112C21.4418 31.8348 21.7041 32.0971 22.0277 32.0971C22.3513 32.0971 22.6137 31.8348 22.6137 31.5112V30.7344H25.348V33.4688H22.613ZM14.6237 27.3927H17.4138C18.0446 27.3927 18.5578 26.8795 18.5578 26.2488V23.4586C18.5578 22.8278 18.0446 22.3146 17.4138 22.3146H14.6237C13.9929 22.3146 13.4797 22.8278 13.4797 23.4586V26.2488C13.4797 26.8795 13.9929 27.3927 14.6237 27.3927ZM14.6516 23.4865H17.3859V26.2209H14.6516V23.4865ZM14.6237 34.6406H17.4138C18.0446 34.6406 18.5578 34.1274 18.5578 33.4966V30.7065C18.5578 30.0757 18.0446 29.5625 17.4138 29.5625H14.6237C13.9929 29.5625 13.4797 30.0757 13.4797 30.7065V33.4966C13.4797 34.1274 13.9929 34.6406 14.6237 34.6406ZM14.6516 30.7344H17.3859V33.4688H14.6516V30.7344Z" fill="#101111"></path></g><defs><clipPath id="clip0_798_29869"><rect width="40" height="40" fill="white" transform="translate(0 0.5)"></rect></clipPath></defs></svg>