<svg xmlns="http://www.w3.org/2000/svg" width="40" height="41" viewBox="0 0 40 41" fill="none"><path d="M34.625 28.375C34.0625 26.625 32.875 25.1875 31.3125 24.25L26 21.0625C26.5625 20.3125 27 19.5 27.25 18.5625L28.5625 18.25C29.375 18.0625 30 17.3125 30 16.4375V16.125C30 15.0625 29.1875 14.25 28.125 14.25H27.5V13H28C29.125 13 30 12.0625 30 11C30 10.0625 29.375 9.25 28.4375 9.0625L27.5 8.75V8.6875C27.5 5.8125 25.375 3.4375 22.5 3.125L21.9375 3.0625C21.6875 2.3125 20.9375 1.75 20.125 1.75H19.8125C19 1.75 18.25 2.3125 18 3.0625L17.5 3.125C14.625 3.4375 12.5 5.875 12.5 8.6875V8.75L11.5625 9C10.5 9.25 9.8125 10.375 10.0625 11.4375C10.3125 12.3125 11.125 13 12 13H12.5V14.25H11.875C10.8125 14.25 10 15.0625 10 16.125V16.375C10 17.25 10.5625 18 11.4375 18.1875L12.75 18.5C13 19.375 13.375 20.25 14 21L8.6875 24.1875C6.375 25.5625 5 28 5 30.625V39.25H32.5C33.5625 39.25 34.375 38.4375 34.375 37.375V35.8125C35.5625 35 36.25 33.625 36.25 32.25V31.75C36.25 30.4375 35.6875 29.1875 34.625 28.375ZM32.875 27.5C31.25 27.125 29.5625 27.6875 28.5 28.9375C28.25 28.75 27.875 28.625 27.5 28.625V24.0625L28.125 23.75L30.75 25.3125C31.625 25.8125 32.375 26.5625 32.875 27.5ZM29.5 38H11.875V30.5C11.875 30.125 12.125 29.875 12.5 29.875H27.5C27.625 29.875 27.75 29.9375 27.875 30C27.625 30.5625 27.5 31.125 27.5 31.75V32.25C27.5 33.6875 28.1875 35 29.375 35.8125V37.375C29.375 37.5625 29.4375 37.8125 29.5 38ZM16.0625 22.8125L17.3125 23.5C19 24.4375 21 24.4375 22.6875 23.5L23.9375 22.8125C24.375 22.5625 24.8125 22.25 25.1875 21.9375L26.875 23L24.1875 24.4375C21.625 25.8125 18.5 25.8125 15.875 24.4375L13.125 23L14.8125 22C15.25 22.3125 15.625 22.5625 16.0625 22.8125ZM25 28.625V25.375L26.25 24.6875V28.625H25ZM16.25 26C18.625 27 21.375 27 23.75 26V28.625H16.25V26ZM15 25.375V28.625H13.75V24.75L15 25.375ZM28.125 15.5C28.5 15.5 28.75 15.75 28.75 16.125V16.375C28.75 16.6875 28.5625 16.9375 28.25 17L27.5 17.1875C27.5 17.0625 27.5 16.9375 27.5 16.75V15.5H28.125ZM17.625 4.375H17.875L17.5 7.3125L18.75 7.4375L19.25 3.5625C19.3125 3.25 19.5625 3 19.875 3H20.1875C20.5 3 20.75 3.25 20.8125 3.5625L21.3125 7.4375L22.5625 7.3125L22.1875 4.375H22.4375C24.625 4.625 26.25 6.4375 26.3125 8.625H13.75C13.8125 6.4375 15.4375 4.625 17.625 4.375ZM12 11.75C11.5625 11.75 11.25 11.375 11.25 11C11.25 10.625 11.5 10.3125 11.8125 10.25L13.1875 9.9375H26.8125L28.1875 10.25C28.625 10.375 28.875 10.75 28.75 11.1875C28.6875 11.5625 28.375 11.75 28 11.75H12ZM11.75 17C11.5 16.9375 11.25 16.6875 11.25 16.375V16.125C11.25 15.75 11.5 15.5 11.875 15.5H12.5V16.8125V17.25L11.75 17ZM13.75 13H26.25V16.8125C26.25 18.875 25.125 20.75 23.3125 21.75L22.0625 22.4375C20.75 23.125 19.1875 23.125 17.875 22.4375L16.625 21.75C14.8125 20.75 13.6875 18.875 13.6875 16.8125V13H13.75ZM6.25 30.625C6.25 28.4375 7.4375 26.375 9.3125 25.25L11.9375 23.6875L12.5625 24V28.625C11.5 28.625 10.6875 29.4375 10.6875 30.5V38H6.3125V30.625H6.25ZM32.5 38H31.25C30.875 38 30.625 37.75 30.625 37.375V36.125H33.125V37.375C33.125 37.75 32.875 38 32.5 38ZM35 32.25C35 33.3125 34.5 34.25 33.625 34.875H33.5625H32.5V32.625L33.5625 31.5625L32.6875 30.6875L31.875 31.5L31.0625 30.6875L30.1875 31.5625L31.25 32.625V34.875H30.1875L30.125 34.8125C29.25 34.25 28.75 33.3125 28.75 32.25V31.75C28.75 30 30.125 28.625 31.875 28.625C33.625 28.625 35 30 35 31.75V32.25Z" fill="#101111"></path><path d="M24.875 31.5L23.875 30.75L21.4375 34L23.9375 34.625L22.625 36.375L23.625 37.125L26.0625 33.875L23.5625 33.25L24.875 31.5Z" fill="#101111"></path></svg>