<svg xmlns="http://www.w3.org/2000/svg" width="48" height="48" viewBox="0 0 48 48" fill="none"><g clip-path="url(#clip0_798_26810)"><path d="M47.6103 30.6559C47.5923 30.5764 47.5557 30.503 47.5069 30.4382L38.1032 18.3447C37.9966 18.2077 37.8327 18.1275 37.6592 18.1275H36.7518L36.8124 17.7033C41.5849 16.7438 44.3226 11.1903 42.1202 6.82224C41.7102 5.97268 40.9112 5.36467 39.983 5.1959C38.9881 5.01481 38.031 5.67733 37.8499 6.67269L37.221 10.1314C37.1655 10.4365 36.8724 10.6396 36.5669 10.5842L33.7177 10.0661C33.4192 10.0181 33.2046 9.70849 33.2649 9.41203C33.2649 9.41204 33.8936 5.95423 33.8936 5.95423C34.0902 4.98733 33.3904 3.97636 32.4161 3.82001C31.4967 3.65291 30.5504 3.92629 29.8849 4.55159C26.2397 7.87104 26.8386 14.0126 30.9821 16.6423L29.3067 24.2132C28.6473 20.8929 27.7156 16.207 27.0547 12.8794C26.8964 11.9864 25.9565 11.3576 25.0707 11.5532C25.0707 11.5531 19.7014 12.62 19.7014 12.62C18.7888 12.8014 18.1939 13.6914 18.3752 14.604L19.4331 19.928L18.2019 18.3447C18.0953 18.2077 17.9315 18.1275 17.7579 18.1275H14.219L13.2682 13.6215C13.5628 13.5849 13.7786 13.3248 13.76 13.0286C13.76 13.0286 13.5794 10.1138 13.5794 10.1138L14.7652 9.95135C14.9441 10.6677 15.6507 11.2103 16.3889 11.1979C16.277 11.2419 19.6562 10.7623 19.6885 10.7618C20.6104 10.6355 21.2576 9.78273 21.1313 8.86084L20.1718 1.85816C20.1106 1.41161 19.8792 1.01555 19.5202 0.743047C19.1611 0.47054 18.717 0.354085 18.2709 0.41538L15.2038 0.835607C14.3547 0.95197 13.7403 1.68499 13.747 2.52029L6.37174 3.53083C4.96952 3.72295 3.71369 4.44256 2.83579 5.55703C1.78742 6.88788 0.985055 8.42048 0.450845 10.1124C0.269662 10.6867 0.418526 11.3065 0.839303 11.7299C1.52109 12.4403 2.75731 12.327 3.2963 11.5023C3.78153 10.7868 4.32655 10.1312 4.92329 9.5441L5.08314 10.7103C5.12534 11.0181 5.40925 11.2333 5.71677 11.1912L6.84296 11.0369L7.45307 13.8928C7.51374 14.1844 7.79829 14.3764 8.08632 14.3316L8.73495 24.3908L4.03678 30.4275C3.95997 30.5262 3.91822 30.6478 3.91822 30.7729V39.9404L0.797738 40.7434C0.549172 40.8074 0.375405 41.0315 0.375405 41.2882V43.8158C0.375405 44.0724 0.549172 44.2966 0.797738 44.3605L3.91822 45.1636V47.0624C3.91822 47.373 4.17008 47.6249 4.48072 47.6249C4.48072 47.6249 40.8114 47.6282 47.0629 47.6249C47.3735 47.6249 47.6254 47.373 47.6254 47.0624V30.7835C47.6254 30.7395 47.6199 30.6969 47.6103 30.6559ZM15.3565 1.95017L18.4236 1.52994C18.5707 1.50957 18.7204 1.54803 18.84 1.63917C18.9597 1.72999 19.0368 1.862 19.0572 2.01087L20.0168 9.01355C20.0589 9.32085 19.8431 9.60512 19.5358 9.64724L16.4688 10.0675C16.1704 10.1143 15.8699 9.88722 15.8352 9.58653C15.8352 9.58654 15.3554 6.08519 15.3554 6.08519C15.3309 5.92076 14.8841 2.63543 14.8756 2.58384C14.8335 2.27655 15.0493 1.99228 15.3565 1.95017ZM7.83402 10.2912C7.77373 10.0021 7.49372 9.81049 7.20762 9.85145C7.20762 9.85145 6.12135 10.0003 6.12135 10.0003L5.89347 8.33757C5.86573 8.13529 5.7306 7.96395 5.54044 7.88984C5.35001 7.81559 5.13468 7.85042 4.97749 7.98061C3.99119 8.79708 3.11228 9.76941 2.3653 10.8707C2.18215 11.1234 1.86063 11.1487 1.63737 10.937C1.51231 10.8111 1.46882 10.6249 1.52366 10.4511C2.01676 8.88927 2.75559 7.47689 3.71946 6.25319C4.41618 5.36879 5.41236 4.79778 6.52445 4.64539L13.8844 3.63694C14.0621 4.9335 14.4196 7.54263 14.5972 8.83887L12.9093 9.07018C12.6176 9.11014 12.4061 9.36837 12.4243 9.66225L12.6049 12.5769L8.44413 13.1471L7.83402 10.2912ZM37.384 19.2525L45.913 30.221H43.4645L36.334 21.051L36.591 19.2525H37.384ZM37.7741 40.4893C37.7063 39.9231 37.6127 39.3603 37.4923 38.8025C37.3258 38.0357 36.6326 37.4791 35.844 37.4791H27.7242V31.3461C31.6501 31.3462 38.6314 31.3459 42.6186 31.346V43.3154H37.8797C37.921 42.3731 37.8858 41.4298 37.7741 40.4893ZM24.4112 37.4791C24.2132 37.4805 24.0166 37.5304 23.8424 37.6235V31.346H26.5992V37.4791H24.4112ZM36.1124 22.6019L42.0317 30.221H35.0237L36.1124 22.6019ZM29.3534 30.221H27.4368L27.0139 29.677L29.1605 29.2504L29.3534 30.221ZM32.1672 16.4939C32.2203 16.2539 32.1114 16.0073 31.8984 15.8847C29.5646 14.5425 28.2604 11.8593 28.6528 9.20797C28.8727 7.72202 29.5651 6.39547 30.655 5.37159C31.0619 4.98949 31.6448 4.82323 32.2149 4.92687C32.6003 4.99695 32.8568 5.36751 32.7867 5.75295L32.158 9.2108C32.0774 9.65429 32.1743 10.1026 32.4309 10.4732C32.6874 10.8438 33.073 11.0924 33.5165 11.173L36.3657 11.6911C37.2544 11.8718 38.1842 11.2284 38.3278 10.3326C38.3279 10.3326 38.9567 6.87397 38.9567 6.87397C39.0267 6.48899 39.3961 6.23269 39.7818 6.30277C40.3573 6.40741 40.8528 6.78447 41.1071 7.31136C43.0486 11.1705 40.4941 16.0462 36.2225 16.6705C35.9796 16.7098 35.7904 16.9025 35.7556 17.1462L35.5464 18.6099C35.3034 20.3108 34.1523 28.3659 33.8873 30.221H30.5004C30.4342 29.888 30.2239 28.8293 30.1543 28.4789C30.1543 28.4789 29.8518 26.9565 29.8518 26.9565L32.1672 16.4939ZM19.4786 14.3847C19.4182 14.0805 19.6165 13.7838 19.9206 13.7233L25.29 12.6565C25.5853 12.5917 25.8985 12.8008 25.9513 13.0986C25.9513 13.0986 26.1027 13.8606 26.1027 13.8606L23.8405 14.3102C23.5357 14.3707 23.3377 14.6668 23.3984 14.9715C23.4575 15.2781 23.7625 15.475 24.0596 15.4135C24.0596 15.4135 26.3219 14.964 26.3219 14.964L26.5758 16.2417L25.325 16.4902C25.0202 16.5507 24.8224 16.8468 24.8829 17.1515C24.942 17.4582 25.247 17.655 25.5442 17.5936C25.5442 17.5936 26.795 17.3451 26.795 17.3451L27.0489 18.6228L24.7867 19.0723C24.4819 19.1328 24.284 19.4289 24.3445 19.7336C24.4037 20.0403 24.7087 20.2371 25.0058 20.1757C25.0058 20.1757 27.2682 19.7262 27.2682 19.7262L27.522 21.0039L26.2713 21.2524C25.9665 21.3129 25.7687 21.609 25.8292 21.9137C25.8883 22.2204 26.1933 22.4172 26.4905 22.3558C26.4905 22.3558 27.7412 22.1072 27.7412 22.1072L27.9951 23.3849L25.7329 23.8344C25.4281 23.8949 25.2302 24.191 25.2907 24.4957C25.3499 24.8024 25.6549 24.9992 25.952 24.9378C25.952 24.9378 28.2143 24.4883 28.2143 24.4883L28.4682 25.766L27.2175 26.0145C26.9127 26.075 26.7149 26.3711 26.7754 26.6758C26.8345 26.9825 27.1395 27.1793 27.4367 27.1179C27.4367 27.1179 28.6874 26.8694 28.6874 26.8694L28.9413 28.147L26.6791 28.5965C26.5379 28.6246 26.4201 28.7036 26.3399 28.8102L20.9737 21.9093L19.4786 14.3847ZM26.0116 30.221H23.5633C21.4468 27.4991 17.1338 21.9526 15.0344 19.2525H17.4828C17.4828 19.2525 26.0114 30.2206 26.0116 30.221ZM9.20374 14.1785L12.1507 13.7747L13.1844 18.6737L9.77602 23.0531L9.20374 14.1785ZM5.04322 39.6509V30.966C7.24472 28.1371 11.6957 22.4187 13.8844 19.6063L22.7174 30.9659V38.7874L21.4213 38.9219C21.3652 38.9278 21.326 38.9041 21.303 38.8833C21.2798 38.8625 21.2524 38.8259 21.2524 38.7696C21.2524 38.0648 20.679 37.4914 19.9742 37.4914H19.2769C18.3464 37.4914 17.5893 38.2484 17.5893 39.1789V40.6526H7.58088L7.10659 40.2511C7.06407 40.2206 6.22758 39.4917 6.20693 39.5064C6.08314 39.4391 5.93662 39.4203 5.80009 39.4561L5.04322 39.6509ZM1.50041 41.7242L5.79881 40.6181L7.01133 41.6445C7.11295 41.7304 7.24168 41.7776 7.37479 41.7776H17.5894V43.3263H7.37479C7.24168 43.3263 7.11295 43.3735 7.01133 43.4595L5.79881 44.4859L1.50041 43.3797V41.7242ZM5.04322 46.4999V45.4531L5.80009 45.6479C5.90919 45.6758 6.0258 45.6691 6.13187 45.6319C6.19393 45.6082 6.25216 45.5749 6.30372 45.5325C6.59983 45.2818 7.29135 44.6964 7.58088 44.4514H17.5893V45.925C17.5894 46.1214 17.6267 46.3148 17.6901 46.4999H5.04322ZM21.244 46.4761C21.2488 46.4291 21.2523 46.3823 21.2524 46.3344C21.2524 46.2781 21.2798 46.2415 21.3029 46.2207C21.326 46.1999 21.3651 46.1763 21.4213 46.1821L22.7174 46.3166V46.4999H21.2417C21.2427 46.492 21.2432 46.484 21.244 46.4761ZM24.3421 46.4307C24.3485 45.8296 23.8725 45.3003 23.2711 45.243C23.2711 45.243 21.5374 45.0631 21.5374 45.0631C21.3922 45.0483 21.2451 45.059 21.1036 45.0939C20.5418 45.2217 20.1195 45.7581 20.1274 46.3344C20.1274 46.4188 20.0586 46.4875 19.9742 46.4875H19.2769C18.9667 46.4875 18.7144 46.2352 18.7144 45.925V39.1789C18.7144 38.8688 18.9667 38.6164 19.2769 38.6164H19.9742C20.0586 38.6164 20.1274 38.6852 20.1274 38.7696C20.1118 39.506 20.806 40.133 21.5374 40.0409C21.5374 40.0409 23.2717 39.861 23.2717 39.861C23.3131 39.8559 23.3542 39.8499 23.3943 39.8414C23.8724 39.74 24.24 39.3599 24.3233 38.8822C24.3343 38.813 24.3427 38.7438 24.3421 38.6733C24.3421 38.6351 24.3731 38.6041 24.4112 38.6041C26.3976 38.6347 33.9278 38.5445 36.033 38.6367C36.2115 38.7004 36.3517 38.8513 36.393 39.0414C36.4487 39.2996 36.4982 39.5585 36.5419 39.8188C36.7648 41.144 36.8241 42.4906 36.7198 43.8343C36.6775 44.3757 36.6086 44.9166 36.5127 45.4513C36.4579 45.7006 36.4426 45.9677 36.3398 46.2017C36.2445 46.3799 36.0555 46.4999 35.844 46.4999H24.4112C24.3731 46.4999 24.3421 46.4689 24.3421 46.4307ZM37.4476 46.4635C37.6216 45.7993 37.7153 45.1147 37.7953 44.4404H42.6186V46.4999H37.436C37.4403 46.4879 37.4437 46.4756 37.4476 46.4635ZM46.5004 46.4999H43.7436V31.346H46.5004V46.4999Z" fill="#F47629"></path><path d="M30.5553 44.7262C32.8501 44.7262 35.1732 43.9794 35.1732 42.552C35.1545 39.6617 25.9561 39.6617 25.9375 42.552C25.9375 43.9794 28.2606 44.7262 30.5553 44.7262ZM30.5553 41.5028C32.8242 41.5028 34.0482 42.2475 34.0482 42.552C34.0482 42.8565 32.8242 43.6012 30.5553 43.6012C28.2865 43.6012 27.0625 42.8565 27.0625 42.552C27.0625 42.2475 28.2865 41.5028 30.5553 41.5028Z" fill="#F47629"></path><path d="M22.2344 40.7256C21.9237 40.7256 21.6719 40.9774 21.6719 41.2881V43.6467C21.6719 43.9574 21.9237 44.2092 22.2344 44.2092C22.545 44.2092 22.7969 43.9574 22.7969 43.6467V41.2881C22.7969 40.9774 22.545 40.7256 22.2344 40.7256Z" fill="#F47629"></path></g><defs><clipPath id="clip0_798_26810"><rect width="48" height="48" fill="white"></rect></clipPath></defs></svg>