<svg width="24" height="25" viewBox="0 0 24 25" fill="none" xmlns="http://www.w3.org/2000/svg">
<g clip-path="url(#clip0_798_25382)">
<path d="M6.4727 17.6485C6.4727 17.4707 6.53781 17.3029 6.66616 17.1499C6.83252 16.9516 6.80664 16.6559 6.60831 16.4895C6.40998 16.3232 6.1143 16.349 5.94794 16.5474C5.38183 17.2222 5.40466 18.2402 6.02514 18.8735C6.32069 19.1752 6.32069 19.708 6.02514 20.0097C5.70461 20.3368 5.53516 20.7604 5.53516 21.2346C5.53516 21.4935 5.74502 21.7034 6.00391 21.7034C6.2628 21.7034 6.47266 21.4935 6.47266 21.2346C6.47266 21.0044 6.54531 20.8183 6.6948 20.6658C7.34317 20.0039 7.34317 18.8793 6.6948 18.2175C6.54747 18.067 6.4727 17.8756 6.4727 17.6485Z" fill="#101111"/>
<path d="M10.541 17.6486C10.541 17.4707 10.6061 17.3029 10.7344 17.1499C10.9008 16.9516 10.875 16.6559 10.6766 16.4895C10.4783 16.3231 10.1827 16.3491 10.0162 16.5474C9.45014 17.2221 9.47302 18.2402 10.0935 18.8736C10.389 19.1752 10.389 19.708 10.0935 20.0097C9.77292 20.3368 9.60352 20.7605 9.60352 21.2346C9.60352 21.4935 9.81338 21.7034 10.0723 21.7034C10.3312 21.7034 10.541 21.4935 10.541 21.2346C10.541 21.0044 10.6137 20.8183 10.7632 20.6658C11.4115 20.0039 11.4115 18.8794 10.7632 18.2175C10.6157 18.067 10.541 17.8756 10.541 17.6486Z" fill="#101111"/>
<path d="M14.6094 17.6485C14.6094 17.4706 14.6745 17.3029 14.8028 17.1499C14.9692 16.9516 14.9433 16.656 14.745 16.4896C14.5468 16.3232 14.251 16.349 14.0847 16.5473C13.5185 17.2221 13.5413 18.2402 14.1618 18.8735C14.4573 19.1753 14.4574 19.7079 14.1618 20.0097C13.8413 20.3368 13.6719 20.7604 13.6719 21.2346C13.6719 21.4935 13.8818 21.7034 14.1406 21.7034C14.3995 21.7034 14.6094 21.4935 14.6094 21.2346C14.6094 21.0044 14.682 20.8183 14.8315 20.6657C15.1474 20.3432 15.3214 19.9084 15.3214 19.4416C15.3214 18.9747 15.1474 18.54 14.8315 18.2174C14.6841 18.0669 14.6094 17.8756 14.6094 17.6485Z" fill="#101111"/>
<path d="M23.1929 14.9648L22.642 13.9948C22.3854 13.543 22.2498 13.0296 22.2498 12.5101V10.8782C22.2498 10.6193 22.0399 10.4095 21.7811 10.4095H21.6121V5.03623C21.6121 4.96119 21.6345 4.88877 21.6768 4.82684L22.2161 4.03808C22.4666 3.67166 22.5146 3.20816 22.3445 2.79828L21.511 0.789125C21.4385 0.614094 21.2676 0.5 21.0781 0.5H19.1715C18.9819 0.5 18.8111 0.614094 18.7385 0.789125L17.9051 2.79823C17.8419 2.95044 17.8089 3.11009 17.8051 3.26938H13.3072C13.0484 3.26938 12.8385 3.47923 12.8385 3.73813C12.8385 3.99702 13.0484 4.20688 13.3072 4.20688H18.1487L18.5727 4.82698C18.6127 4.88534 18.6374 4.9655 18.6374 5.03623V10.4094L1.23042 10.4094V9.92094C1.23042 7.22741 1.3117 6.34363 1.48252 5.48277L1.69064 4.43497C1.71689 4.30278 1.8338 4.20688 1.9687 4.20688H9.18417C9.44306 4.20688 9.65292 3.99702 9.65292 3.73813C9.65292 3.47923 9.44306 3.26938 9.18417 3.26938H1.9687C1.38778 3.26938 0.884156 3.68286 0.771141 4.25244L0.563016 5.30019C0.380016 6.22241 0.292969 7.14908 0.292969 9.92094V13.5687C0.292969 13.8276 0.502828 14.0375 0.761719 14.0375H2.65734V15.058C2.65734 15.3169 2.8672 15.5267 3.12609 15.5267H16.7941C16.6285 15.9684 16.5423 16.4384 16.5423 16.9124V20.9547C16.5423 21.8198 16.8328 22.6739 17.3604 23.3597L18.097 24.3171C18.1858 24.4324 18.323 24.5 18.4686 24.5H21.7812C21.9267 24.5 22.0639 24.4324 22.1527 24.3171L22.8893 23.3597C23.4169 22.674 23.7075 21.8198 23.7075 20.9547V16.9124C23.7074 16.2309 23.5295 15.5574 23.1929 14.9648ZM18.771 3.15748L19.4845 1.4375H20.7651L21.4786 3.15753C21.5268 3.27373 21.5132 3.40513 21.4422 3.509L20.9029 4.29777C20.7536 4.5162 20.6747 4.77158 20.6747 5.03623V10.4094H19.575V5.03609C19.575 4.77505 19.494 4.5133 19.3466 4.29777L18.8074 3.50905C18.7364 3.40513 18.7228 3.27373 18.771 3.15748ZM1.23042 11.3469H17.9997V12.4016H3.82448C3.36656 12.4016 2.94005 12.681 2.75559 13.1H1.23042V11.3469ZM3.5948 13.5687C3.5948 13.4421 3.69783 13.3391 3.82448 13.3391H17.8826C17.7533 13.7892 17.4994 14.1853 17.27 14.5892H3.5948V13.5687ZM22.7699 20.9547C22.7699 21.6142 22.5484 22.2652 22.1462 22.788L21.5503 23.5625H18.6993L18.1034 22.788C17.7012 22.2652 17.4797 21.6141 17.4797 20.9547V16.9124C17.4797 16.3254 17.6648 15.7949 17.9505 15.2894C17.9505 15.2894 18.4003 14.5059 18.4879 14.3374C18.7803 13.7743 18.9375 13.1448 18.9375 12.5099V11.347H21.3123V12.5101C21.3123 13.1916 21.4902 13.8651 21.8268 14.4577L22.3777 15.4278C22.6343 15.8795 22.7699 16.3929 22.7699 16.9124V20.9547Z" fill="#101111"/>
<path d="M19.1055 15.9541C18.8466 15.9541 18.6367 16.164 18.6367 16.4229V21.1599C18.6367 21.4187 18.8466 21.6286 19.1055 21.6286C19.3643 21.6286 19.5742 21.4187 19.5742 21.1599V16.4229C19.5742 16.164 19.3643 15.9541 19.1055 15.9541Z" fill="#101111"/>
<path d="M21.1426 15.9541C20.8837 15.9541 20.6738 16.164 20.6738 16.4229V21.1599C20.6738 21.4187 20.8837 21.6286 21.1426 21.6286C21.4014 21.6286 21.6113 21.4187 21.6113 21.1599V16.4229C21.6113 16.164 21.4014 15.9541 21.1426 15.9541Z" fill="#101111"/>
<path d="M3.04688 5.34668C2.78798 5.34668 2.57812 5.55654 2.57812 5.81543C2.57812 6.07432 2.78798 6.28418 3.04688 6.28418H4.52555C4.78444 6.28418 4.9943 6.07432 4.9943 5.81543C4.9943 5.55654 4.78444 5.34668 4.52555 5.34668H3.04688Z" fill="#101111"/>
<path d="M11.2705 9.01268C12.2812 9.01268 13.1035 8.1904 13.1035 7.17968C13.1035 6.16896 12.2812 5.34668 11.2705 5.34668C10.2598 5.34668 9.4375 6.16896 9.4375 7.17968C9.4375 8.1904 10.2598 9.01268 11.2705 9.01268ZM11.2705 6.28418C11.7643 6.28418 12.166 6.6859 12.166 7.17968C12.166 7.67346 11.7643 8.07518 11.2705 8.07518C10.7767 8.07518 10.375 7.67346 10.375 7.17968C10.375 6.6859 10.7767 6.28418 11.2705 6.28418Z" fill="#101111"/>
<path d="M10.8847 3.91761C10.9602 4.10192 11.153 4.22117 11.3517 4.20579C11.5555 4.19004 11.7294 4.04084 11.7743 3.84115C11.8663 3.43189 11.3914 3.11543 11.0477 3.35562C10.8704 3.47946 10.8015 3.71796 10.8847 3.91761Z" fill="#101111"/>
</g>
<defs>
<clipPath id="clip0_798_25382">
<rect width="24" height="24" fill="white" transform="translate(0 0.5)"/>
</clipPath>
</defs>
</svg>
