<svg width="25" height="24" viewBox="0 0 25 24" fill="none" xmlns="http://www.w3.org/2000/svg">
<g clip-path="url(#clip0_798_13664)">
<path d="M24.3052 15.3285C24.2961 15.2887 24.2779 15.252 24.2535 15.2196L19.5516 9.17286C19.4983 9.10433 19.4164 9.06426 19.3296 9.06426H18.8759L18.9062 8.85213C21.2925 8.37238 22.6613 5.59562 21.5601 3.41161C21.3551 2.98683 20.9556 2.68283 20.4915 2.59844C19.9941 2.50789 19.5155 2.83915 19.4249 3.33683L19.1105 5.0662C19.0828 5.21874 18.9362 5.32028 18.7835 5.29258L17.3589 5.03353C17.2096 5.00953 17.1023 4.85473 17.1325 4.70651C17.1325 4.70651 17.4468 2.9776 17.4468 2.9776C17.5451 2.49415 17.1952 1.98867 16.708 1.91049C16.2484 1.82694 15.7752 1.96363 15.4424 2.27629C13.6198 3.93601 13.9193 7.00677 15.9911 8.32165L15.1533 12.1071C14.8237 10.4469 14.3578 8.10399 14.0273 6.44017C13.9482 5.9937 13.4783 5.67929 13.0354 5.77706C13.0354 5.77706 10.3507 6.31047 10.3507 6.31047C9.89438 6.40117 9.59693 6.84619 9.68761 7.30249L10.2165 9.9645L9.60096 9.17286C9.54767 9.10433 9.46573 9.06426 9.37894 9.06426H7.60951L7.13411 6.81126C7.2814 6.79295 7.38931 6.66289 7.38002 6.51477C7.38002 6.51477 7.28971 5.05741 7.28971 5.05741L7.88258 4.97616C7.97206 5.33436 8.32536 5.60564 8.69445 5.59946C8.6385 5.62145 10.3281 5.38163 10.3443 5.38139C10.8052 5.31822 11.1288 4.89186 11.0657 4.43091L10.5859 0.929568C10.5553 0.706294 10.4396 0.508265 10.2601 0.372012C10.0806 0.235758 9.85849 0.177531 9.63543 0.208178L8.10192 0.418292C7.67736 0.476473 7.37014 0.842982 7.37351 1.26063L3.68587 1.7659C2.98476 1.86196 2.35685 2.22177 1.9179 2.779C1.39371 3.44443 0.992527 4.21073 0.725422 5.0567C0.634831 5.34383 0.709263 5.65373 0.919651 5.86543C1.26054 6.22063 1.87866 6.16397 2.14815 5.75162C2.39077 5.39391 2.66327 5.0661 2.96164 4.77254L3.04157 5.35562C3.06267 5.50952 3.20462 5.61716 3.35839 5.59608L3.92148 5.51895L4.22654 6.94687C4.25687 7.09268 4.39914 7.18871 4.54316 7.16629L4.86747 12.1959L2.51839 15.2142C2.47998 15.2636 2.45911 15.3244 2.45911 15.387V19.9707L0.898869 20.3722C0.774586 20.4042 0.687703 20.5162 0.687703 20.6446V21.9084C0.687703 22.0367 0.774586 22.1488 0.898869 22.1807L2.45911 22.5823V23.5317C2.45911 23.687 2.58504 23.8129 2.74036 23.8129C2.74036 23.8129 20.9057 23.8146 24.0314 23.8129C24.1868 23.8129 24.3127 23.687 24.3127 23.5317V15.3922C24.3127 15.3702 24.3099 15.349 24.3052 15.3285ZM8.17827 0.975573L9.71178 0.76546C9.78536 0.755274 9.8602 0.774502 9.92002 0.820071C9.97985 0.865481 10.0184 0.93149 10.0286 1.00592L10.5084 4.50727C10.5294 4.66091 10.4215 4.80305 10.2679 4.82411L8.73441 5.03422C8.58519 5.05766 8.43494 4.9441 8.41759 4.79375C8.41759 4.79376 8.1777 3.04309 8.1777 3.04309C8.16546 2.96087 7.94207 1.31821 7.93781 1.29241C7.91675 1.13877 8.02465 0.99663 8.17827 0.975573ZM4.41701 5.1461C4.38686 5.00153 4.24686 4.90573 4.10381 4.92621C4.10381 4.92621 3.56067 5.00062 3.56067 5.00062L3.44674 4.16928C3.43287 4.06813 3.3653 3.98246 3.27022 3.94541C3.17501 3.90828 3.06734 3.9257 2.98874 3.99079C2.49559 4.39903 2.05614 4.8852 1.68265 5.43584C1.59107 5.56217 1.43032 5.57484 1.31868 5.46896C1.25615 5.40606 1.23441 5.31295 1.26183 5.22602C1.50838 4.44512 1.8778 3.73893 2.35973 3.12709C2.70809 2.68489 3.20618 2.39938 3.76223 2.32318L7.44221 1.81896C7.53105 2.46724 7.70981 3.7718 7.7986 4.41992L6.95467 4.53558C6.80878 4.55556 6.70304 4.68467 6.71215 4.83161L6.80246 6.28895L4.72206 6.57402L4.41701 5.1461ZM19.192 9.62676L23.4565 15.111H22.2323L18.667 10.526L18.7955 9.62676H19.192ZM19.387 20.2451C19.3531 19.9621 19.3063 19.6806 19.2462 19.4018C19.1629 19.0183 18.8163 18.74 18.422 18.74H14.3621V15.6735C16.3251 15.6736 19.8157 15.6734 21.8093 15.6735V21.6582H19.4399C19.4605 21.187 19.4429 20.7154 19.387 20.2451ZM12.7056 18.74C12.6066 18.7407 12.5083 18.7657 12.4212 18.8122V15.6735H13.7996V18.74H12.7056ZM18.5562 11.3014L21.5159 15.111H18.0118L18.5562 11.3014ZM15.1767 15.111H14.2184L14.0069 14.839L15.0803 14.6257L15.1767 15.111ZM16.5836 8.24742C16.6101 8.12744 16.5557 8.00412 16.4492 7.94285C15.2823 7.27175 14.6302 5.93016 14.8264 4.60447C14.9363 3.8615 15.2825 3.19822 15.8275 2.68628C16.0309 2.49523 16.3224 2.4121 16.6074 2.46392C16.8002 2.49896 16.9284 2.68424 16.8934 2.87696L16.579 4.60589C16.5387 4.82763 16.5872 5.0518 16.7154 5.2371C16.8437 5.4224 17.0365 5.54666 17.2582 5.58697L18.6828 5.84602C19.1272 5.93637 19.5921 5.61469 19.6639 5.1668C19.6639 5.16681 19.9784 3.43747 19.9784 3.43747C20.0133 3.24498 20.198 3.11683 20.3909 3.15187C20.6787 3.2042 20.9264 3.39273 21.0536 3.65617C22.0243 5.58572 20.747 8.02361 18.6113 8.33573C18.4898 8.35539 18.3952 8.45175 18.3778 8.5736L18.2732 9.30542C18.1517 10.1559 17.5761 14.1834 17.4436 15.111H15.7502C15.7171 14.9445 15.6119 14.4152 15.5771 14.24C15.5771 14.24 15.4259 13.4787 15.4259 13.4787L16.5836 8.24742ZM10.2393 7.19285C10.2091 7.04074 10.3082 6.8924 10.4603 6.86216L13.145 6.32875C13.2926 6.29633 13.4493 6.4009 13.4756 6.54981C13.4757 6.54981 13.5514 6.9308 13.5514 6.9308L12.4202 7.15557C12.2678 7.18582 12.1689 7.33389 12.1992 7.48623C12.2288 7.63956 12.3813 7.73798 12.5298 7.70726C12.5298 7.70726 13.661 7.4825 13.661 7.4825L13.7879 8.12133L13.1625 8.24559C13.0101 8.27585 12.9112 8.42389 12.9414 8.57626C12.971 8.72959 13.1235 8.828 13.2721 8.79729C13.2721 8.79729 13.8975 8.67302 13.8975 8.67302L14.0245 9.31188L12.8933 9.53662C12.7409 9.56688 12.642 9.71492 12.6723 9.86729C12.7019 10.0206 12.8544 10.119 13.0029 10.0883C13.0029 10.0883 14.1341 9.86357 14.1341 9.86357L14.261 10.5024L13.6356 10.6267C13.4832 10.6569 13.3843 10.805 13.4146 10.9573C13.4442 11.1107 13.5967 11.2091 13.7452 11.1784C13.7452 11.1784 14.3706 11.0541 14.3706 11.0541L14.4976 11.6929L13.3664 11.9177C13.214 11.9479 13.1151 12.096 13.1454 12.2483C13.175 12.4017 13.3275 12.5001 13.476 12.4694C13.476 12.4694 14.6072 12.2446 14.6072 12.2446L14.7341 12.8835L14.1087 13.0077C13.9563 13.038 13.8574 13.186 13.8877 13.3384C13.9173 13.4917 14.0698 13.5901 14.2183 13.5594C14.2183 13.5594 14.8437 13.4352 14.8437 13.4352L14.9706 14.074L13.8396 14.2988C13.769 14.3128 13.7101 14.3523 13.6699 14.4056L10.9869 10.9551L10.2393 7.19285ZM13.5058 15.111H12.2817C11.2234 13.7501 9.06692 10.9768 8.01718 9.62676H9.24138C9.24138 9.62676 13.5057 15.1108 13.5058 15.111ZM5.10187 7.08974L6.57537 6.88784L7.0922 9.33731L5.38801 11.527L5.10187 7.08974ZM3.02161 19.8259V15.4835C4.12236 14.069 6.34787 11.2099 7.44219 9.80364L11.8587 15.4834V19.3942L11.2106 19.4614C11.1826 19.4644 11.163 19.4525 11.1515 19.4421C11.1399 19.4317 11.1262 19.4134 11.1262 19.3853C11.1262 19.0329 10.8395 18.7462 10.4871 18.7462H10.1385C9.67322 18.7462 9.29466 19.1247 9.29467 19.59V20.3268H4.29044L4.0533 20.1261C4.03203 20.1108 3.61379 19.7463 3.60346 19.7537C3.54157 19.72 3.46831 19.7107 3.40004 19.7285L3.02161 19.8259ZM1.2502 20.8626L3.3994 20.3095L4.00566 20.8227C4.05648 20.8657 4.12084 20.8893 4.1874 20.8893H9.29471V21.6637H4.1874C4.12084 21.6637 4.05648 21.6873 4.00566 21.7302L3.3994 22.2434L1.2502 21.6903V20.8626ZM3.02161 23.2504V22.7271L3.40004 22.8244C3.4546 22.8384 3.5129 22.835 3.56594 22.8164C3.59697 22.8046 3.62608 22.7879 3.65186 22.7667C3.79991 22.6414 4.14567 22.3487 4.29044 22.2262H9.29467V22.963C9.29471 23.0612 9.31337 23.1579 9.34507 23.2504H3.02161ZM11.122 23.2385C11.1244 23.215 11.1262 23.1916 11.1262 23.1677C11.1262 23.1395 11.1399 23.1212 11.1514 23.1108C11.163 23.1004 11.1826 23.0886 11.2106 23.0915L11.8587 23.1588V23.2504H11.1209C11.1214 23.2465 11.1216 23.2425 11.122 23.2385ZM12.671 23.2159C12.6743 22.9153 12.4362 22.6507 12.1355 22.622C12.1355 22.622 11.2687 22.5321 11.2687 22.5321C11.1961 22.5246 11.1225 22.53 11.0518 22.5474C10.7709 22.6114 10.5597 22.8795 10.5637 23.1677C10.5637 23.2099 10.5293 23.2442 10.4871 23.2442H10.1385C9.98337 23.2442 9.85721 23.1181 9.85721 22.963V19.59C9.85721 19.4349 9.98337 19.3087 10.1385 19.3087H10.4871C10.5293 19.3087 10.5637 19.3431 10.5637 19.3853C10.5559 19.7535 10.903 20.067 11.2687 20.0209C11.2687 20.0209 12.1359 19.931 12.1359 19.931C12.1566 19.9284 12.1771 19.9255 12.1972 19.9212C12.4362 19.8705 12.62 19.6804 12.6617 19.4416C12.6671 19.407 12.6714 19.3724 12.671 19.3371C12.671 19.318 12.6866 19.3025 12.7056 19.3025C13.6988 19.3178 17.4639 19.2727 18.5165 19.3188C18.6058 19.3507 18.6759 19.4261 18.6965 19.5212C18.7243 19.6503 18.7491 19.7798 18.771 19.9099C18.8824 20.5725 18.9121 21.2458 18.8599 21.9176C18.8388 22.1883 18.8043 22.4588 18.7564 22.7261C18.7289 22.8508 18.7213 22.9843 18.6699 23.1013C18.6222 23.1905 18.5277 23.2504 18.422 23.2504H12.7056C12.6866 23.2504 12.671 23.2349 12.671 23.2159ZM19.2238 23.2322C19.3108 22.9001 19.3577 22.5579 19.3977 22.2207H21.8093V23.2504H19.218C19.2201 23.2444 19.2218 23.2383 19.2238 23.2322ZM23.7502 23.2504H22.3718V15.6735H23.7502V23.2504Z" fill="#101111"/>
<path d="M15.7777 22.3634C16.925 22.3634 18.0866 21.9899 18.0866 21.2763C18.0773 19.8311 13.478 19.8311 13.4688 21.2763C13.4688 21.9899 14.6303 22.3634 15.7777 22.3634ZM15.7777 20.7517C16.9121 20.7517 17.5241 21.124 17.5241 21.2763C17.5241 21.4285 16.9121 21.8009 15.7777 21.8009C14.6432 21.8009 14.0312 21.4285 14.0312 21.2763C14.0312 21.124 14.6432 20.7517 15.7777 20.7517Z" fill="#101111"/>
<path d="M11.6172 20.3633C11.4619 20.3633 11.3359 20.4892 11.3359 20.6445V21.8238C11.3359 21.9792 11.4619 22.1051 11.6172 22.1051C11.7725 22.1051 11.8984 21.9792 11.8984 21.8238V20.6445C11.8984 20.4892 11.7725 20.3633 11.6172 20.3633Z" fill="#101111"/>
</g>
<defs>
<clipPath id="clip0_798_13664">
<rect width="24" height="24" fill="white" transform="translate(0.5)"/>
</clipPath>
</defs>
</svg>
