<?xml version="1.0" encoding="UTF-8"?>
<svg xmlns="http://www.w3.org/2000/svg" xmlns:xlink="http://www.w3.org/1999/xlink" id="Layer_1" version="1.1" viewBox="0 0 633.5 203.8">
  <defs>
    <clipPath id="clippath">
      <path d="M143.7,39.6c0,14.5-19.1,26.5-42.4,26.5s-42.4-12-42.4-26.5,19.1-26.5,42.4-26.5,42.4,12,42.4,26.5Z" fill="none"></path>
    </clipPath>
  </defs>
  <g>
    <g>
      <path d="M180.6,93.8l11.3-80.6h31.1c13.3,0,22.8,2.3,28.5,6.8,5.8,4.5,8,11.6,6.6,21-1.1,8-5.1,14.3-12,19-6.9,4.6-15.8,6.9-26.6,6.9h-5.9l-3.8,26.9h-29.2ZM218.8,30.4l-2.5,17.9c4.5,0,7.9-.8,10.2-2.2s3.7-3.6,4.1-6.6c.4-3-.3-5.2-2.1-6.8-1.8-1.5-4.6-2.3-8.6-2.3h-1.1,0Z" fill="#ed1c24"></path>
      <path d="M258.1,93.8l11.3-80.6h33.6c11.4,0,20,2.2,25.9,6.7,5.9,4.5,8.3,10.5,7.3,18.2-.7,4.7-2.7,8.7-6.1,12.1-3.4,3.3-8.2,6-14.4,8l15.7,35.7h-31l-8.8-31.2-4.4,31.2h-29.2.1ZM296.3,30l-2.7,19.2c4,0,7-.9,9-2.4s3.3-3.9,3.7-7.2c.5-3.2,0-5.6-1.6-7.2-1.5-1.6-3.9-2.4-7.3-2.4h-1.2.1Z" fill="#ed1c24"></path>
      <path d="M340.4,53.6c1.9-13.3,6.8-23.6,14.6-31,7.9-7.3,18.1-11,30.5-11s21.5,3.7,27.2,11c5.8,7.3,7.7,17.6,5.9,31-1.9,13.3-6.7,23.6-14.5,30.9s-17.9,10.9-30.4,10.9-21.6-3.6-27.4-10.9-7.8-17.6-5.9-30.9h0ZM370,53c-1.2,8.4-1.3,14.1-.3,17.2s3.3,4.6,6.9,4.6,6.2-1.5,8.1-4.5c1.8-3,3.3-8.8,4.5-17.3s1.3-14.2.3-17.3-3.2-4.6-6.8-4.6-6.3,1.5-8.2,4.6c-1.9,3.1-3.4,8.8-4.6,17.2h.1Z" fill="#ed1c24"></path>
      <path d="M421.4,93.8l11.3-80.6h51.8l-2.8,19.5h-22.6l-1.6,11.6h19.9l-2.7,19h-19.9l-4.3,30.4h-29.2.1Z" fill="#ed1c24"></path>
      <path d="M480.8,93.8l11.3-80.6h52l-2.8,19.5h-22.6l-1.4,10.3h20.4l-2.7,18.9h-20.4l-1.6,11.1h22.6l-2.9,20.8h-52,.1Z" fill="#00aeef"></path>
      <path d="M543,93.8l11.3-80.6h29.1l10.2,42.4,6-42.4h26.5l-11.3,80.6h-28.8l-10.6-40.3-5.7,40.3h-26.7Z" fill="#00aeef"></path>
    </g>
    <g>
      <path d="M9.8,161.2l8.7-43.2h30.9l-1.5,7.2h-22.3l-2,9.8h21.6l-1.5,7.2h-21.6l-2.6,11.7h24.2l-1.5,7.2H9.8Z" fill="#fff"></path>
      <path d="M84.9,161.2h-8l-11.3-29-5.9,29h-8l8.7-43.2h8l11.3,28.9,5.8-28.9h8l-8.7,43.2h0Z" fill="#fff"></path>
      <path d="M119.7,138.1h18.6l-3.8,18.5c-2.2,1.5-4.9,2.7-8.1,3.7-3.2,1-6.4,1.5-9.8,1.5-5.2,0-9.1-1.2-11.9-3.6-3.8-3.3-5.6-8.1-5.6-14.4s.8-8.2,2.4-12.1c1.9-4.6,4.7-8.2,8.2-10.8,3.6-2.6,7.7-3.8,12.6-3.8s8.7,1.2,11.6,3.5,4.8,5.7,5.8,10.1l-8,.9c-.7-2.4-1.8-4.3-3.4-5.5-1.6-1.2-3.5-1.9-5.9-1.9s-5.3.7-7.6,2.2c-2.3,1.5-4.1,3.8-5.4,6.9s-2,6.5-2,10.2.8,6.3,2.4,8.1c1.6,1.7,3.9,2.6,7,2.6s3.7-.3,5.7-.8c1.9-.5,3.6-1.2,5-1.9l1.3-6.4h-10.6l1.5-7.2v.2Z" fill="#fff"></path>
      <path d="M144.3,161.2l8.7-43.2h8.6l-8.7,43.2h-8.6Z" fill="#fff"></path>
      <path d="M197.1,161.2h-8l-11.3-29-5.9,29h-8l8.7-43.2h8l11.3,28.9,5.8-28.9h8l-8.7,43.2h0Z" fill="#fff"></path>
      <path d="M208.7,161.2l8.7-43.2h30.9l-1.5,7.2h-22.3l-2,9.8h21.6l-1.5,7.2h-21.6l-2.6,11.7h24.2l-1.5,7.2h-32.5.1Z" fill="#fff"></path>
      <path d="M250.5,161.2l8.7-43.2h30.9l-1.5,7.2h-22.3l-2,9.8h21.6l-1.5,7.2h-21.6l-2.6,11.7h24.2l-1.5,7.2h-32.5,0Z" fill="#fff"></path>
      <path d="M301,161.2h-8.6l8.7-43.2h18.5c3.2,0,5.7.3,7.4,1,1.8.7,3.2,1.9,4.3,3.7,1.1,1.8,1.6,4,1.6,6.6,0,3.7-1.1,6.7-3.2,9.1-2.1,2.4-5.3,3.9-9.6,4.4,1.1,1,2.1,2.4,3.1,4,1.9,3.4,4,8.2,6.4,14.3h-9.2c-.7-2.4-2.2-6.2-4.3-11.4-1.2-2.8-2.4-4.7-3.8-5.6-.8-.6-2.2-.9-4.3-.9h-3.5l-3.6,17.9h.1ZM305.9,136.9h4.6c4.6,0,7.7-.3,9.2-.9,1.5-.6,2.7-1.5,3.5-2.7.9-1.2,1.3-2.5,1.3-3.8s-.6-2.8-1.8-3.5c-.8-.5-2.4-.7-4.9-.7h-9.4l-2.3,11.6h-.2Z" fill="#fff"></path>
      <path d="M336.8,161.2l8.7-43.2h8.6l-8.7,43.2h-8.6Z" fill="#fff"></path>
      <path d="M389.6,161.2h-8l-11.3-29-5.9,29h-8l8.7-43.2h8l11.3,28.9,5.8-28.9h8l-8.7,43.2h.1Z" fill="#fff"></path>
      <path d="M424.4,138.1h18.6l-3.8,18.5c-2.2,1.5-4.9,2.7-8.1,3.7s-6.4,1.5-9.8,1.5c-5.2,0-9.1-1.2-11.9-3.6-3.8-3.3-5.6-8.1-5.6-14.4s.8-8.2,2.4-12.1c1.9-4.6,4.7-8.2,8.2-10.8,3.6-2.6,7.7-3.8,12.6-3.8s8.7,1.2,11.6,3.5,4.8,5.7,5.8,10.1l-8,.9c-.7-2.4-1.8-4.3-3.4-5.5s-3.5-1.9-5.9-1.9-5.3.7-7.6,2.2c-2.3,1.5-4.1,3.8-5.4,6.9s-2,6.5-2,10.2.8,6.3,2.4,8.1c1.6,1.7,3.9,2.6,7,2.6s3.7-.3,5.7-.8c1.9-.5,3.6-1.2,5-1.9l1.3-6.4h-10.6l1.5-7.2v.2Z" fill="#fff"></path>
      <path d="M468.7,161.2l8.7-43.2h8.6l-7.3,36h21.2l-1.5,7.2h-29.8,0Z" fill="#fff"></path>
      <path d="M508.8,153.1h8.1l-1.6,8.2h-8.1l1.6-8.2Z" fill="#fff"></path>
      <path d="M526.2,161.2l8.7-43.2h8.6l-7.3,36h21.2l-1.5,7.2h-29.8,0Z" fill="#fff"></path>
      <path d="M566.3,153.1h8.1l-1.6,8.2h-8.1l1.6-8.2Z" fill="#fff"></path>
      <path d="M613.8,145.7l8.6,1.4c-1.7,4.9-4.2,8.6-7.6,11.1-3.4,2.6-7.3,3.9-11.9,3.9s-9.1-1.6-12-4.8-4.3-7.8-4.3-13.9,1-9.4,2.9-13.5c1.9-4.1,4.6-7.2,8-9.4,3.4-2.2,7.1-3.2,11.1-3.2s8.2,1.3,10.9,3.8c2.8,2.5,4.4,5.9,4.9,10.2l-8.2.8c-.5-2.5-1.3-4.3-2.6-5.5-1.3-1.1-3-1.7-5.2-1.7s-4.6.7-6.6,2.2c-2.1,1.5-3.7,3.8-4.9,7s-1.8,6.3-1.8,9.5.8,6.1,2.4,8c1.6,1.9,3.6,2.8,6,2.8s4.2-.7,6.1-2.2c1.8-1.5,3.2-3.7,4.1-6.6h0Z" fill="#fff"></path>
    </g>
    <g>
      <path d="M8,197.6H3.7l4.4-21.6h8.5c1.5,0,2.7.2,3.6.6.9.4,1.6,1,2.1,1.8.5.9.8,1.9.8,3s-.2,2.2-.6,3.2-.9,1.9-1.5,2.5-1.2,1.1-1.9,1.4c-.7.3-1.6.6-2.8.7-.7,0-1.9.1-3.8.1h-2.7l-1.7,8.2h-.1ZM10.3,185.8h1.3c2.3,0,3.8-.1,4.5-.4.7-.3,1.4-.8,1.8-1.4.4-.7.7-1.4.7-2.1s-.1-1-.3-1.3c-.2-.3-.5-.6-.9-.7-.4-.2-1.3-.2-2.7-.2h-3.1l-1.3,6.2h0Z" fill="#00aeef"></path>
      <path d="M44.1,197.6h-4.3l4.4-21.6h9.3c1.6,0,2.8.2,3.7.5s1.6,1,2.1,1.9.8,2,.8,3.3-.5,3.4-1.6,4.6c-1.1,1.2-2.7,1.9-4.8,2.2.6.5,1.1,1.2,1.5,2,1,1.7,2,4.1,3.2,7.2h-4.6c-.4-1.2-1.1-3.1-2.2-5.7-.6-1.4-1.2-2.3-1.9-2.8-.4-.3-1.1-.4-2.1-.4h-1.7l-1.8,9v-.2ZM46.6,185.4h2.3c2.3,0,3.8-.1,4.6-.4.8-.3,1.3-.7,1.8-1.3.4-.6.6-1.2.6-1.9s-.3-1.4-.9-1.8c-.4-.2-1.2-.4-2.5-.4h-4.7l-1.2,5.8h0Z" fill="#00aeef"></path>
      <path d="M78.8,189.1c0-1.3.2-2.6.6-4,.5-1.9,1.2-3.5,2.2-4.9s2.2-2.5,3.7-3.3,3.2-1.2,5.1-1.2,4.7.8,6.2,2.5c1.6,1.7,2.4,3.9,2.4,6.6s-.5,4.5-1.5,6.6-2.4,3.8-4.2,4.9c-1.8,1.2-3.8,1.7-6,1.7s-3.6-.5-4.9-1.4-2.3-2-2.8-3.4c-.6-1.4-.8-2.7-.8-4.1h0ZM83,189c0,1.5.4,2.7,1.3,3.7s2,1.5,3.4,1.5,2.3-.4,3.3-1.2c1.1-.8,1.9-2,2.6-3.6s1-3.2,1-4.7-.4-3-1.3-4-2-1.5-3.4-1.5c-2.1,0-3.8,1-5.1,3-1.3,2-2,4.2-2,6.7h.2Z" fill="#00aeef"></path>
      <path d="M116.7,197.6l4.4-21.6h14.6l-.7,3.6h-10.3l-1.1,5.2h10.1l-.7,3.6h-10.1l-1.8,9.2h-4.4Z" fill="#00aeef"></path>
      <path d="M151.1,197.6l4.4-21.6h15.4l-.7,3.6h-11.2l-1,4.9h10.8l-.7,3.6h-10.8l-1.3,5.9h12.1l-.7,3.6h-16.3Z" fill="#00aeef"></path>
      <path d="M187.9,190.6l4.1-.2c0,1.3.3,2.3.7,2.7.6.8,1.8,1.2,3.5,1.2s2.4-.3,3-.8.9-1.2.9-1.9-.3-1.2-.8-1.6c-.4-.3-1.3-.9-3-1.6-1.6-.7-2.8-1.3-3.5-1.8s-1.3-1.1-1.8-1.9c-.4-.8-.6-1.7-.6-2.7,0-1.8.6-3.3,1.9-4.5,1.3-1.2,3.1-1.8,5.5-1.8s4.3.6,5.7,1.8c1.3,1.2,2.1,2.8,2.2,4.7l-4.1.2c-.1-1-.5-1.8-1.1-2.4-.6-.5-1.5-.8-2.7-.8s-2,.2-2.5.6c-.5.4-.8,1-.8,1.6s.2,1.1.7,1.5,1.5,1,3.1,1.7c2.4,1.1,3.9,1.9,4.6,2.6,1,1,1.5,2.2,1.5,3.8s-.7,3.5-2.2,4.9-3.5,2-6.1,2-3.3-.3-4.7-.9c-1.3-.6-2.2-1.5-2.8-2.6-.5-1.1-.8-2.4-.8-3.8h.1Z" fill="#00aeef"></path>
      <path d="M223.9,190.6l4.1-.2c0,1.3.3,2.3.7,2.7.6.8,1.8,1.2,3.5,1.2s2.4-.3,3-.8.9-1.2.9-1.9-.3-1.2-.8-1.6c-.4-.3-1.3-.9-3-1.6-1.6-.7-2.8-1.3-3.5-1.8s-1.3-1.1-1.8-1.9c-.4-.8-.6-1.7-.6-2.7,0-1.8.6-3.3,1.9-4.5,1.3-1.2,3.1-1.8,5.5-1.8s4.3.6,5.7,1.8c1.3,1.2,2.1,2.8,2.2,4.7l-4.1.2c-.1-1-.5-1.8-1.1-2.4-.6-.5-1.5-.8-2.7-.8s-2,.2-2.5.6c-.5.4-.8,1-.8,1.6s.2,1.1.7,1.5,1.5,1,3.1,1.7c2.4,1.1,3.9,1.9,4.6,2.6,1,1,1.5,2.2,1.5,3.8s-.7,3.5-2.2,4.9-3.5,2-6.1,2-3.3-.3-4.7-.9c-1.3-.6-2.2-1.5-2.8-2.6-.5-1.1-.8-2.4-.8-3.8h.1Z" fill="#00aeef"></path>
      <path d="M259.2,197.6l4.4-21.6h4.3l-4.4,21.6h-4.3Z" fill="#00aeef"></path>
      <path d="M285.4,189.1c0-1.3.2-2.6.6-4,.5-1.9,1.2-3.5,2.2-4.9s2.2-2.5,3.7-3.3,3.2-1.2,5.1-1.2,4.7.8,6.2,2.5c1.6,1.7,2.4,3.9,2.4,6.6s-.5,4.5-1.5,6.6-2.4,3.8-4.2,4.9c-1.8,1.2-3.8,1.7-6,1.7s-3.6-.5-4.9-1.4-2.3-2-2.8-3.4c-.6-1.4-.8-2.7-.8-4.1h0ZM289.7,189c0,1.5.4,2.7,1.3,3.7s2,1.5,3.4,1.5,2.3-.4,3.3-1.2c1.1-.8,1.9-2,2.6-3.6s1-3.2,1-4.7-.4-3-1.3-4-2-1.5-3.4-1.5c-2.1,0-3.8,1-5.1,3-1.3,2-2,4.2-2,6.7h.2Z" fill="#00aeef"></path>
      <path d="M340,197.6h-4l-5.6-14.5-2.9,14.5h-4l4.4-21.6h4l5.6,14.5,2.9-14.5h4l-4.4,21.6Z" fill="#00aeef"></path>
      <path d="M374.7,192.8h-8.3l-2.5,4.8h-4.4l11.8-21.6h4.8l3.4,21.6h-4.1l-.7-4.8h0ZM374.1,189.2l-1.2-8.7-5,8.7h6.2Z" fill="#00aeef"></path>
      <path d="M398.8,197.6l4.4-21.6h4.3l-3.6,18h10.6l-.7,3.6h-15Z" fill="#00aeef"></path>
    </g>
    <g>
      <path d="M439.1,197.6l4.4-21.6h15.4l-.7,3.6h-11.2l-1,4.9h10.8l-.7,3.6h-10.8l-1.3,5.9h12.1l-.7,3.6h-16.3,0Z" fill="#ed1c24"></path>
      <path d="M477.1,197.6h-4l-5.6-14.5-2.9,14.5h-4l4.4-21.6h4l5.6,14.5,2.9-14.5h4l-4.4,21.6Z" fill="#ed1c24"></path>
      <path d="M494.9,186.1h9.3l-1.9,9.3c-1.1.7-2.4,1.4-4,1.9s-3.2.8-4.9.8c-2.6,0-4.6-.6-5.9-1.8-1.9-1.7-2.8-4-2.8-7.2s.4-4.1,1.2-6c1-2.3,2.3-4.1,4.1-5.4,1.8-1.3,3.9-1.9,6.3-1.9s4.3.6,5.8,1.7c1.5,1.2,2.4,2.9,2.9,5.1l-4,.5c-.4-1.2-.9-2.1-1.7-2.8s-1.8-.9-2.9-.9-2.7.4-3.8,1.1c-1.2.7-2.1,1.9-2.7,3.5-.7,1.6-1,3.3-1,5.1s.4,3.2,1.2,4c.8.9,2,1.3,3.5,1.3s1.9-.1,2.8-.4c1-.3,1.8-.6,2.5-1l.6-3.2h-5.3l.7-3.6h0Z" fill="#ed1c24"></path>
      <path d="M507.6,197.6l4.4-21.6h4.3l-4.4,21.6h-4.3Z" fill="#ed1c24"></path>
      <path d="M534.4,197.6h-4l-5.6-14.5-2.9,14.5h-4l4.4-21.6h4l5.6,14.5,2.9-14.5h4l-4.4,21.6Z" fill="#ed1c24"></path>
      <path d="M540.6,197.6l4.4-21.6h15.4l-.7,3.6h-11.2l-1,4.9h10.8l-.7,3.6h-10.8l-1.3,5.9h12.1l-.7,3.6h-16.3Z" fill="#ed1c24"></path>
      <path d="M561.9,197.6l4.4-21.6h15.4l-.7,3.6h-11.2l-1,4.9h10.8l-.7,3.6h-10.8l-1.3,5.9h12.1l-.7,3.6h-16.3Z" fill="#ed1c24"></path>
      <path d="M587.5,197.6h-4.3l4.4-21.6h9.3c1.6,0,2.8.2,3.7.5s1.6,1,2.1,1.9.8,2,.8,3.3-.5,3.4-1.6,4.6c-1.1,1.2-2.7,1.9-4.8,2.2.6.5,1.1,1.2,1.5,2,1,1.7,2,4.1,3.2,7.2h-4.6c-.4-1.2-1.1-3.1-2.2-5.7-.6-1.4-1.2-2.3-1.9-2.8-.4-.3-1.1-.4-2.1-.4h-1.7l-1.8,9v-.2ZM590,185.4h2.3c2.3,0,3.8-.1,4.6-.4.8-.3,1.3-.7,1.8-1.3.4-.6.6-1.2.6-1.9s-.3-1.4-.9-1.8c-.4-.2-1.2-.4-2.5-.4h-4.7l-1.2,5.8h0Z" fill="#ed1c24"></path>
      <path d="M606.7,190.6l4.1-.2c0,1.3.3,2.3.7,2.7.6.8,1.8,1.2,3.5,1.2s2.4-.3,3-.8.9-1.2.9-1.9-.3-1.2-.8-1.6c-.4-.3-1.3-.9-3-1.6-1.6-.7-2.8-1.3-3.5-1.8s-1.3-1.1-1.8-1.9c-.4-.8-.6-1.7-.6-2.7,0-1.8.6-3.3,1.9-4.5,1.3-1.2,3.1-1.8,5.5-1.8s4.3.6,5.7,1.8c1.3,1.2,2.1,2.8,2.2,4.7l-4.1.2c0-1-.5-1.8-1.1-2.4-.6-.5-1.5-.8-2.7-.8s-2,.2-2.5.6c-.5.4-.8,1-.8,1.6s.2,1.1.7,1.5,1.5,1,3.1,1.7c2.4,1.1,3.9,1.9,4.6,2.6,1,1,1.5,2.2,1.5,3.8s-.7,3.5-2.2,4.9-3.5,2-6.1,2-3.3-.3-4.7-.9c-1.3-.6-2.2-1.5-2.8-2.6-.5-1.1-.8-2.4-.8-3.8h0Z" fill="#ed1c24"></path>
    </g>
  </g>
  <g>
    <path d="M5.9,106l2.1,1.4c1.4,1.1,3.5,2.1,6,3.2,2.5,1.1,5.3,1.8,7.8,1.8h.4c.7,0,1.4,0,2.5-.7,1.4-.7,3.2-1.4,4.9-2.1,1.8-.7,3.5-1.8,4.9-2.1,1.1,0,3.5-1.1,6.7-1.1s4.2,0,6.4,1.1c2.8,1.1,5.7,2.1,8.5,3.2,2.5,1.1,4.9,1.8,6.7,2.1s3.2.7,4.9.7,3.9-.4,6-1.4c2.1-1.1,4.9-2.8,8.1-4.2,1.8-.7,3.2-1.4,4.9-1.8,1.8-.4,3.2-.7,4.6-.7h0c1.4,0,3.2.4,4.9.7,2.5.7,5.3,1.8,8.1,2.8s5.7,2.1,8.1,3.2c1.4.4,2.8.7,4.2.7,2.8,0,5.3-.7,7.8-1.8,1.1-.4,2.1-1.1,2.8-1.4.7-.4,1.4-.7,2.1-1.1.4,0,1.1-.4,1.8-.7,2.5-.7,5.7-1.4,9.2-1.4s3.5,0,5.3.4c2.8.7,6,1.8,8.8,2.8,1.4.7,3.2,1.1,4.2,1.4,1.4.4,2.5.7,3.5.7s0,0,.4,0h0c1.4,0,4.2-.4,7.4-1.4,3.2-1.1,6.7-2.8,9.2-5.7l.7.7c-2.8,2.8-6.4,4.6-9.5,6-3.2,1.1-6.4,1.4-7.4,1.8v-.7.7h-.7c-1.1,0-2.5,0-3.9-.7-2.1-.7-4.6-1.4-6.7-2.5-2.5-.7-4.6-1.8-6.4-2.1-1.4,0-3.2-.4-4.9-.4s-4.6,0-6.4.7c-1.1,0-1.8.4-2.5.7-.7,0-1.4.4-1.8.7-.4,0-1.1.7-2.1,1.1-2.5,1.4-6.7,3.2-10.9,3.2s-2.8,0-4.6-.7c-3.5-1.1-7.4-2.8-11.3-4.2-1.8-.7-3.5-1.4-5.3-1.8s-3.2-.7-4.6-.7h0c-1.4,0-2.8,0-4.2.7-2.5.7-4.9,1.8-7.1,2.8s-4.2,2.1-6,3.2c-2.1,1.1-4.6,1.4-6.4,1.4s-3.5,0-5.3-.7c-1.8-.4-4.2-1.4-6.7-2.5-2.8-1.1-5.7-2.1-8.5-3.2-2.1-.7-4.2-1.1-6-1.1-2.8,0-5.3.7-6.4,1.1-2.1.7-4.2,1.8-6.4,2.8-1.1.7-2.1,1.1-3.2,1.4-1.1.4-2.1.7-2.8.7h-.4c-3.9,0-7.8-1.4-10.6-2.8-1.4-.7-2.8-1.4-3.9-2.1-1.1-.7-1.8-1.4-2.1-1.8l.7-1.1v.7Z" fill="#00adee"></path>
    <path d="M5.9,110.3l2.1,1.4c1.4,1.1,3.5,2.1,6,3.2,2.5,1.1,5.3,1.8,7.8,1.8h.4c.7,0,1.4,0,2.5-.7,1.4-.7,3.2-1.4,4.9-2.1,1.8-.7,3.5-1.8,4.9-2.1,1.1,0,3.5-1.1,6.7-1.1s4.2,0,6.4,1.1c2.8,1.1,5.7,2.1,8.5,3.2,2.5,1.1,4.9,1.8,6.7,2.1s3.2.7,4.9.7,3.9-.4,6-1.4h0c2.1-1.1,4.9-2.8,8.1-4.2,1.8-.7,3.2-1.4,4.9-1.8,1.8-.4,3.2-.7,4.6-.7h0c1.4,0,3.2.4,4.9.7,2.5.7,5.3,1.8,8.1,2.8s5.7,2.1,8.1,3.2c1.4.4,2.8.7,4.2.7,2.8,0,5.3-.7,7.8-1.8,1.1-.4,2.1-1.1,2.8-1.4.7-.4,1.4-.7,2.1-1.1h0c.4,0,1.1-.4,1.8-.7,2.5-.7,5.7-1.4,9.2-1.4s3.5,0,5.3.4c2.8.7,6,1.8,8.8,3.2,1.4.7,3.2,1.1,4.2,1.4,1.4.4,2.8.7,3.5.7s0,0,.4,0h0c1.4,0,4.2-.4,7.4-1.4,3.2-1.1,6.7-2.8,9.2-5.7l.7.7c-2.8,2.8-6.4,4.6-9.5,6-3.2,1.1-6.4,1.4-7.4,1.8h-.7c-1.1,0-2.5,0-3.9-.7-2.1-.7-4.6-1.4-6.7-2.5-2.5-.7-4.6-1.8-6.4-2.1-1.4,0-3.2-.4-4.9-.4s-4.6,0-6.4.7c-1.1,0-1.8.4-2.5.7-.7,0-1.4.4-1.8.7h0c-.4,0-1.1.7-2.1,1.1-2.5,1.4-6.7,3.2-10.9,3.2s-2.8,0-4.6-.7c-3.5-1.1-7.4-2.8-11.3-4.2-1.8-.7-3.5-1.4-5.3-1.8s-3.2-.7-4.6-.7h0c-1.4,0-2.8,0-4.2.7-2.5.7-4.9,1.8-7.1,2.8s-4.2,2.1-6,3.2h0c-2.1,1.1-4.6,1.4-6.4,1.4s-3.5,0-5.3-.7c-1.8-.4-4.2-1.4-6.7-2.5-2.8-1.1-5.7-2.1-8.5-3.2-2.1-.7-4.2-1.1-6-1.1-2.8,0-5.3.7-6.4,1.1-2.1.7-4.2,1.8-6.4,2.8-1.1.7-2.1,1.1-3.2,1.4-1.1.4-2.1.7-2.8.7h-.4c-3.9,0-7.8-1.4-10.6-2.8-1.4-.7-2.8-1.4-3.9-2.1-1.1-.7-1.8-1.4-2.1-1.8l.7-.7h0Z" fill="#00adee"></path>
    <path d="M5.9,114.5l2.1,1.4c1.4,1.1,3.5,2.1,6,3.2,2.5,1.1,5.3,1.8,7.8,1.8s0,0,.4,0h0c.7,0,1.4,0,2.5-.7,1.4-.7,3.2-1.4,4.9-2.1,1.8-.7,3.5-1.8,4.9-2.1h0c1.1,0,3.5-1.1,6.7-1.1s4.2,0,6.4,1.1c2.8,1.1,5.7,2.1,8.5,3.2,2.5,1.1,4.9,1.8,6.7,2.1s3.2.7,4.9.7,3.9-.4,6-1.4c2.1-1.1,4.9-2.8,8.1-4.2,1.8-.7,3.2-1.4,4.9-1.8,1.8-.4,3.2-.7,4.6-.7h0c1.4,0,3.2.4,4.9.7,2.5.7,5.3,1.8,8.1,2.8s5.7,2.1,8.1,3.2c1.4.4,2.8.7,4.2.7,2.8,0,5.3-.7,7.8-1.8,1.1-.4,2.1-1.1,2.8-1.4.7-.4,1.4-.7,2.1-1.1.4,0,1.1-.4,1.8-.7,2.5-.7,5.7-1.1,9.2-1.1s3.5,0,5.3.4c2.8.7,6,1.8,8.8,2.8,1.4.7,3.2,1.1,4.2,1.4,1.4.4,2.5.7,3.5.7h.4c1.4,0,4.2-.4,7.4-1.4,3.2-1.1,6.7-2.8,9.2-5.7l.7.7c-2.8,2.8-6.4,4.6-9.5,5.7s-6.4,1.4-7.4,1.8v-.7.7h-.7c-1.1,0-2.5,0-3.9-.7-2.1-.7-4.6-1.4-6.7-2.5-2.5-.7-4.6-1.8-6.4-2.1-1.4,0-3.2-.4-4.9-.4s-4.6,0-6.4.7c-1.1,0-1.8.4-2.5.7-.7,0-1.4.4-1.8.7-.4,0-1.1.7-2.1,1.1-2.5,1.4-6.7,3.2-10.9,3.2s-2.8,0-4.6-.7c-3.5-1.1-7.4-2.8-11.3-4.2-1.8-.7-3.5-1.4-5.3-1.8s-3.2-.7-4.6-.7h0c-1.4,0-2.8,0-4.2.7-2.5.7-4.9,1.8-7.1,2.8s-4.2,2.1-6,3.2c-2.1,1.1-4.6,1.4-6.4,1.4s-3.5,0-5.3-.7c-1.8-.4-4.2-1.4-6.7-2.5-2.8-1.1-5.7-2.1-8.5-3.2-2.1-.7-4.2-1.1-6-1.1-2.8,0-5.3.7-6.4,1.1h0c-2.1.7-4.2,1.8-6.4,2.8-1.1.7-2.1,1.1-3.2,1.4-1.1.4-2.1.7-2.8.7h-.4c-3.9,0-7.8-1.4-10.6-2.8-1.4-.7-2.8-1.4-3.9-2.1-1.1-.7-1.8-1.4-2.1-1.8l.7-1.1v.7Z" fill="#00adee"></path>
    <path d="M5.9,118.7l2.1,1.4c1.4,1.1,3.5,2.1,6,3.2,2.5,1.1,5.3,1.8,7.8,1.8h.4c.7,0,1.4,0,2.5-.7,1.4-.7,3.2-1.4,4.9-2.1,1.8-.7,3.5-1.8,4.9-2.1,1.1,0,3.5-1.1,6.7-1.1s4.2,0,6.4,1.1c2.8,1.1,5.7,2.1,8.5,3.2,2.5,1.1,4.9,1.8,6.7,2.1s3.2.7,4.9.7,3.9-.4,6-1.4h0c2.1-1.1,4.9-2.8,8.1-4.2,1.8-.7,3.2-1.4,4.9-1.8,1.8-.4,3.2-.7,4.6-.7h0c1.4,0,3.2.4,4.9.7,2.5.7,5.3,1.8,8.1,2.8s5.7,2.1,8.1,3.2c1.4.4,2.8.7,4.2.7,2.8,0,5.3-.7,7.8-1.8,1.1-.4,2.1-1.1,2.8-1.4.7-.4,1.4-.7,2.1-1.1.4,0,1.1-.4,1.8-.7,2.5-.7,5.7-1.4,9.2-1.4s3.5,0,5.3.4c2.8.7,6,1.8,8.8,2.8,1.4.7,3.2,1.1,4.2,1.4,1.4.4,2.8.7,3.9.7s0,0,.4,0h0c1.4,0,4.2-.4,7.4-1.4,3.2-1.1,6.7-2.8,9.2-5.7l.7.7c-2.8,2.8-6.4,4.6-9.5,6-3.2,1.1-6.4,1.4-7.4,1.8v-.7.7h-.7c-1.1,0-2.5,0-3.9-.7-2.1-.7-4.6-1.4-6.7-2.5-2.5-.7-4.6-1.8-6.4-2.1-1.4,0-3.2-.4-4.9-.4s-4.6,0-6.4.7c-1.1,0-1.8.4-2.5.7-.7,0-1.4.4-1.8.7-.4,0-1.1.7-2.1,1.1-2.5,1.4-6.7,3.2-10.9,3.2s-2.8,0-4.6-.7c-3.5-1.1-7.4-2.8-11.3-4.2-1.8-.7-3.5-1.4-5.3-1.8s-3.2-.7-4.6-.7h0c-1.4,0-2.8,0-4.2.7-2.5.7-4.9,1.8-7.1,2.8s-4.2,2.1-6,3.2h0c-2.1,1.1-4.6,1.4-6.4,1.4s-3.5,0-5.3-.7c-1.8-.4-4.2-1.4-6.7-2.5-2.8-1.1-5.7-2.1-8.5-3.2-2.1-.7-4.2-1.1-6-1.1-2.8,0-5.3.7-6.4,1.1-2.1.7-4.2,1.8-6.4,2.8-1.1.7-2.1,1.1-3.2,1.4-1.1.4-2.1.7-2.8.7h-.4c-3.9,0-7.8-1.4-10.6-2.8-1.4-.7-2.8-1.4-3.9-2.1-1.1-.7-1.8-1.4-2.1-1.8l.7-1.1-.4.7Z" fill="#00adee"></path>
    <path d="M5.9,122.6l2.1,1.4c1.4,1.1,3.5,2.1,6,3.2,2.5,1.1,5.3,1.8,7.8,1.8s0,0,.4,0c.7,0,1.4,0,2.5-.7,1.4-.7,3.2-1.4,4.9-2.1,1.8-.7,3.5-1.8,4.9-2.1,1.1,0,3.5-1.1,6.7-1.1s4.2,0,6.4,1.1c2.8,1.1,5.7,2.1,8.5,3.2,2.5,1.1,4.9,1.8,6.7,2.1h0c1.8.4,3.2.7,4.9.7s3.9-.4,6-1.4c2.1-1.1,4.9-2.8,8.1-4.2,1.8-.7,3.2-1.4,4.9-1.8,1.8-.4,3.2-.7,4.6-.7s0,0,0,0h0c1.4,0,3.2.4,4.9.7,2.5.7,5.3,1.8,8.1,2.8s5.7,2.1,8.1,3.2c1.4.4,2.8.7,4.2.7,2.8,0,5.3-.7,7.8-1.8,1.1-.4,2.1-1.1,2.8-1.4.7-.4,1.4-.7,2.1-1.1h0c.4,0,1.1-.4,1.8-.7,2.5-.7,5.7-1.4,9.2-1.4s3.5,0,5.3.4c2.8.7,6,1.8,8.8,2.8,1.4.7,3.2,1.1,4.2,1.4,1.4.4,2.5.7,3.5.7h.4c1.4,0,4.2-.4,7.4-1.4,3.2-1.1,6.7-2.8,9.2-5.7l.7.7c-2.8,2.8-6.4,4.6-9.5,6-3.2,1.1-6.4,1.4-7.4,1.8v-.7.7h-.7c-1.1,0-2.5,0-3.9-.7-2.1-.7-4.6-1.4-6.7-2.5-2.5-.7-4.6-1.8-6.4-2.1-1.4,0-3.2-.4-4.9-.4s-4.6,0-6.4.7c-1.1,0-1.8.4-2.5.7-.7,0-1.4.4-1.8.7h0c-.4,0-1.1.7-2.1,1.1-2.5,1.4-6.7,3.2-10.9,3.2s-2.8,0-4.6-.7c-3.5-1.1-7.4-2.8-11.3-4.2-1.8-.7-3.5-1.4-5.3-1.8s-3.2-.7-4.6-.7h0c-1.4,0-2.8,0-4.2.7-2.5.7-4.9,1.8-7.1,2.8s-4.2,2.1-6,3.2c-2.1,1.1-4.6,1.4-6.4,1.4s-3.5,0-5.3-.7h0c-1.8-.4-4.2-1.4-6.7-2.5-2.8-1.1-5.7-2.1-8.5-3.2-2.1-.7-4.2-1.1-6-1.1-2.8,0-5.3.7-6.4,1.1-2.1.7-4.2,1.8-6.4,2.8-1.1.7-2.1,1.1-3.2,1.4-1.1.4-2.1.7-2.8.7h-.4c-3.9,0-7.8-1.4-10.6-2.8-1.4-.7-2.8-1.4-3.9-2.1-1.1-.7-1.8-1.4-2.1-1.8l.7-1.1h0v.7Z" fill="#00adee"></path>
    <g>
      <path d="M160.6,35.7c-3.9-26.1-27.9-30-31.8-30H40.9v97.5h37.4v-30h51.6c13.4,0,33.9-15.5,31.1-37.1l-.4-.4ZM101.3,65.4c-23.3,0-42.4-11.7-42.4-26.1s19.1-26.1,42.4-26.1,42.4,11.7,42.4,26.1-19.1,26.1-42.4,26.1Z" fill="#ec1c24"></path>
      <g clip-path="url(#clippath)">
        <g>
          <polyline points="56.8 38.6 148.3 38.6 148.3 40.7 56.8 40.7" fill="#ec1c24"></polyline>
          <polyline points="102 9.9 102 69.3 99.9 69.3 99.9 9.9" fill="#ec1c24"></polyline>
          <path d="M79.4,14.5s.4.7.7,1.1c.7.7,1.8,1.4,3.2,2.1,2.1,1.1,4.9,2.1,7.8,2.8,3.2.7,6.4,1.4,9.9,1.4h.7c4.6,0,9.2-1.1,12.7-2.8,3.9-1.4,7.1-3.2,8.5-4.2l1.1,2.1c-1.8,1.1-4.9,2.8-8.8,4.2-3.9,1.4-8.8,2.8-13.8,2.8h-.7c-5.3,0-10.9-1.4-15.2-2.8-2.1-.7-3.9-1.8-5.3-2.5-.7-.4-1.4-1.1-1.8-1.4-.4-.7-1.1-1.1-1.4-1.8l2.1-1.1h.4Z" fill="#ec1c24"></path>
          <path d="M68.5,21.6h0l1.1,1.1c1.8,1.8,5.7,4.2,11,6.4,5.3,2.1,12,3.9,20.5,3.9s10.9-1.1,17.3-2.8c6-2.1,12-4.9,16.2-9.5l1.8,1.8c-4.6,4.6-10.6,8.1-17,10.2s-12.7,2.8-18,2.8c-10.6,0-19.1-2.8-24.7-5.7-2.8-1.4-5.3-3.2-6.7-4.2-.7-.7-1.4-1.1-1.8-1.8l-.7-.7h0l2.1-1.4h-1.1Z" fill="#ec1c24"></path>
          <path d="M123.2,64s-.4-.7-.7-1.1c-.7-.7-1.8-1.4-3.2-2.1-2.1-1.1-4.9-2.1-7.8-2.8-3.2-.7-6.4-1.1-9.9-1.4h-.7c-4.6,0-9.2,1.1-12.7,2.8-3.9,1.4-7.1,3.2-8.5,4.2l-1.1-2.1c1.8-1.1,4.9-2.8,8.8-4.2,3.9-1.4,8.8-2.8,13.8-2.8h.7c5.3,0,10.9,1.4,15.2,2.8,2.1.7,3.9,1.8,5.3,2.5s1.4,1.1,1.8,1.4c.7.7,1.1,1.1,1.4,1.8l-2.1,1.1h-.4Z" fill="#ec1c24"></path>
          <path d="M134.2,56.9h0l-1.1-1.1c-1.8-1.8-5.7-4.2-10.9-6.4-5.3-2.1-12-3.9-20.1-3.9s-10.9,1.1-17.3,2.8c-6,2.1-12,4.9-16.2,9.5l-1.8-1.8c4.6-4.6,10.6-8.1,17-9.9,6.4-2.1,12.7-3.2,18-3.2,10.6,0,18.7,2.8,24.7,5.7,2.8,1.4,5.3,3.2,6.7,4.2.7.7,1.4,1.1,2.1,1.8,0,0,.4.4.7.7h0l-2.1,1.4h.4Z" fill="#ec1c24"></path>
        </g>
      </g>
    </g>
  </g>
</svg>
